{
.appVersion = "3306";
.formatVersion = 3;
DisplayStrings = (
"1iı̇нıIl",
void,
"РP",
bar,
"-/hyphen-gnrl.case ‐",
"jȷ",
"/pedestrian.alt",
"SB&B"
);
customParameters = (
{
name = glyphOrder;
value = (
.notdef,
A,
B,
C,
D,
E,
F,
G,
H,
I,
J,
K,
L,
M,
N,
O,
P,
Q,
R,
S,
T,
U,
V,
W,
X,
Y,
Z,
a,
b,
c,
d,
e,
f,
g,
h,
i,
j,
k,
l,
m,
n,
o,
p,
q,
r,
s,
t,
u,
v,
w,
x,
y,
z,
Acyr,
Becyr,
Vecyr,
Gecyr,
Decyr,
Iecyr,
Zhecyr,
Zecyr,
Icyr,
Ishortcyr,
Kacyr,
Elcyr,
Emcyr,
Encyr,
Ocyr,
Pecyr,
Ercyr,
Escyr,
Tecyr,
Ucyr,
Efcyr,
Hacyr,
Tsecyr,
Checyr,
Shacyr,
Shchacyr,
Hardcyr,
Ylongcyr,
Softcyr,
Ereversedcyr,
Yucyr,
Yacyr,
Iocyr,
Djecyr,
Gjecyr,
Geupcyr,
Eukrcyr,
Dzecyr,
Iukrcyr,
Yukrcyr,
Jecyr,
Ljecyr,
Njecyr,
Tshecyr,
Kjecyr,
Ushortcyr,
Dzhecyr,
acyr,
becyr,
vecyr,
gecyr,
decyr,
iecyr,
zhecyr,
zecyr,
icyr,
ishortcyr,
kacyr,
elcyr,
emcyr,
encyr,
ocyr,
pecyr,
ercyr,
escyr,
tecyr,
ucyr,
efcyr,
hacyr,
tsecyr,
checyr,
shacyr,
shchacyr,
hardcyr,
ylongcyr,
softcyr,
ereversedcyr,
yucyr,
yacyr,
iocyr,
djecyr,
gjecyr,
geupcyr,
eukrcyr,
dzecyr,
iukrcyr,
yukrcyr,
jecyr,
ljecyr,
njecyr,
tshecyr,
kjecyr,
ushortcyr,
dzhecyr,
CR,
space,
period,
I.alt,
dotlessi,
dotlessj,
Odieresis,
"Odieresis-cy",
odieresis,
"odieresis-cy",
macron,
macroncomb,
hungarumlautcomb,
acute,
dotaccentcomb,
brevecomb,
dieresiscomb,
brevecomb.case,
dieresiscomb.case,
dotaccentcomb.case,
information,
circledInformationSource,
zero,
one,
two,
three,
four,
five,
six,
seven,
eight,
nine,
arrowleft,
arrowup,
arrowright,
arrowdown,
arrowboth,
arrowleft.case,
arrowup.case,
arrowright.case,
arrowdown.case,
arrowboth.case,
exclam,
quotedbl,
numbersign,
percent,
ampersand,
quotesingle,
asterisk,
comma,
slash,
colon,
semicolon,
ellipsis,
question,
at,
at.case,
backslash,
exclamdown,
periodcentered,
questiondown,
toilet,
man,
girl,
Abrevecyr,
abrevecyr,
Adieresiscyr,
adieresiscyr,
Aiecyr,
aiecyr,
AE,
ae,
Iebrevecyr,
iebrevecyr,
Idieresiscyr,
idieresiscyr,
Obarcyr,
obarcyr,
Obardieresiscyr,
obardieresiscyr,
Gestrokecyr,
gestrokecyr,

glyphs = (
{
glyphname = .notdef;
layers = (
{
guides = (
{
pos = (0,342);
},
{
angle = 90;
pos = (391,0);
},
{
angle = 90;
pos = (454,0);
},
{
angle = 90;
pos = (269,0);
}
);
layerId = "EF32B9A4-AE44-476D-9D4B-CF47E47A5F6C";
shapes = (
{
closed = 1;
nodes = (
(263,194,o),
(272,184,o),
(285,184,cs),
(298,184,o),
(307,194,o),
(307,208,cs),
(307,222,o),
(298,232,o),
(285,232,cs),
(272,232,o),
(263,222,o),
(263,208,cs)
);
},
{
closed = 1;
nodes = (
(85,520,l),
(85,0,l),
(605,0,l),
(605,520,l)
);
},
{
closed = 1;
nodes = (
(484,313,l),
(482,324,o),
(475,331,o),
(465,331,cs),
(455,331,o),
(447,324,o),
(445,313,c)
);
},
{
closed = 1;
nodes = (
(269,89,l),
(269,65,l),
(226,103,l),
(226,20,l),
(208,20,l),
(208,103,l),
(165,65,l),
(165,89,l),
(217,135,l)
);
},
{
closed = 1;
nodes = (
(209,255,l),
(221,255,l),
(221,241,l),
(240,241,l),
(240,230,l),
(221,230,l),
(221,200,ls),
(221,189,o),
(225,185,o),
(232,185,cs),
(235,185,o),
(237,185,o),
(240,186,c),
(240,176,l),
(237,175,o),
(233,174,o),
(229,174,cs),
(217,174,o),
(209,181,o),
(209,198,cs),
(209,230,l),
(197,230,l),
(197,241,l),
(209,241,l)
);
},
{
closed = 1;
nodes = (
(197,341,l),
(208,341,l),
(222,289,l),
(236,341,l),
(248,341,l),
(262,289,l),
(276,341,l),
(287,341,l),
(268,275,l),
(256,275,l),
(242,323,l),
(228,275,l),
(216,275,l)
);
},
{
closed = 1;
nodes = (
(251,228,o),
(265,242,o),
(285,242,cs),
(305,242,o),
(319,228,o),
(319,208,cs),
(319,187,o),
(305,174,o),
(285,174,cs),
(265,174,o),
(251,187,o),
(251,208,cs)
);
},
{
closed = 1;
nodes = (
(397,89,l),
(397,65,l),
(354,103,l),
(354,20,l),
(336,20,l),
(336,103,l),
(293,65,l),
(293,89,l),
(345,135,l)
);
},
{
closed = 1;
nodes = (
(525,89,l),
(525,65,l),
(482,103,l),
(482,20,l),
(464,20,l),
(464,103,l),
(421,65,l),
(421,89,l),
(473,135,l)
);
},
{
closed = 1;
nodes = (
(269,431,l),
(217,385,l),
(165,431,l),
(165,455,l),
(208,417,l),
(208,500,l),
(226,500,l),
(226,417,l),
(269,455,l)
);
},
{
closed = 1;
nodes = (
(335,331,l),
(319,333,o),
(312,323,o),
(312,313,cs),
(312,275,l),
(300,275,l),
(300,341,l),
(310,341,l),
(311,333,l),
(314,339,o),
(325,344,o),
(335,342,c)
);
},
{
closed = 1;
nodes = (
(397,431,l),
(345,385,l),
(293,431,l),
(293,455,l),
(336,417,l),
(336,500,l),
(354,500,l),
(354,417,l),
(397,455,l)
);
},
{
closed = 1;
nodes = (
(355,275,l),
(355,330,l),
(345,330,l),
(345,341,l),
(367,341,l),
(367,275,l)
);
},
{
closed = 1;
nodes = (
(354,361,o),
(357,364,o),
(361,364,cs),
(365,364,o),
(368,361,o),
(368,357,cs),
(368,353,o),
(365,350,o),
(361,350,cs),
(357,350,o),
(354,353,o),
(354,357,cs)
);
},
{
closed = 1;
nodes = (
(425,175,l),
(415,175,l),
(414,183,l),
(409,177,o),
(401,174,o),
(392,174,cs),
(375,174,o),
(364,185,o),
(364,203,cs),
(364,241,l),
(376,241,l),
(376,206,ls),
(376,192,o),
(383,185,o),
(394,185,cs),
(405,185,o),
(413,192,o),
(413,206,cs),
(413,241,l),
(425,241,l)
);
},
{
closed = 1;
nodes = (
(394,355,l),
(406,355,l),
(406,341,l),
(425,341,l),
(425,330,l),
(406,330,l),
(406,300,ls),
(406,289,o),
(410,285,o),
(417,285,cs),
(420,285,o),
(422,285,o),
(425,286,c),
(425,276,l),
(422,275,o),
(418,274,o),
(414,274,cs),
(402,274,o),
(394,281,o),
(394,298,cs),
(394,330,l),
(382,330,l),
(382,341,l),
(394,341,l)
);
},
{
closed = 1;
nodes = (
(446,273,o),
(433,286,o),
(433,307,cs),
(433,328,o),
(445,341,o),
(465,341,cs),
(483,341,o),
(495,328,o),
(495,308,cs),
(495,303,l),
(445,303,l),
(446,291,o),
(454,284,o),
(469,284,cs),
(477,284,o),
(486,285,o),
(491,288,c),
(491,278,l),
(483,274,o),
(473,273,o),
(467,273,cs)
);
},
{
closed = 1;
nodes = (
(439,192,l),
(445,188,o),
(454,184,o),
(465,184,cs),
(474,184,o),
(482,187,o),
(482,193,cs),
(482,200,o),
(474,202,o),
(464,205,cs),
(452,209,o),
(441,211,o),
(441,224,cs),
(441,235,o),
(448,242,o),
(467,242,cs),
(477,242,o),
(485,240,o),
(490,238,c),
(490,227,l),
(484,230,o),
(477,232,o),
(468,232,cs),
(458,232,o),
(452,229,o),
(452,225,cs),
(452,219,o),
(461,217,o),
(471,214,cs),
(482,210,o),
(494,207,o),
(494,194,cs),
(494,180,o),
(481,174,o),
(465,174,cs),
(455,174,o),
(446,177,o),
(439,181,c)
);
},
{
closed = 1;
nodes = (
(525,431,l),
(473,385,l),
(421,431,l),
(421,455,l),
(464,417,l),
(464,500,l),
(482,500,l),
(482,417,l),
(525,455,l)
);
}
);
width = 690;
}
);
metricLeft = encyr;
metricRight = "=|";
},
{
color = (153,255,154,255);
glyphname = A;
kernLeft = A1;
kernRight = A2;
layers = (
{
anchors = (
{
name = top;
pos = (383,700);
}
);
layerId = "EF32B9A4-AE44-476D-9D4B-CF47E47A5F6C";
shapes = (
{
closed = 1;
nodes = (
(30,0,l),
(133,0,l),
(211,186,l),
(555,186,l),
(633,0,l),
(736,0,l),
(430,700,l),
(336,700,l)
);
},
{
closed = 1;
nodes = (
(249,276,l),
(383,593,l),
(517,276,l)
);
}
);
width = 766;
}
);
metricLeft = "=O-40";
metricRight = "=|";
unicode = 65;
},
{
color = (153,255,154,255);
glyphname = B;
kernLeft = H1;
kernRight = B2;
layers = (
{
guides = (
{
pos = (0,375);
}
);
layerId = "EF32B9A4-AE44-476D-9D4B-CF47E47A5F6C";
shapes = (
{
closed = 1;
nodes = (
(100,700,l),
(100,0,l),
(430,0,ls),
(566,0,o),
(660,79,o),
(660,193,cs),
(660,280,o),
(605,348,o),
(518,374,c),
(576,405,o),
(610,460,o),
(610,523,cs),
(610,621,o),
(528,700,o),
(400,700,cs)
);
},
{
closed = 1;
nodes = (
(196,90,l),
(196,322,l),
(410,322,ls),
(504,322,o),
(564,277,o),
(564,206,cs),
(564,135,o),
(504,90,o),
(410,90,cs)
);
},
{
closed = 1;
nodes = (
(382,610,ls),
(463,610,o),
(514,571,o),
(514,510,cs),
(514,449,o),
(463,410,o),
(382,410,cs),
(196,410,l),
(196,610,l)
);
}
);
width = 720;
}
);
metricLeft = H;
metricRight = "=O-10";
unicode = 66;
},
{
color = (153,255,154,255);
glyphname = C;
kernLeft = O1;
kernRight = C2;
layers = (
{
layerId = "EF32B9A4-AE44-476D-9D4B-CF47E47A5F6C";
shapes = (
{
closed = 1;
nodes = (
(531,-10,o),
(594,2,o),
(647,27,c),
(647,120,l),
(595,91,o),
(522,78,o),
(459,78,cs),
(276,78,o),
(168,185,o),
(168,350,cs),
(168,514,o),
(274,622,o),
(448,622,cs),
(511,622,o),
(584,608,o),
(637,575,c),
(637,669,l),
(585,696,o),
(522,710,o),
(451,710,cs),
(221,710,o),
(70,560,o),
(70,350,cs),
(70,140,o),
(225,-10,o),
(463,-10,cs)
);
}
);
width = 702;
}
);
metricLeft = O;
metricRight = "=O-15";
unicode = 67;
},
{
color = (153,255,154,255);
glyphname = D;
kernLeft = H1;
kernRight = O2;
layers = (
{
layerId = "EF32B9A4-AE44-476D-9D4B-CF47E47A5F6C";
shapes = (
{
closed = 1;
nodes = (
(100,700,l),
(100,0,l),
(334,0,ls),
(563,0,o),
(696,152,o),
(696,350,cs),
(696,548,o),
(563,700,o),
(334,700,cs)
);
},
{
closed = 1;
nodes = (
(196,90,l),
(196,610,l),
(318,610,ls),
(476,610,o),
(600,534,o),
(600,350,cs),
(600,166,o),
(476,90,o),
(318,90,cs)
);
}
);
width = 766;
}
);
metricLeft = H;
metricRight = O;
unicode = 68;
},
{
color = (153,255,154,255);
glyphname = E;
kernLeft = H1;
kernRight = E2;
layers = (
{
anchors = (
{
name = top;
pos = (352,700);
}
);
layerId = "EF32B9A4-AE44-476D-9D4B-CF47E47A5F6C";
shapes = (
{
closed = 1;
nodes = (
(100,700,l),
(100,0,l),
(600,0,l),
(600,90,l),
(196,90,l),
(196,316,l),
(535,316,l),
(535,406,l),
(196,406,l),
(196,610,l),
(588,610,l),
(588,700,l)
);
}
);
width = 650;
}
);
metricLeft = H;
metricRight = "=O-20";
unicode = 69;
},
{
color = (153,255,154,255);
glyphname = F;
kernLeft = H1;
kernRight = F2;
layers = (
{
layerId = "EF32B9A4-AE44-476D-9D4B-CF47E47A5F6C";
shapes = (
{
closed = 1;
nodes = (
(100,700,l),
(100,0,l),
(196,0,l),
(196,296,l),
(526,296,l),
(526,386,l),
(196,386,l),
(196,610,l),
(582,610,l),
(582,700,l)
);
}
);
width = 627;
}
);
metricLeft = H;
metricRight = "=E-5";
unicode = 70;
},
{
color = (153,255,154,255);
glyphname = G;
kernLeft = O1;
kernRight = G2;
layers = (
{
layerId = "EF32B9A4-AE44-476D-9D4B-CF47E47A5F6C";
shapes = (
{
closed = 1;
nodes = (
(505,-10,o),
(575,25,o),
(625,80,c),
(625,0,l),
(716,0,l),
(716,374,l),
(386,374,l),
(386,288,l),
(625,288,l),
(625,175,l),
(587,112,o),
(512,78,o),
(421,78,cs),
(257,78,o),
(168,188,o),
(168,343,cs),
(168,512,o),
(274,623,o),
(459,623,cs),
(520,623,o),
(612,611,o),
(670,575,c),
(670,667,l),
(608,698,o),
(531,711,o),
(461,711,cs),
(221,711,o),
(70,560,o),
(70,344,cs),
(70,141,o),
(204,-10,o),
(407,-10,cs)
);
}
);
width = 796;
}
);
metricLeft = O;
metricRight = "=O+10";
unicode = 71;
},
{
color = (153,255,154,255);
glyphname = H;
kernLeft = H1;
kernRight = H2;
layers = (
{
layerId = "EF32B9A4-AE44-476D-9D4B-CF47E47A5F6C";
shapes = (
{
closed = 1;
nodes = (
(100,700,l),
(100,0,l),
(196,0,l),
(196,318,l),
(600,318,l),
(600,0,l),
(696,0,l),
(696,700,l),
(600,700,l),
(600,408,l),
(196,408,l),
(196,700,l)
);
}
);
width = 796;
}
);
metricRight = "=|";
unicode = 72;
},
{
color = (153,255,154,255);
glyphname = I;
kernLeft = H1;
kernRight = H2;
layers = (
{
anchors = (
{
name = top;
pos = (148,700);
}
);
layerId = "EF32B9A4-AE44-476D-9D4B-CF47E47A5F6C";
shapes = (
{
closed = 1;
nodes = (
(100,700,l),
(100,0,l),
(196,0,l),
(196,700,l)
);
}
);
width = 296;
}
);
metricLeft = H;
metricRight = "=|";
unicode = 73;
},
{
color = (153,255,154,255);
glyphname = J;
kernLeft = J1;
layers = (
{
layerId = "EF32B9A4-AE44-476D-9D4B-CF47E47A5F6C";
shapes = (
{
closed = 1;
nodes = (
(368,-10,o),
(460,50,o),
(460,248,cs),
(460,692,l),
(364,692,l),
(364,264,ls),
(364,122,o),
(318,78,o),
(213,78,cs),
(143,78,o),
(91,98,o),
(40,134,c),
(40,38,l),
(92,4,o),
(156,-10,o),
(225,-10,cs)
);
}
);
width = 550;
}
);
metricLeft = "=A+10";
metricRight = "=H-10";
unicode = 74;
},
{
color = (153,255,154,255);
glyphname = K;
kernLeft = H1;
kernRight = K2;
layers = (
{
anchors = (
{
name = top;
pos = (388,706);
}
);
layerId = "EF32B9A4-AE44-476D-9D4B-CF47E47A5F6C";
shapes = (
{
closed = 1;
nodes = (
(100,700,l),
(100,0,l),
(196,0,l),
(196,313,l),
(336,313,l),
(336,315,l),
(563,0,l),
(676,0,l),
(411,363,l),
(645,700,l),
(539,700,l),
(330,403,l),
(196,403,l),
(196,700,l)
);
}
);
width = 686;
}
);
metricLeft = H;
metricRight = "=A-20";
unicode = 75;
},
{
color = (153,255,154,255);
glyphname = L;
kernLeft = H1;
kernRight = L2;
layers = (
{
layerId = "EF32B9A4-AE44-476D-9D4B-CF47E47A5F6C";
shapes = (
{
closed = 1;
nodes = (
(100,700,l),
(100,0,l),
(566,0,l),
(566,90,l),
(196,90,l),
(196,700,l)
);
}
);
width = 601;
}
);
metricLeft = H;
metricRight = "=A+5";
unicode = 76;
},
{
color = (153,255,154,255);
glyphname = M;
kernLeft = H1;
kernRight = H2;
layers = (
{
layerId = "EF32B9A4-AE44-476D-9D4B-CF47E47A5F6C";
shapes = (
{
closed = 1;
nodes = (
(459,241,l),
(668,700,l),
(818,700,l),
(818,0,l),
(722,0,l),
(722,590,l),
(492,94,l),
(426,94,l),
(196,590,l),
(196,0,l),
(100,0,l),
(100,700,l),
(250,700,l)
);
}
);
width = 918;
}
);
metricLeft = H;
metricRight = "=|";
unicode = 77;
},
{
color = (153,255,154,255);
glyphname = N;
kernLeft = H1;
kernRight = H2;
layers = (
{
layerId = "EF32B9A4-AE44-476D-9D4B-CF47E47A5F6C";
shapes = (
{
closed = 1;
nodes = (
(620,700,l),
(620,130,l),
(222,700,l),
(100,700,l),
(100,0,l),
(196,0,l),
(196,572,l),
(596,0,l),
(716,0,l),
(716,700,l)
);
}
);
width = 816;
}
);
metricLeft = H;
metricRight = "=|";
unicode = 78;
},
{
color = (153,255,154,255);
glyphname = O;
kernLeft = O1;
kernRight = O2;
layers = (
{
anchors = (
{
name = top;
pos = (428,700);
}
);
layerId = "EF32B9A4-AE44-476D-9D4B-CF47E47A5F6C";
shapes = (
{
closed = 1;
nodes = (
(70,138,o),
(214,-10,o),
(428,-10,cs),
(642,-10,o),
(786,138,o),
(786,350,cs),
(786,562,o),
(642,710,o),
(428,710,cs),
(214,710,o),
(70,562,o),
(70,350,cs)
);
},
{
closed = 1;
nodes = (
(168,510,o),
(274,622,o),
(428,622,cs),
(582,622,o),
(688,510,o),
(688,350,cs),
(688,190,o),
(582,78,o),
(428,78,cs),
(274,78,o),
(168,190,o),
(168,350,cs)
);
}
);
width = 856;
}
);
metricRight = "=|";
unicode = 79;
},
{
color = (153,255,154,255);
glyphname = P;
kernLeft = H1;
kernRight = P2;
layers = (
{
layerId = "EF32B9A4-AE44-476D-9D4B-CF47E47A5F6C";
shapes = (
{
closed = 1;
nodes = (
(100,700,l),
(100,0,l),
(196,0,l),
(196,266,l),
(401,266,ls),
(526,266,o),
(616,354,o),
(616,481,cs),
(616,608,o),
(526,700,o),
(401,700,cs)
);
},
{
closed = 1;
nodes = (
(196,356,l),
(196,610,l),
(384,610,ls),
(470,610,o),
(520,560,o),
(520,480,cs),
(520,400,o),
(470,356,o),
(384,356,cs)
);
}
);
width = 671;
}
);
metricLeft = H;
metricRight = "=O-15";
unicode = 80;
},
{
color = (153,255,154,255);
glyphname = Q;
kernLeft = O1;
kernRight = Q2;
layers = (
{
guides = (
{
angle = 90;
pos = (786,0);
}
);
layerId = "EF32B9A4-AE44-476D-9D4B-CF47E47A5F6C";
shapes = (
{
closed = 1;
nodes = (
(70,138,o),
(214,-10,o),
(428,-10,cs),
(505,-10,o),
(573,10,o),
(628,44,c),
(732,-80,l),
(799,-23,l),
(696,100,l),
(753,163,o),
(786,249,o),
(786,350,cs),
(786,562,o),
(642,710,o),
(428,710,cs),
(214,710,o),
(70,562,o),
(70,350,cs)
);
},
{
closed = 1;
nodes = (
(168,510,o),
(274,622,o),
(428,622,cs),
(582,622,o),
(688,510,o),
(688,350,cs),
(688,281,o),
(668,220,o),
(633,174,c),
(529,298,l),
(462,242,l),
(568,116,l),
(529,92,o),
(481,78,o),
(428,78,cs),
(274,78,o),
(168,190,o),
(168,350,cs)
);
}
);
width = 854;
}
);
metricLeft = O;
metricRight = "=O-15";
unicode = 81;
},
{
color = (153,255,154,255);
glyphname = R;
kernLeft = H1;
kernRight = R2;
layers = (
{
layerId = "EF32B9A4-AE44-476D-9D4B-CF47E47A5F6C";
shapes = (
{
closed = 1;
nodes = (
(100,700,l),
(401,700,ls),
(526,700,o),
(616,608,o),
(616,481,cs),
(616,386,o),
(565,313,o),
(487,282,c),
(676,0,l),
(566,0,l),
(389,266,l),
(196,266,l),
(196,0,l),
(100,0,l)
);
},
{
closed = 1;
nodes = (
(384,356,ls),
(470,356,o),
(520,400,o),
(520,480,cs),
(520,560,o),
(470,610,o),
(384,610,cs),
(196,610,l),
(196,356,l)
);
}
);
width = 711;
}
);
metricLeft = H;
metricRight = "=A+5";
unicode = 82;
},
{
color = (153,255,154,255);
glyphname = S;
kernLeft = S1;
kernRight = S2;
layers = (
{
layerId = "EF32B9A4-AE44-476D-9D4B-CF47E47A5F6C";
shapes = (
{
closed = 1;
nodes = (
(55,63,l),
(119,23,o),
(207,-10,o),
(321,-10,cs),
(475,-10,o),
(601,51,o),
(601,192,cs),
(601,325,o),
(490,366,o),
(367,399,cs),
(263,427,o),
(163,450,o),
(163,527,cs),
(163,588,o),
(224,622,o),
(332,622,cs),
(416,622,o),
(500,601,o),
(563,566,c),
(563,658,l),
(511,687,o),
(430,710,o),
(330,710,cs),
(167,710,o),
(65,649,o),
(65,524,cs),
(65,386,o),
(191,350,o),
(324,316,cs),
(429,289,o),
(503,267,o),
(503,191,cs),
(503,111,o),
(423,78,o),
(326,78,cs),
(212,78,o),
(112,123,o),
(55,160,c)
);
}
);
width = 661;
}
);
metricLeft = "=O-15";
metricRight = "=O-10";
unicode = 83;
},
{
color = (153,255,154,255);
glyphname = T;
kernLeft = T1;
kernRight = T2;
layers = (
{
layerId = "EF32B9A4-AE44-476D-9D4B-CF47E47A5F6C";
shapes = (
{
closed = 1;
nodes = (
(40,610,l),
(288,610,l),
(288,0,l),
(384,0,l),
(384,610,l),
(634,610,l),
(634,700,l),
(40,700,l)
);
}
);
width = 674;
}
);
metricLeft = W;
metricRight = "=|";
unicode = 84;
},
{
color = (153,255,154,255);
glyphname = U;
kernLeft = U1;
kernRight = U2;
layers = (
{
layerId = "EF32B9A4-AE44-476D-9D4B-CF47E47A5F6C";
shapes = (
{
closed = 1;
nodes = (
(90,700,l),
(90,280,ls),
(90,106,o),
(210,-10,o),
(390,-10,cs),
(570,-10,o),
(690,106,o),
(690,280,cs),
(690,700,l),
(594,700,l),
(594,286,ls),
(594,161,o),
(512,78,o),
(390,78,cs),
(268,78,o),
(186,161,o),
(186,286,cs),
(186,700,l)
);
}
);
width = 780;
}
);
metricLeft = "=H-10";
metricRight = "=|";
unicode = 85;
},
{
color = (153,255,154,255);
glyphname = V;
kernLeft = V1;
kernRight = V2;
layers = (
{
layerId = "EF32B9A4-AE44-476D-9D4B-CF47E47A5F6C";
shapes = (
{
closed = 1;
nodes = (
(141,700,l),
(370,102,l),
(598,700,l),
(705,700,l),
(430,0,l),
(310,0,l),
(35,700,l)
);
}
);
width = 740;
}
);
metricLeft = "=A+5";
metricRight = "=|";
unicode = 86;
},
{
color = (153,255,154,255);
glyphname = W;
kernLeft = W1;
kernRight = W2;
layers = (
{
layerId = "EF32B9A4-AE44-476D-9D4B-CF47E47A5F6C";
shapes = (
{
closed = 1;
nodes = (
(138,700,l),
(292,159,l),
(444,700,l),
(552,700,l),
(706,159,l),
(858,700,l),
(952,700,l),
(758,0,l),
(656,0,l),
(497,552,l),
(344,0,l),
(242,0,l),
(40,700,l)
);
}
);
width = 992;
}
);
metricLeft = "=A+10";
metricRight = "=|";
unicode = 87;
},
{
color = (153,255,154,255);
glyphname = X;
kernLeft = X1;
kernRight = X2;
layers = (
{
layerId = "EF32B9A4-AE44-476D-9D4B-CF47E47A5F6C";
shapes = (
{
closed = 1;
nodes = (
(25,0,l),
(143,0,l),
(332,282,l),
(527,0,l),
(638,0,l),
(388,362,l),
(615,700,l),
(510,700,l),
(332,443,l),
(155,700,l),
(51,700,l),
(276,360,l)
);
}
);
width = 663;
}
);
metricLeft = "=A-5";
metricRight = "=|";
unicode = 88;
},
{
color = (153,255,154,255);
glyphname = Y;
kernLeft = Y1;
kernRight = Y2;
layers = (
{
layerId = "EF32B9A4-AE44-476D-9D4B-CF47E47A5F6C";
shapes = (
{
closed = 1;
nodes = (
(262,0,l),
(358,0,l),
(358,324,l),
(596,700,l),
(493,700,l),
(310,412,l),
(129,700,l),
(25,700,l),
(262,318,l)
);
}
);
width = 621;
}
);
metricLeft = X;
metricRight = "=|";
unicode = 89;
},
{
color = (153,255,154,255);
glyphname = Z;
kernLeft = Z1;
kernRight = Z2;
layers = (
{
layerId = "EF32B9A4-AE44-476D-9D4B-CF47E47A5F6C";
shapes = (
{
closed = 1;
nodes = (
(68,700,l),
(616,700,l),
(616,652,l),
(190,90,l),
(628,90,l),
(628,0,l),
(50,0,l),
(50,56,l),
(471,610,l),
(68,610,l)
);
}
);
width = 678;
}
);
metricLeft = "=O-20";
metricRight = "=|";
unicode = 90;
},
{
color = (153,255,154,255);
glyphname = a;
kernLeft = a1;
kernRight = a2;
layers = (
{
anchors = (
{
name = top;
pos = (291,520);
}
);
guides = (
{
angle = 90;
pos = (281,0);
showMeasurement = 1;
},
{
pos = (0,284);
}
);
layerId = "EF32B9A4-AE44-476D-9D4B-CF47E47A5F6C";
shapes = (
{
closed = 1;
nodes = (
(201,530,o),
(143,514,o),
(95,488,c),
(95,404,l),
(141,429,o),
(200,446,o),
(266,446,cs),
(342,446,o),
(395,424,o),
(405,322,c),
(281,322,ls),
(117,322,o),
(45,253,o),
(45,153,cs),
(45,57,o),
(112,-10,o),
(244,-10,cs),
(322,-10,o),
(376,14,o),
(411,62,c),
(413,62,l),
(423,0,l),
(499,0,l),
(499,317,ls),
(499,449,o),
(417,530,o),
(267,530,cs)
);
},
{
closed = 1;
nodes = (
(407,242,l),
(407,211,ls),
(407,101,o),
(310,70,o),
(247,70,cs),
(174,70,o),
(138,110,o),
(138,154,cs),
(138,200,o),
(179,242,o),
(291,242,cs)
);
}
);
width = 574;
}
);
metricLeft = "=o-5";
metricRight = n;
unicode = 97;
},
{
color = (153,255,154,255);
glyphname = b;
kernLeft = h1;
kernRight = o2;
layers = (
{
guides = (
{
angle = 90;
pos = (217,0);
}
);
layerId = "EF32B9A4-AE44-476D-9D4B-CF47E47A5F6C";
shapes = (
{
closed = 1;
nodes = (
(177,700,l),
(85,700,l),
(85,0,l),
(161,0,l),
(171,62,l),
(173,62,l),
(217,17,o),
(279,-10,o),
(353,-10,cs),
(498,-10,o),
(597,100,o),
(597,262,cs),
(597,424,o),
(498,530,o),
(353,530,cs),
(281,530,o),
(221,504,o),
(177,462,c)
);
},
{
closed = 1;
nodes = (
(504,146,o),
(436,72,o),
(334,72,cs),
(226,72,o),
(164,152,o),
(164,260,cs),
(164,368,o),
(226,448,o),
(334,448,cs),
(436,448,o),
(504,378,o),
(504,262,cs)
);
}
);
width = 647;
}
);
metricLeft = n;
metricRight = o;
unicode = 98;
},
{
color = (153,255,154,255);
glyphname = c;
kernLeft = o1;
kernRight = c2;
layers = (
{
layerId = "EF32B9A4-AE44-476D-9D4B-CF47E47A5F6C";
shapes = (
{
closed = 1;
nodes = (
(385,-10,o),
(435,-1,o),
(478,15,c),
(478,96,l),
(440,78,o),
(391,72,o),
(354,72,cs),
(215,72,o),
(143,158,o),
(143,260,cs),
(143,362,o),
(215,448,o),
(348,448,cs),
(383,448,o),
(432,442,o),
(472,424,c),
(472,504,l),
(429,521,o),
(380,530,o),
(330,530,cs),
(156,530,o),
(50,415,o),
(50,260,cs),
(50,105,o),
(156,-10,o),
(336,-10,cs)
);
}
);
width = 533;
}
);
metricLeft = o;
metricRight = "=o+5";
unicode = 99;
},
{
color = (153,255,154,255);
glyphname = d;
kernLeft = o1;
kernRight = d2;
layers = (
{
layerId = "EF32B9A4-AE44-476D-9D4B-CF47E47A5F6C";
shapes = (
{
closed = 1;
nodes = (
(50,100,o),
(149,-10,o),
(294,-10,cs),
(368,-10,o),
(430,17,o),
(474,62,c),
(476,62,l),
(486,0,l),
(562,0,l),
(562,700,l),
(470,700,l),
(470,462,l),
(426,504,o),
(366,530,o),
(294,530,cs),
(149,530,o),
(50,424,o),
(50,262,cs)
);
},
{
closed = 1;
nodes = (
(143,378,o),
(211,448,o),
(313,448,cs),
(421,448,o),
(483,368,o),
(483,260,cs),
(483,152,o),
(421,72,o),
(313,72,cs),
(211,72,o),
(143,146,o),
(143,262,cs)
);
}
);
width = 647;
}
);
metricLeft = o;
metricRight = encyr;
unicode = 100;
},
{
color = (153,255,154,255);
glyphname = e;
kernLeft = o1;
kernRight = e2;
layers = (
{
anchors = (
{
name = top;
pos = (300,521);
}
);
layerId = "EF32B9A4-AE44-476D-9D4B-CF47E47A5F6C";
shapes = (
{
closed = 1;
nodes = (
(364,-10,o),
(447,-4,o),
(513,30,c),
(513,111,l),
(467,87,o),
(401,72,o),
(339,72,cs),
(220,72,o),
(154,125,o),
(144,231,c),
(537,231,l),
(537,270,l),
(536,428,o),
(445,530,o),
(299,530,cs),
(150,530,o),
(50,425,o),
(50,260,cs),
(50,94,o),
(156,-10,o),
(324,-10,cs)
);
},
{
closed = 1;
nodes = (
(148,311,l),
(164,396,o),
(221,448,o),
(303,448,cs),
(377,448,o),
(428,395,o),
(441,311,c)
);
}
);
width = 587;
}
);
metricLeft = o;
metricRight = "=|";
unicode = 101;
},
{
color = (153,255,154,255);
glyphname = f;
kernLeft = f1;
kernRight = f2;
layers = (
{
layerId = "EF32B9A4-AE44-476D-9D4B-CF47E47A5F6C";
shapes = (
{
closed = 1;
nodes = (
(213,0,l),
(213,434,l),
(341,434,l),
(341,520,l),
(213,520,l),
(213,546,ls),
(213,595,o),
(237,628,o),
(288,628,cs),
(307,628,o),
(324,623,o),
(339,615,c),
(339,694,l),
(320,704,o),
(298,710,o),
(270,710,cs),
(169,710,o),
(121,634,o),
(121,558,cs),
(121,520,l),
(30,520,l),
(30,434,l),
(121,434,l),
(121,0,l)
);
}
);
width = 371;
}
);
unicode = 102;
},
{
color = (153,255,154,255);
glyphname = g;
kernLeft = o1;
kernRight = g2;
layers = (
{
background = {
shapes = (
{
closed = 1;
nodes = (
(445,115,l),
(465,115,l),
(465,365,l),
(445,365,l),
(445,458,l),
(451,458,l),
(461,520,l),
(537,520,l),
(537,53,ls),
(537,-107,o),
(457,-190,o),
(285,-190,cs),
(208,-190,o),
(134,-175,o),
(77,-147,c),
(77,-54,l),
(126,-81,o),
(196,-108,o),
(274,-108,cs),
(400,-108,o),
(445,-60,o),
(445,61,cs)
);
},
{
closed = 1;
nodes = (
(118,146,o),
(186,72,o),
(288,72,cs),
(396,72,o),
(458,152,o),
(458,260,cs),
(458,368,o),
(396,448,o),
(288,448,cs),
(186,448,o),
(118,378,o),
(118,262,cs)
);
},
{
closed = 1;
nodes = (
(25,424,o),
(124,530,o),
(269,530,cs),
(425,530,o),
(525,409,o),
(525,260,cs),
(525,111,o),
(425,-10,o),
(269,-10,cs),
(124,-10,o),
(25,100,o),
(25,262,cs)
);
}
);
};
guides = (
{
angle = 90;
pos = (-22,0);
},
{
angle = 90;
pos = (514,0);
},
{
angle = 90;
pos = (50,0);
}
);
layerId = "EF32B9A4-AE44-476D-9D4B-CF47E47A5F6C";
shapes = (
{
closed = 1;
nodes = (
(458,61,ls),
(458,-60,o),
(412,-108,o),
(282,-108,cs),
(201,-108,o),
(129,-81,o),
(80,-54,c),
(80,-147,l),
(137,-175,o),
(213,-190,o),
(292,-190,cs),
(468,-190,o),
(550,-107,o),
(550,53,cs),
(550,520,l),
(474,520,l),
(464,458,l),
(461,458,l),
(418,503,o),
(357,530,o),
(284,530,cs),
(146,530,o),
(50,431,o),
(50,279,cs),
(50,127,o),
(146,24,o),
(286,24,cs),
(356,24,o),
(415,50,o),
(458,93,c)
);
},
{
closed = 1;
nodes = (
(142,385,o),
(207,448,o),
(301,448,cs),
(402,448,o),
(463,375,o),
(463,278,cs),
(463,179,o),
(402,106,o),
(302,106,cs),
(207,106,o),
(142,173,o),
(142,279,cs)
);
}
);
width = 625;
}
);
metricLeft = o;
metricRight = n;
unicode = 103;
},
{
color = (153,255,154,255);
glyphname = h;
kernLeft = h1;
kernRight = n2;
layers = (
{
layerId = "EF32B9A4-AE44-476D-9D4B-CF47E47A5F6C";
shapes = (
{
closed = 1;
nodes = (
(85,0,l),
(179,0,l),
(179,288,ls),
(179,393,o),
(240,444,o),
(336,444,cs),
(431,444,o),
(479,393,o),
(479,288,cs),
(479,0,l),
(571,0,l),
(571,308,ls),
(571,446,o),
(483,530,o),
(348,530,cs),
(278,530,o),
(219,507,o),
(179,462,c),
(179,700,l),
(85,700,l)
);
}
);
width = 646;
}
);
metricLeft = n;
metricRight = n;
unicode = 104;
},
{
color = (153,255,154,255);
glyphname = k;
kernLeft = h1;
kernRight = k2;
layers = (
{
guides = (
{
angle = 90;
pos = (580,0);
}
);
layerId = "EF32B9A4-AE44-476D-9D4B-CF47E47A5F6C";
shapes = (
{
closed = 1;
nodes = (
(85,0,l),
(179,0,l),
(179,230,l),
(273,230,l),
(457,0,l),
(566,0,l),
(343,278,l),
(525,520,l),
(422,520,l),
(266,316,l),
(179,316,l),
(179,700,l),
(85,700,l)
);
}
);
width = 591;
}
);
metricLeft = n;
metricRight = v;
unicode = 107;
},
{
color = (153,255,154,255);
glyphname = l;
kernLeft = l1;
kernRight = l2;
layers = (
{
layerId = "EF32B9A4-AE44-476D-9D4B-CF47E47A5F6C";
shapes = (
{
closed = 1;
nodes = (
(85,700,l),
(85,166,ls),
(85,45,o),
(145,-6,o),
(232,-6,cs),
(256,-6,o),
(278,-2,o),
(299,5,c),
(299,84,l),
(286,79,o),
(271,76,o),
(256,76,cs),
(210,76,o),
(177,102,o),
(177,178,cs),
(177,700,l)
);
}
);
width = 329;
}
);
metricRight = x;
unicode = 108;
},
{
color = (153,255,154,255);
glyphname = m;
kernLeft = n1;
kernRight = n2;
layers = (
{
layerId = "EF32B9A4-AE44-476D-9D4B-CF47E47A5F6C";
shapes = (
{
closed = 1;
nodes = (
(85,520,l),
(161,520,l),
(170,467,l),
(206,510,o),
(257,530,o),
(319,530,cs),
(397,530,o),
(456,499,o),
(488,439,c),
(522,502,o),
(583,530,o),
(657,530,cs),
(776,530,o),
(853,456,o),
(853,318,cs),
(853,0,l),
(761,0,l),
(761,298,ls),
(761,403,o),
(728,444,o),
(650,444,cs),
(571,444,o),
(515,403,o),
(515,298,cs),
(515,0,l),
(423,0,l),
(423,298,ls),
(423,403,o),
(390,444,o),
(312,444,cs),
(233,444,o),
(177,403,o),
(177,298,cs),
(177,0,l),
(85,0,l)
);
}
);
width = 928;
}
);
metricLeft = n;
metricRight = n;
unicode = 109;
},
{
color = (153,255,154,255);
glyphname = n;
kernLeft = n1;
kernRight = n2;
layers = (
{
layerId = "EF32B9A4-AE44-476D-9D4B-CF47E47A5F6C";
shapes = (
{
closed = 1;
nodes = (
(477,288,ls),
(477,393,o),
(435,444,o),
(340,444,cs),
(244,444,o),
(177,393,o),
(177,288,cs),
(177,0,l),
(85,0,l),
(85,520,l),
(161,520,l),
(171,458,l),
(173,458,l),
(213,506,o),
(274,530,o),
(346,530,cs),
(481,530,o),
(569,446,o),
(569,308,cs),
(569,0,l),
(477,0,l)
);
}
);
width = 644;
}
);
metricLeft = encyr;
metricRight = "=н-10";
unicode = 110;
},
{
color = (153,255,154,255);
glyphname = o;
kernLeft = o1;
kernRight = o2;
layers = (
{
anchors = (
{
name = top;
pos = (316,520);
}
);
layerId = "EF32B9A4-AE44-476D-9D4B-CF47E47A5F6C";
shapes = (
{
closed = 1;
nodes = (
(50,100,o),
(158,-10,o),
(316,-10,cs),
(474,-10,o),
(582,100,o),
(582,260,cs),
(582,420,o),
(474,530,o),
(316,530,cs),
(158,530,o),
(50,420,o),
(50,260,cs)
);
},
{
closed = 1;
nodes = (
(143,372,o),
(212,448,o),
(316,448,cs),
(420,448,o),
(489,372,o),
(489,260,cs),
(489,148,o),
(420,72,o),
(316,72,cs),
(212,72,o),
(143,148,o),
(143,260,cs)
);
}
);
width = 632;
}
);
metricLeft = "=O-20";
metricRight = "=|";
unicode = 111;
},
{
color = (153,255,154,255);
glyphname = p;
kernLeft = p1;
kernRight = o2;
layers = (
{
layerId = "EF32B9A4-AE44-476D-9D4B-CF47E47A5F6C";
shapes = (
{
closed = 1;
nodes = (
(177,-180,l),
(85,-180,l),
(85,520,l),
(161,520,l),
(171,458,l),
(173,458,l),
(217,503,o),
(279,530,o),
(353,530,cs),
(498,530,o),
(597,424,o),
(597,262,cs),
(597,100,o),
(498,-10,o),
(353,-10,cs),
(281,-10,o),
(221,16,o),
(177,58,c)
);
},
{
closed = 1;
nodes = (
(504,378,o),
(436,448,o),
(334,448,cs),
(226,448,o),
(164,368,o),
(164,260,cs),
(164,152,o),
(226,72,o),
(334,72,cs),
(436,72,o),
(504,146,o),
(504,262,cs)
);
}
);
width = 647;
}
);
metricLeft = n;
metricRight = o;
unicode = 112;
},
{
color = (153,255,154,255);
glyphname = q;
kernLeft = o1;
kernRight = q2;
layers = (
{
layerId = "EF32B9A4-AE44-476D-9D4B-CF47E47A5F6C";
shapes = (
{
closed = 1;
nodes = (
(50,424,o),
(149,530,o),
(294,530,cs),
(368,530,o),
(430,503,o),
(474,458,c),
(476,458,l),
(486,520,l),
(562,520,l),
(562,-180,l),
(470,-180,l),
(470,58,l),
(426,16,o),
(366,-10,o),
(294,-10,cs),
(149,-10,o),
(50,100,o),
(50,262,cs)
);
},
{
closed = 1;
nodes = (
(143,146,o),
(211,72,o),
(313,72,cs),
(421,72,o),
(483,152,o),
(483,260,cs),
(483,368,o),
(421,448,o),
(313,448,cs),
(211,448,o),
(143,378,o),
(143,262,cs)
);
}
);
width = 647;
}
);
metricLeft = o;
metricRight = encyr;
unicode = 113;
},
{
color = (153,255,154,255);
glyphname = r;
kernLeft = n1;
kernRight = r2;
layers = (
{
background = {
shapes = (
{
closed = 1;
nodes = (
(362,527,l),
(264,545,o),
(167,483,o),
(167,432,c),
(177,447,l),
(166,520,l),
(90,520,l),
(90,0,l),
(182,0,l),
(182,304,ls),
(182,379,o),
(241,459,o),
(362,442,c)
);
}
);
};
guides = (
{
pos = (0,530);
}
);
layerId = "EF32B9A4-AE44-476D-9D4B-CF47E47A5F6C";
shapes = (
{
closed = 1;
nodes = (
(85,0,l),
(177,0,l),
(177,288,ls),
(177,393,o),
(238,444,o),
(328,444,cs),
(341,444,o),
(354,443,o),
(360,441,c),
(360,526,l),
(354,528,o),
(337,530,o),
(320,530,cs),
(262,530,o),
(210,506,o),
(174,458,c),
(171,458,l),
(161,520,l),
(85,520,l)
);
}
);
width = 385;
}
);
metricLeft = n;
metricRight = v;
unicode = 114;
},
{
color = (153,255,154,255);
glyphname = s;
kernLeft = s1;
kernRight = s2;
layers = (
{
layerId = "EF32B9A4-AE44-476D-9D4B-CF47E47A5F6C";
shapes = (
{
closed = 1;
nodes = (
(50,45,l),
(100,12,o),
(171,-10,o),
(257,-10,cs),
(383,-10,o),
(480,38,o),
(480,146,cs),
(480,250,o),
(389,280,o),
(299,309,cs),
(221,334,o),
(153,347,o),
(153,393,cs),
(153,430,o),
(195,450,o),
(275,450,cs),
(345,450,o),
(406,435,o),
(450,411,c),
(450,494,l),
(411,514,o),
(349,530,o),
(269,530,cs),
(116,530,o),
(60,471,o),
(60,389,cs),
(60,283,o),
(152,264,o),
(243,234,cs),
(327,207,o),
(387,196,o),
(387,145,cs),
(387,94,o),
(327,70,o),
(255,70,cs),
(170,70,o),
(93,104,o),
(50,131,c)
);
}
);
width = 530;
}
);
metricLeft = o;
metricRight = o;
unicode = 115;
},
{
color = (153,255,154,255);
glyphname = t;
kernLeft = t1;
kernRight = t2;
layers = (
{
guides = (
{
angle = 90;
pos = (366,0);
}
);
layerId = "EF32B9A4-AE44-476D-9D4B-CF47E47A5F6C";
shapes = (
{
closed = 1;
nodes = (
(122,636,l),
(122,520,l),
(30,520,l),
(30,434,l),
(122,434,l),
(122,183,ls),
(122,51,o),
(188,-6,o),
(285,-6,cs),
(314,-6,o),
(341,-1,o),
(366,8,c),
(366,87,l),
(348,80,o),
(328,76,o),
(308,76,cs),
(251,76,o),
(214,107,o),
(214,195,cs),
(214,434,l),
(371,434,l),
(371,520,l),
(214,520,l),
(214,636,l)
);
}
);
width = 421;
}
);
metricLeft = x;
metricRight = o;
unicode = 116;
},
{
color = (153,255,154,255);
glyphname = u;
kernLeft = u1;
kernRight = u2;
layers = (
{
layerId = "EF32B9A4-AE44-476D-9D4B-CF47E47A5F6C";
shapes = (
{
closed = 1;
nodes = (
(551,10,l),
(475,10,l),
(465,73,l),
(463,73,l),
(423,24,o),
(362,0,o),
(290,0,cs),
(155,0,o),
(75,84,o),
(75,222,cs),
(75,530,l),
(167,530,l),
(167,242,ls),
(167,137,o),
(200,86,o),
(296,86,cs),
(391,86,o),
(459,137,o),
(459,242,cs),
(459,530,l),
(551,530,l)
);
}
);
width = 636;
}
);
metricLeft = "=н-10";
metricRight = encyr;
unicode = 117;
},
{
color = (153,255,154,255);
glyphname = v;
kernLeft = v1;
kernRight = v2;
layers = (
{
layerId = "EF32B9A4-AE44-476D-9D4B-CF47E47A5F6C";
shapes = (
{
closed = 1;
nodes = (
(119,520,l),
(277,104,l),
(435,520,l),
(530,520,l),
(327,0,l),
(228,0,l),
(25,520,l)
);
}
);
width = 555;
}
);
metricLeft = "=o-25";
metricRight = "=|";
unicode = 118;
},
{
color = (153,255,154,255);
glyphname = w;
kernLeft = w1;
kernRight = w2;
layers = (
{
layerId = "EF32B9A4-AE44-476D-9D4B-CF47E47A5F6C";
shapes = (
{
closed = 1;
nodes = (
(123,520,l),
(235,108,l),
(347,520,l),
(439,520,l),
(551,108,l),
(663,520,l),
(751,520,l),
(601,0,l),
(503,0,l),
(393,384,l),
(283,0,l),
(185,0,l),
(35,520,l)
);
}
);
width = 786;
}
);
metricLeft = "=v+10";
metricRight = "=|";
unicode = 119;
},
{
color = (153,255,154,255);
glyphname = x;
kernLeft = x1;
kernRight = x2;
layers = (
{
layerId = "EF32B9A4-AE44-476D-9D4B-CF47E47A5F6C";
shapes = (
{
closed = 1;
nodes = (
(30,0,l),
(144,0,l),
(287,201,l),
(439,0,l),
(543,0,l),
(340,275,l),
(518,520,l),
(414,520,l),
(287,351,l),
(163,520,l),
(60,520,l),
(233,273,l)
);
}
);
width = 573;
}
);
metricLeft = "=o-20";
metricRight = "=|";
unicode = 120;
},
{
color = (153,255,154,255);
glyphname = y;
kernLeft = y1;
kernRight = y2;
layers = (
{
anchors = (
{
name = top;
pos = (295,520);
}
);
guides = (
{
angle = 67.026;
pos = (295,119);
}
);
layerId = "EF32B9A4-AE44-476D-9D4B-CF47E47A5F6C";
shapes = (
{
closed = 1;
nodes = (
(53,-172,l),
(77,-185,o),
(105,-190,o),
(133,-190,cs),
(223,-190,o),
(278,-139,o),
(318,-48,cs),
(565,520,l),
(465,520,l),
(296,123,l),
(126,520,l),
(25,520,l),
(245,19,l),
(212,-65,o),
(185,-108,o),
(125,-108,cs),
(101,-108,o),
(77,-101,o),
(53,-90,c)
);
}
);
width = 590;
}
);
metricLeft = v;
metricRight = "=|";
unicode = 121;
},
{
color = (153,255,154,255);
glyphname = z;
kernLeft = z1;
kernRight = z2;
layers = (
{
layerId = "EF32B9A4-AE44-476D-9D4B-CF47E47A5F6C";
shapes = (
{
closed = 1;
nodes = (
(56,520,l),
(56,434,l),
(352,434,l),
(40,62,l),
(40,0,l),
(496,0,l),
(496,86,l),
(170,86,l),
(484,454,l),
(484,520,l)
);
}
);
width = 536;
}
);
metricLeft = "=o-10";
metricRight = "=|";
unicode = 122;
},
{
color = (153,255,154,255);
glyphname = Becyr;
kernLeft = H1;
kernRight = Becyr2;
layers = (
{
guides = (
{
pos = (0,350);
}
);
layerId = "EF32B9A4-AE44-476D-9D4B-CF47E47A5F6C";
shapes = (
{
closed = 1;
nodes = (
(100,700,l),
(100,0,l),
(397,0,ls),
(537,0,o),
(630,90,o),
(630,220,cs),
(630,350,o),
(537,440,o),
(397,440,cs),
(196,440,l),
(196,610,l),
(588,610,l),
(588,700,l)
);
},
{
closed = 1;
nodes = (
(196,90,l),
(196,350,l),
(380,350,ls),
(476,350,o),
(534,300,o),
(534,220,cs),
(534,140,o),
(476,90,o),
(380,90,cs)
);
}
);
width = 690;
}
);
metricLeft = B;
metricRight = B;
unicode = 1041;
},
{
color = (153,255,154,255);
glyphname = Gecyr;
kernLeft = H1;
kernRight = Gecyr2;
layers = (
{
anchors = (
{
name = top;
pos = (355,700);
}
);
layerId = "EF32B9A4-AE44-476D-9D4B-CF47E47A5F6C";
shapes = (
{
closed = 1;
nodes = (
(100,700,l),
(100,0,l),
(196,0,l),
(196,610,l),
(564,610,l),
(564,700,l)
);
}
);
width = 604;
}
);
metricLeft = H;
metricRight = "=A+10";
unicode = 1043;
},
{
color = (153,255,154,255);
glyphname = Decyr;
kernLeft = Decyr1;
kernRight = Decyr2;
layers = (
{
layerId = "EF32B9A4-AE44-476D-9D4B-CF47E47A5F6C";
shapes = (
{
closed = 1;
nodes = (
(768,-150,l),
(768,90,l),
(684,90,l),
(684,700,l),
(207,700,l),
(202,616,ls),
(182,273,o),
(144,179,o),
(89,90,c),
(25,90,l),
(25,-150,l),
(115,-150,l),
(115,0,l),
(678,0,l),
(678,-150,l)
);
},
{
closed = 1;
nodes = (
(197,90,l),
(254,200,o),
(285,357,o),
(298,610,c),
(588,610,l),
(588,90,l)
);
}
);
width = 818;
}
);
metricLeft = "=A-5";
metricRight = "=O-20";
unicode = 1044;
},
{
color = (153,255,154,255);
glyphname = Zhecyr;
kernLeft = Zhecyr1;
kernRight = K2;
layers = (
{
anchors = (
{
name = top;
pos = (483,700);
}
);
layerId = "EF32B9A4-AE44-476D-9D4B-CF47E47A5F6C";
shapes = (
{
closed = 1;
nodes = (
(122,0,l),
(15,0,l),
(259,363,l),
(51,700,l),
(152,700,l),
(336,403,l),
(436,403,l),
(436,700,l),
(532,700,l),
(532,403,l),
(632,403,l),
(815,700,l),
(916,700,l),
(708,363,l),
(951,0,l),
(844,0,l),
(633,313,l),
(532,313,l),
(532,0,l),
(436,0,l),
(436,313,l),
(336,313,l)
);
}
);
width = 966;
}
);
metricLeft = "=|";
unicode = 1046;
},
{
color = (153,255,154,255);
glyphname = Zecyr;
kernLeft = Zecyr1;
kernRight = Zecyr2;
layers = (
{
anchors = (
{
name = top;
pos = (310,700);
}
);
background = {
shapes = (
{
closed = 1;
nodes = (
(76,36,l),
(140,3,o),
(216,-10,o),
(291,-10,cs),
(477,-10,o),
(586,71,o),
(586,200,cs),
(586,286,o),
(538,348,o),
(438,374,c),
(440,363,l),
(522,387,o),
(560,441,o),
(560,516,cs),
(560,637,o),
(458,710,o),
(291,710,cs),
(221,710,o),
(155,697,o),
(100,671,c),
(100,578,l),
(154,608,o),
(231,622,o),
(294,622,cs),
(402,622,o),
(464,581,o),
(464,506,cs),
(464,442,o),
(418,406,o),
(317,406,cs),
(215,406,l),
(215,318,l),
(343,318,ls),
(438,318,o),
(490,287,o),
(490,211,cs),
(490,127,o),
(427,78,o),
(307,78,cs),
(248,78,o),
(146,90,o),
(76,129,c)
);
}
);
};
guides = (
{
pos = (0,316);
},
{
pos = (0,406);
}
);
layerId = "EF32B9A4-AE44-476D-9D4B-CF47E47A5F6C";
shapes = (
{
closed = 1;
nodes = (
(474,447,o),
(423,406,o),
(342,406,cs),
(209,406,l),
(209,318,l),
(346,318,ls),
(438,318,o),
(500,270,o),
(500,199,cs),
(500,124,o),
(430,78,o),
(318,78,cs),
(209,78,o),
(107,121,o),
(50,154,c),
(50,60,l),
(114,22,o),
(202,-10,o),
(312,-10,cs),
(484,-10,o),
(596,69,o),
(596,192,cs),
(596,275,o),
(544,339,o),
(460,367,c),
(534,399,o),
(570,457,o),
(570,525,cs),
(570,636,o),
(472,710,o),
(300,710,cs),
(222,710,o),
(148,695,o),
(76,657,c),
(76,563,l),
(145,604,o),
(222,622,o),
(297,622,cs),
(414,622,o),
(474,579,o),
(474,510,cs)
);
}
);
width = 656;
}
);
metricLeft = "=J+10";
metricRight = B;
unicode = 1047;
},
{
color = (153,255,154,255);
glyphname = Icyr;
kernLeft = H1;
kernRight = H2;
layers = (
{
anchors = (
{
name = top;
pos = (400,700);
}
);
layerId = "EF32B9A4-AE44-476D-9D4B-CF47E47A5F6C";
shapes = (
{
closed = 1;
nodes = (
(100,700,l),
(196,700,l),
(196,124,l),
(590,700,l),
(708,700,l),
(708,0,l),
(612,0,l),
(612,574,l),
(220,0,l),
(100,0,l)
);
}
);
width = 808;
}
);
metricLeft = H;
metricRight = "=|";
unicode = 1048;
},
{
color = (153,255,154,255);
glyphname = Elcyr;
kernLeft = Elcyr1;
kernRight = H2;
layers = (
{
layerId = "EF32B9A4-AE44-476D-9D4B-CF47E47A5F6C";
shapes = (
{
closed = 1;
nodes = (
(15,2,l),
(26,-3,o),
(42,-6,o),
(65,-6,cs),
(240,-6,o),
(261,160,o),
(279,466,cs),
(288,610,l),
(594,610,l),
(594,0,l),
(690,0,l),
(690,700,l),
(196,700,l),
(182,476,ls),
(166,224,o),
(160,84,o),
(49,84,cs),
(36,84,o),
(26,86,o),
(15,89,c)
);
}
);
width = 790;
}
);
metricLeft = "=H-85";
metricRight = H;
unicode = 1051;
},
{
color = (153,255,154,255);
glyphname = Pecyr;
kernLeft = H1;
kernRight = H2;
layers = (
{
layerId = "EF32B9A4-AE44-476D-9D4B-CF47E47A5F6C";
shapes = (
{
closed = 1;
nodes = (
(100,700,l),
(100,0,l),
(196,0,l),
(196,610,l),
(600,610,l),
(600,0,l),
(696,0,l),
(696,700,l)
);
}
);
width = 796;
}
);
metricLeft = H;
metricRight = "=|";
unicode = 1055;
},
{
color = (153,255,154,255);
glyphname = Ucyr;
kernLeft = Ucyr1;
kernRight = Ucyr2;
layers = (
{
anchors = (
{
name = top;
pos = (327,700);
}
);
guides = (
{
angle = 67.222;
pos = (336,288);
}
);
layerId = "EF32B9A4-AE44-476D-9D4B-CF47E47A5F6C";
shapes = (
{
closed = 1;
nodes = (
(212,78,o),
(251,97,o),
(288,175,c),
(30,700,l),
(137,700,l),
(337,292,l),
(511,700,l),
(619,700,l),
(386,161,ls),
(324,18,o),
(248,-10,o),
(178,-10,cs),
(155,-10,o),
(123,-7,o),
(89,12,c),
(89,100,l),
(125,82,o),
(157,78,o),
(174,78,cs)
);
}
);
width = 649;
}
);
metricLeft = A;
metricRight = "=|";
unicode = 1059;
},
{
color = (153,255,154,255);
glyphname = Efcyr;
kernLeft = Efcyr1;
kernRight = Efcyr2;
layers = (
{
layerId = "EF32B9A4-AE44-476D-9D4B-CF47E47A5F6C";
shapes = (
{
closed = 1;
nodes = (
(65,180,o),
(205,62,o),
(420,57,c),
(420,-24,l),
(516,-24,l),
(516,57,l),
(731,62,o),
(871,180,o),
(871,357,cs),
(871,534,o),
(731,652,o),
(516,657,c),
(516,715,l),
(420,715,l),
(420,657,l),
(205,652,o),
(65,534,o),
(65,357,cs)
);
},
{
closed = 1;
nodes = (
(163,484,o),
(262,565,o),
(420,568,c),
(420,146,l),
(262,149,o),
(163,230,o),
(163,357,cs)
);
},
{
closed = 1;
nodes = (
(516,568,l),
(674,565,o),
(773,484,o),
(773,357,cs),
(773,230,o),
(674,149,o),
(516,146,c)
);
}
);
width = 936;
}
);
metricLeft = "=O-5";
metricRight = "=|";
unicode = 1060;
},
{
color = (153,255,154,255);
glyphname = Tsecyr;
kernLeft = H1;
kernRight = Decyr2;
layers = (
{
layerId = "EF32B9A4-AE44-476D-9D4B-CF47E47A5F6C";
shapes = (
{
closed = 1;
nodes = (
(770,-150,l),
(770,90,l),
(686,90,l),
(686,700,l),
(590,700,l),
(590,90,l),
(196,90,l),
(196,700,l),
(100,700,l),
(100,0,l),
(680,0,l),
(680,-150,l)
);
}
);
width = 820;
}
);
metricLeft = H;
metricRight = Decyr;
unicode = 1062;
},
{
color = (153,255,154,255);
glyphname = Checyr;
kernLeft = Checyr1;
kernRight = H2;
layers = (
{
anchors = (
{
name = top;
pos = (345,700);
}
);
guides = (
{
pos = (0,352);
},
{
pos = (0,264);
}
);
layerId = "EF32B9A4-AE44-476D-9D4B-CF47E47A5F6C";
shapes = (
{
closed = 1;
nodes = (
(524,700,l),
(524,377,l),
(485,353,o),
(430,338,o),
(364,338,cs),
(235,338,o),
(166,392,o),
(166,522,cs),
(166,700,l),
(70,700,l),
(70,506,ls),
(70,331,o),
(180,250,o),
(356,250,cs),
(425,250,o),
(482,262,o),
(524,284,c),
(524,0,l),
(620,0,l),
(620,700,l)
);
}
);
width = 720;
}
);
metricLeft = O;
metricRight = H;
unicode = 1063;
},
{
color = (153,255,154,255);
glyphname = Shacyr;
kernLeft = H1;
kernRight = H2;
layers = (
{
layerId = "EF32B9A4-AE44-476D-9D4B-CF47E47A5F6C";
shapes = (
{
closed = 1;
nodes = (
(100,700,l),
(100,0,l),
(926,0,l),
(926,700,l),
(830,700,l),
(830,90,l),
(561,90,l),
(561,700,l),
(465,700,l),
(465,90,l),
(196,90,l),
(196,700,l)
);
}
);
width = 1026;
}
);
metricLeft = H;
metricRight = H;
unicode = 1064;
},
{
color = (153,255,154,255);
glyphname = Shchacyr;
kernLeft = H1;
kernRight = Decyr2;
layers = (
{
layerId = "EF32B9A4-AE44-476D-9D4B-CF47E47A5F6C";
shapes = (
{
closed = 1;
nodes = (
(100,700,l),
(100,0,l),
(920,0,l),
(920,-150,l),
(1010,-150,l),
(1010,90,l),
(926,90,l),
(926,700,l),
(830,700,l),
(830,90,l),
(561,90,l),
(561,700,l),
(465,700,l),
(465,90,l),
(196,90,l),
(196,700,l)
);
}
);
width = 1060;
}
);
metricLeft = H;
metricRight = Decyr;
unicode = 1065;
},
{
color = (153,255,154,255);
glyphname = Hardcyr;
kernLeft = Hardcyr1;
kernRight = Hardcyr2;
layers = (
{
layerId = "EF32B9A4-AE44-476D-9D4B-CF47E47A5F6C";
shapes = (
{
closed = 1;
nodes = (
(210,0,l),
(507,0,ls),
(647,0,o),
(740,90,o),
(740,220,cs),
(740,350,o),
(647,440,o),
(507,440,cs),
(306,440,l),
(306,700,l),
(30,700,l),
(30,610,l),
(210,610,l)
);
},
{
closed = 1;
nodes = (
(306,90,l),
(306,350,l),
(490,350,ls),
(586,350,o),
(644,300,o),
(644,220,cs),
(644,140,o),
(586,90,o),
(490,90,cs)
);
}
);
width = 795;
}
);
metricLeft = A;
metricRight = P;
unicode = 1066;
},
{
color = (153,255,154,255);
glyphname = Ylongcyr;
kernLeft = H1;
kernRight = H2;
layers = (
{
anchors = (
{
name = top;
pos = (457,700);
}
);
layerId = "EF32B9A4-AE44-476D-9D4B-CF47E47A5F6C";
shapes = (
{
closed = 1;
nodes = (
(100,700,l),
(100,0,l),
(396,0,ls),
(536,0,o),
(629,90,o),
(629,220,cs),
(629,350,o),
(536,440,o),
(396,440,cs),
(196,440,l),
(196,700,l)
);
},
{
closed = 1;
nodes = (
(196,90,l),
(196,350,l),
(379,350,ls),
(475,350,o),
(533,300,o),
(533,220,cs),
(533,140,o),
(475,90,o),
(379,90,cs)
);
},
{
closed = 1;
nodes = (
(717,700,l),
(717,0,l),
(813,0,l),
(813,700,l)
);
}
);
width = 913;
}
);
metricLeft = H;
metricRight = "=|";
unicode = 1067;
},
{
color = (153,255,154,255);
glyphname = Softcyr;
kernLeft = H1;
kernRight = Hardcyr2;
layers = (
{
guides = (
{
pos = (0,440);
}
);
layerId = "EF32B9A4-AE44-476D-9D4B-CF47E47A5F6C";
shapes = (
{
closed = 1;
nodes = (
(100,700,l),
(100,0,l),
(397,0,ls),
(537,0,o),
(630,90,o),
(630,220,cs),
(630,350,o),
(537,440,o),
(397,440,cs),
(196,440,l),
(196,700,l)
);
},
{
closed = 1;
nodes = (
(196,90,l),
(196,350,l),
(380,350,ls),
(476,350,o),
(534,300,o),
(534,220,cs),
(534,140,o),
(476,90,o),
(380,90,cs)
);
}
);
width = 685;
}
);
metricLeft = H;
metricRight = P;
unicode = 1068;
},
{
color = (153,255,154,255);
glyphname = Ereversedcyr;
kernLeft = Ereversedcyr1;
kernRight = O2;
layers = (
{
anchors = (
{
name = top;
pos = (304,706);
}
);
layerId = "EF32B9A4-AE44-476D-9D4B-CF47E47A5F6C";
shapes = (
{
closed = 1;
nodes = (
(477,-10,o),
(632,140,o),
(632,350,cs),
(632,560,o),
(481,710,o),
(250,710,cs),
(180,710,o),
(117,696,o),
(65,669,c),
(65,576,l),
(117,608,o),
(190,622,o),
(253,622,cs),
(409,622,o),
(508,536,o),
(528,401,c),
(168,401,l),
(168,311,l),
(530,311,l),
(514,168,o),
(411,78,o),
(242,78,cs),
(179,78,o),
(107,90,o),
(55,119,c),
(55,26,l),
(108,2,o),
(171,-10,o),
(238,-10,cs)
);
}
);
width = 702;
}
);
metricLeft = "=O-15";
metricRight = O;
unicode = 1069;
},
{
color = (153,255,154,255);
glyphname = Yucyr;
kernLeft = H1;
kernRight = O2;
layers = (
{
layerId = "EF32B9A4-AE44-476D-9D4B-CF47E47A5F6C";
shapes = (
{
closed = 1;
nodes = (
(100,700,l),
(100,0,l),
(196,0,l),
(196,307,l),
(274,307,l),
(292,120,o),
(430,-10,o),
(603,-10,cs),
(800,-10,o),
(934,140,o),
(934,350,cs),
(934,560,o),
(800,710,o),
(603,710,cs),
(431,710,o),
(295,582,o),
(275,397,c),
(196,397,l),
(196,700,l)
);
},
{
closed = 1;
nodes = (
(366,512,o),
(461,622,o),
(602,622,cs),
(743,622,o),
(836,514,o),
(836,350,cs),
(836,186,o),
(743,78,o),
(602,78,cs),
(461,78,o),
(366,188,o),
(366,350,cs)
);
}
);
width = 1004;
}
);
metricLeft = Encyr;
metricRight = O;
unicode = 1070;
},
{
color = (153,255,154,255);
glyphname = Yacyr;
kernLeft = Yacyr1;
kernRight = H2;
layers = (
{
layerId = "EF32B9A4-AE44-476D-9D4B-CF47E47A5F6C";
shapes = (
{
closed = 1;
nodes = (
(605,0,l),
(509,0,l),
(509,292,l),
(338,292,l),
(145,0,l),
(35,0,l),
(237,299,l),
(145,322,o),
(85,395,o),
(85,496,cs),
(85,618,o),
(174,700,o),
(300,700,cs),
(605,700,l)
);
},
{
closed = 1;
nodes = (
(509,610,l),
(317,610,ls),
(233,610,o),
(181,567,o),
(181,496,cs),
(181,425,o),
(233,382,o),
(317,382,cs),
(509,382,l)
);
}
);
width = 705;
}
);
metricLeft = "=A+5";
metricRight = H;
unicode = 1071;
},
{
color = (153,255,154,255);
glyphname = Djecyr;
kernLeft = Hardcyr1;
kernRight = Djecyr2;
layers = (
{
layerId = "EF32B9A4-AE44-476D-9D4B-CF47E47A5F6C";
shapes = (
{
closed = 1;
nodes = (
(295,0,l),
(295,303,l),
(333,327,o),
(387,342,o),
(452,342,cs),
(590,342,o),
(653,276,o),
(653,150,cs),
(653,24,o),
(614,-47,o),
(508,-47,c),
(508,-135,l),
(689,-135,o),
(749,-22,o),
(749,149,cs),
(749,320,o),
(645,430,o),
(452,430,cs),
(389,430,o),
(336,418,o),
(295,397,c),
(295,610,l),
(551,610,l),
(551,700,l),
(35,700,l),
(35,610,l),
(199,610,l),
(199,0,l)
);
}
);
width = 741;
}
);
unicode = 1026;
},
{
color = (153,254,255,255);
glyphname = Geupcyr;
kernLeft = H1;
kernRight = Gecyr2;
layers = (
{
layerId = "EF32B9A4-AE44-476D-9D4B-CF47E47A5F6C";
shapes = (
{
closed = 1;
nodes = (
(100,700,l),
(100,0,l),
(196,0,l),
(196,610,l),
(570,610,l),
(570,850,l),
(480,850,l),
(480,700,l)
);
}
);
width = 610;
}
);
metricLeft = Gecyr;
metricRight = Gecyr;
unicode = 1168;
},
{
color = (153,254,255,255);
glyphname = Eukrcyr;
kernLeft = O1;
kernRight = C2;
layers = (
{
layerId = "EF32B9A4-AE44-476D-9D4B-CF47E47A5F6C";
shapes = (
{
closed = 1;
nodes = (
(531,-10,o),
(594,2,o),
(647,26,c),
(647,119,l),
(595,90,o),
(523,78,o),
(460,78,cs),
(291,78,o),
(188,168,o),
(172,311,c),
(534,311,l),
(534,401,l),
(174,401,l),
(194,536,o),
(293,622,o),
(449,622,cs),
(512,622,o),
(585,608,o),
(637,576,c),
(637,669,l),
(585,696,o),
(522,710,o),
(452,710,cs),
(221,710,o),
(70,560,o),
(70,350,cs),
(70,140,o),
(225,-10,o),
(464,-10,cs)
);
}
);
width = 702;
}
);
metricLeft = C;
metricRight = C;
unicode = 1028;
},
{
color = (153,255,154,255);
glyphname = Ljecyr;
kernLeft = Elcyr1;
kernRight = Hardcyr2;
layers = (
{
guides = (
{
pos = (0,439);
}
);
layerId = "EF32B9A4-AE44-476D-9D4B-CF47E47A5F6C";
shapes = (
{
closed = 1;
nodes = (
(566,0,l),
(844,0,ls),
(984,0,o),
(1077,89,o),
(1077,219,cs),
(1077,347,o),
(984,436,o),
(844,436,cs),
(662,436,l),
(662,700,l),
(196,700,l),
(182,476,ls),
(166,224,o),
(160,84,o),
(49,84,cs),
(36,84,o),
(26,86,o),
(15,89,c),
(15,2,l),
(26,-3,o),
(42,-6,o),
(65,-6,cs),
(240,-6,o),
(261,160,o),
(279,466,cs),
(288,610,l),
(566,610,l)
);
},
{
closed = 1;
nodes = (
(662,90,l),
(662,346,l),
(827,346,ls),
(923,346,o),
(981,298,o),
(981,219,cs),
(981,139,o),
(923,90,o),
(827,90,cs)
);
}
);
width = 1132;
}
);
metricLeft = Elcyr;
metricRight = Softcyr;
unicode = 1033;
},
{
color = (153,255,154,255);
glyphname = Njecyr;
kernLeft = H1;
kernRight = Hardcyr2;
layers = (
{
layerId = "EF32B9A4-AE44-476D-9D4B-CF47E47A5F6C";
shapes = (
{
closed = 1;
nodes = (
(575,700,l),
(575,436,l),
(196,436,l),
(196,700,l),
(100,700,l),
(100,0,l),
(196,0,l),
(196,346,l),
(575,346,l),
(575,0,l),
(853,0,ls),
(993,0,o),
(1086,89,o),
(1086,219,cs),
(1086,347,o),
(993,436,o),
(853,436,cs),
(671,436,l),
(671,700,l)
);
},
{
closed = 1;
nodes = (
(671,90,l),
(671,346,l),
(836,346,ls),
(932,346,o),
(990,298,o),
(990,219,cs),
(990,139,o),
(932,90,o),
(836,90,cs)
);
}
);
width = 1141;
}
);
metricLeft = H;
metricRight = Softcyr;
unicode = 1034;
},
{
color = (153,255,154,255);
glyphname = Tshecyr;
kernLeft = Hardcyr1;
kernRight = Tschecyr2;
layers = (
{
guides = (
{
pos = (0,348);
},
{
pos = (0,436);
}
);
layerId = "EF32B9A4-AE44-476D-9D4B-CF47E47A5F6C";
shapes = (
{
closed = 1;
nodes = (
(300,0,l),
(300,303,l),
(340,328,o),
(397,342,o),
(467,342,cs),
(595,342,o),
(658,294,o),
(658,168,cs),
(658,0,l),
(754,0,l),
(754,184,ls),
(754,355,o),
(650,430,o),
(474,430,cs),
(402,430,o),
(343,418,o),
(300,396,c),
(300,610,l),
(556,610,l),
(556,700,l),
(40,700,l),
(40,610,l),
(204,610,l),
(204,0,l)
);
}
);
width = 824;
}
);
metricLeft = T;
metricRight = O;
unicode = 1035;
},
{
color = (153,255,154,255);
glyphname = Dzhecyr;
kernLeft = H1;
kernRight = H2;
layers = (
{
layerId = "EF32B9A4-AE44-476D-9D4B-CF47E47A5F6C";
shapes = (
{
closed = 1;
nodes = (
(100,0,l),
(100,700,l),
(196,700,l),
(196,90,l),
(592,90,l),
(592,700,l),
(688,700,l),
(688,0,l),
(439,0,l),
(439,-150,l),
(349,-150,l),
(349,0,l)
);
}
);
width = 788;
}
);
metricLeft = H;
metricRight = "=|";
unicode = 1039;
},
{
color = (153,255,154,255);
glyphname = becyr;
kernLeft = becyr1;
kernRight = becyr2;
layers = (
{
layerId = "EF32B9A4-AE44-476D-9D4B-CF47E47A5F6C";
shapes = (
{
closed = 1;
nodes = (
(55,240,ls),
(55,90,o),
(156,-10,o),
(309,-10,cs),
(460,-10,o),
(560,88,o),
(560,235,cs),
(560,382,o),
(460,480,o),
(323,480,cs),
(252,480,o),
(191,454,o),
(150,402,c),
(166,541,o),
(252,559,o),
(344,567,cs),
(438,575,o),
(529,581,o),
(530,700,c),
(440,700,l),
(437,657,o),
(380,661,o),
(308,652,cs),
(87,625,o),
(55,472,o),
(55,248,cs)
);
},
{
closed = 1;
nodes = (
(147,331,o),
(214,398,o),
(306,398,cs),
(400,398,o),
(467,329,o),
(467,235,cs),
(467,141,o),
(399,72,o),
(308,72,cs),
(215,72,o),
(147,143,o),
(147,240,cs)
);
}
);
width = 610;
}
);
metricLeft = "=o+5";
metricRight = o;
unicode = 1073;
},
{
color = (153,255,154,255);
glyphname = vecyr;
kernLeft = n1;
kernRight = vecyr2;
layers = (
{
layerId = "EF32B9A4-AE44-476D-9D4B-CF47E47A5F6C";
shapes = (
{
closed = 1;
nodes = (
(85,0,l),
(381,0,ls),
(482,0,o),
(551,64,o),
(551,145,cs),
(551,207,o),
(511,256,o),
(449,276,c),
(497,300,o),
(524,342,o),
(524,388,cs),
(524,460,o),
(456,520,o),
(366,520,cs),
(85,520,l)
);
},
{
closed = 1;
nodes = (
(177,82,l),
(177,232,l),
(351,232,ls),
(414,232,o),
(452,203,o),
(452,158,cs),
(452,110,o),
(414,82,o),
(351,82,cs)
);
},
{
closed = 1;
nodes = (
(177,312,l),
(177,438,l),
(338,438,ls),
(392,438,o),
(424,414,o),
(424,375,cs),
(424,336,o),
(392,312,o),
(338,312,cs)
);
}
);
width = 606;
}
);
metricLeft = encyr;
metricRight = "=о+5";
unicode = 1074;
},
{
color = (153,255,154,255);
glyphname = gecyr;
kernLeft = n1;
kernRight = gecyr2;
layers = (
{
anchors = (
{
name = top;
pos = (305,520);
}
);
layerId = "EF32B9A4-AE44-476D-9D4B-CF47E47A5F6C";
shapes = (
{
closed = 1;
nodes = (
(85,0,l),
(177,0,l),
(177,434,l),
(461,434,l),
(461,520,l),
(85,520,l)
);
}
);
width = 496;
}
);
metricLeft = encyr;
metricRight = w;
unicode = 1075;
},
{
color = (153,255,154,255);
glyphname = decyr;
kernLeft = decyr1;
kernRight = decyr2;
layers = (
{
layerId = "EF32B9A4-AE44-476D-9D4B-CF47E47A5F6C";
shapes = (
{
closed = 1;
nodes = (
(25,-130,l),
(113,-130,l),
(113,0,l),
(543,0,l),
(543,-130,l),
(631,-130,l),
(631,86,l),
(561,86,l),
(561,520,l),
(164,520,l),
(159,434,ls),
(147,233,o),
(113,128,o),
(71,86,c),
(25,86,l)
);
},
{
closed = 1;
nodes = (
(180,86,l),
(216,148,o),
(243,287,o),
(251,434,c),
(469,434,l),
(469,86,l)
);
}
);
width = 666;
}
);
metricLeft = "=w-10";
metricRight = w;
unicode = 1076;
},
{
color = (153,255,154,255);
glyphname = zhecyr;
kernLeft = zhecyr1;
kernRight = k2;
layers = (
{
anchors = (
{
name = top;
pos = (428,520);
}
);
guides = (
{
angle = 90;
pos = (876,0);
}
);
layerId = "EF32B9A4-AE44-476D-9D4B-CF47E47A5F6C";
shapes = (
{
closed = 1;
nodes = (
(381,520,l),
(475,520,l),
(475,316,l),
(563,316,l),
(702,520,l),
(808,520,l),
(635,270,l),
(826,0,l),
(711,0,l),
(553,230,l),
(475,230,l),
(475,0,l),
(381,0,l),
(381,230,l),
(303,230,l),
(145,0,l),
(30,0,l),
(221,270,l),
(48,520,l),
(154,520,l),
(293,316,l),
(381,316,l)
);
}
);
width = 856;
}
);
metricLeft = "=v+5";
metricRight = "=|";
unicode = 1078;
},
{
color = (153,255,154,255);
glyphname = zecyr;
kernLeft = zecyr1;
kernRight = zecyr2;
layers = (
{
anchors = (
{
name = top;
pos = (261,520);
}
);
layerId = "EF32B9A4-AE44-476D-9D4B-CF47E47A5F6C";
shapes = (
{
closed = 1;
nodes = (
(60,21,l),
(109,1,o),
(176,-10,o),
(243,-10,cs),
(429,-10,o),
(488,74,o),
(488,155,cs),
(488,221,o),
(448,253,o),
(391,272,c),
(438,288,o),
(481,325,o),
(481,385,cs),
(481,476,o),
(381,530,o),
(242,530,cs),
(179,530,o),
(117,519,o),
(66,497,c),
(66,414,l),
(109,433,o),
(174,448,o),
(241,448,cs),
(323,448,o),
(381,425,o),
(381,376,cs),
(381,340,o),
(349,312,o),
(267,312,cs),
(165,312,l),
(165,232,l),
(267,232,ls),
(343,232,o),
(388,208,o),
(388,156,cs),
(388,94,o),
(326,72,o),
(244,72,cs),
(178,72,o),
(106,86,o),
(60,108,c)
);
}
);
width = 543;
}
);
metricLeft = "=o+10";
metricRight = vecyr;
unicode = 1079;
},
{
color = (153,255,154,255);
glyphname = icyr;
kernLeft = n1;
kernRight = u2;
layers = (
{
anchors = (
{
name = top;
pos = (328,520);
}
);
layerId = "EF32B9A4-AE44-476D-9D4B-CF47E47A5F6C";
shapes = (
{
closed = 1;
nodes = (
(85,520,l),
(177,520,l),
(177,107,l),
(449,520,l),
(571,520,l),
(571,0,l),
(479,0,l),
(479,414,l),
(207,0,l),
(85,0,l)
);
}
);
width = 656;
}
);
metricLeft = encyr;
metricRight = "=|";
unicode = 1080;
},
{
color = (153,255,154,255);
glyphname = kacyr;
kernLeft = n1;
kernRight = k2;
layers = (
{
anchors = (
{
name = top;
pos = (325,520);
}
);
guides = (
{
angle = 90;
pos = (580,0);
}
);
layerId = "EF32B9A4-AE44-476D-9D4B-CF47E47A5F6C";
shapes = (
{
closed = 1;
nodes = (
(85,0,l),
(179,0,l),
(179,230,l),
(273,230,l),
(455,0,l),
(564,0,l),
(342,278,l),
(525,520,l),
(420,520,l),
(267,316,l),
(179,316,l),
(179,520,l),
(85,520,l)
);
}
);
width = 589;
}
);
metricLeft = k;
metricRight = k;
unicode = 1082;
},
{
color = (153,255,154,255);
glyphname = elcyr;
kernLeft = elcyr1;
kernRight = u2;
layers = (
{
layerId = "EF32B9A4-AE44-476D-9D4B-CF47E47A5F6C";
shapes = (
{
closed = 1;
nodes = (
(474,0,l),
(566,0,l),
(566,520,l),
(166,520,l),
(157,376,ls),
(144,170,o),
(122,80,o),
(50,80,cs),
(37,80,o),
(27,81,o),
(20,83,c),
(20,1,l),
(30,-2,o),
(48,-4,o),
(64,-4,cs),
(218,-4,o),
(238,186,o),
(249,370,cs),
(253,434,l),
(474,434,l)
);
}
);
width = 651;
}
);
metricLeft = "=v-5";
metricRight = encyr;
unicode = 1083;
},
{
color = (153,255,154,255);
glyphname = emcyr;
kernLeft = n1;
kernRight = u2;
layers = (
{
layerId = "EF32B9A4-AE44-476D-9D4B-CF47E47A5F6C";
shapes = (
{
closed = 1;
nodes = (
(569,0,l),
(661,0,l),
(661,520,l),
(510,520,l),
(373,196,l),
(236,520,l),
(85,520,l),
(85,0,l),
(177,0,l),
(177,438,l),
(322,103,l),
(424,103,l),
(569,438,l)
);
}
);
width = 746;
}
);
metricLeft = encyr;
metricRight = "=|";
unicode = 1084;
},
{
color = (153,255,154,255);
glyphname = encyr;
kernLeft = n1;
kernRight = u2;
layers = (
{
guides = (
{
pos = (0,273);
}
);
layerId = "EF32B9A4-AE44-476D-9D4B-CF47E47A5F6C";
shapes = (
{
closed = 1;
nodes = (
(469,0,l),
(561,0,l),
(561,520,l),
(469,520,l),
(469,316,l),
(177,316,l),
(177,520,l),
(85,520,l),
(85,0,l),
(177,0,l),
(177,230,l),
(469,230,l)
);
}
);
width = 646;
}
);
metricLeft = "=H-15";
metricRight = "=|";
unicode = 1085;
},
{
color = (153,255,154,255);
glyphname = pecyr;
kernLeft = n1;
kernRight = u2;
layers = (
{
layerId = "EF32B9A4-AE44-476D-9D4B-CF47E47A5F6C";
shapes = (
{
closed = 1;
nodes = (
(463,0,l),
(555,0,l),
(555,520,l),
(85,520,l),
(85,0,l),
(177,0,l),
(177,434,l),
(463,434,l)
);
}
);
width = 640;
}
);
metricLeft = encyr;
metricRight = "=|";
unicode = 1087;
},
{
color = (153,255,154,255);
glyphname = tecyr;
kernLeft = tecyr1;
kernRight = tecyr2;
layers = (
{
layerId = "EF32B9A4-AE44-476D-9D4B-CF47E47A5F6C";
shapes = (
{
closed = 1;
nodes = (
(208,0,l),
(300,0,l),
(300,434,l),
(482,434,l),
(482,520,l),
(25,520,l),
(25,434,l),
(208,434,l)
);
}
);
width = 507;
}
);
metricLeft = v;
metricRight = "=|";
unicode = 1090;
},
{
color = (153,254,255,255);
glyphname = ucyr;
kernLeft = y1;
kernRight = y2;
layers = (
{
anchors = (
{
name = top;
pos = (295,520);
}
);
layerId = "EF32B9A4-AE44-476D-9D4B-CF47E47A5F6C";
shapes = (
{
closed = 1;
nodes = (
(53,-172,l),
(77,-185,o),
(105,-190,o),
(133,-190,cs),
(223,-190,o),
(278,-139,o),
(318,-48,cs),
(565,520,l),
(465,520,l),
(296,123,l),
(126,520,l),
(25,520,l),
(245,19,l),
(212,-65,o),
(185,-108,o),
(125,-108,cs),
(101,-108,o),
(77,-101,o),
(53,-90,c)
);
}
);
width = 590;
}
);
metricLeft = y;
metricRight = "=|";
unicode = 1091;
},
{
color = (153,255,154,255);
glyphname = efcyr;
kernLeft = o1;
kernRight = o2;
layers = (
{
layerId = "EF32B9A4-AE44-476D-9D4B-CF47E47A5F6C";
shapes = (
{
closed = 1;
nodes = (
(424,-10,l),
(596,-7,o),
(706,98,o),
(706,260,cs),
(706,422,o),
(596,527,o),
(424,530,c),
(424,700,l),
(332,700,l),
(332,530,l),
(160,527,o),
(50,422,o),
(50,260,cs),
(50,98,o),
(160,-7,o),
(332,-10,c),
(332,-180,l),
(424,-180,l)
);
},
{
closed = 1;
nodes = (
(143,369,o),
(222,446,o),
(332,448,c),
(332,72,l),
(222,74,o),
(143,151,o),
(143,260,cs)
);
},
{
closed = 1;
nodes = (
(424,448,l),
(534,446,o),
(613,369,o),
(613,260,cs),
(613,151,o),
(534,74,o),
(424,72,c)
);
}
);
width = 756;
}
);
metricLeft = o;
metricRight = "=|";
unicode = 1092;
},
{
color = (153,254,255,255);
glyphname = tsecyr;
kernLeft = n1;
kernRight = decyr2;
layers = (
{
layerId = "EF32B9A4-AE44-476D-9D4B-CF47E47A5F6C";
shapes = (
{
closed = 1;
nodes = (
(85,0,l),
(537,0,l),
(537,-130,l),
(625,-130,l),
(625,86,l),
(555,86,l),
(555,520,l),
(463,520,l),
(463,86,l),
(177,86,l),
(177,520,l),
(85,520,l)
);
}
);
width = 660;
}
);
metricLeft = encyr;
metricRight = decyr;
unicode = 1094;
},
{
color = (153,255,154,255);
glyphname = checyr;
kernLeft = checyr1;
kernRight = u2;
layers = (
{
anchors = (
{
name = top;
pos = (290,520);
}
);
layerId = "EF32B9A4-AE44-476D-9D4B-CF47E47A5F6C";
shapes = (
{
closed = 1;
nodes = (
(428,520,l),
(428,272,l),
(398,254,o),
(355,243,o),
(305,243,cs),
(206,243,o),
(152,284,o),
(152,384,cs),
(152,520,l),
(60,520,l),
(60,365,ls),
(60,235,o),
(149,161,o),
(291,161,cs),
(348,161,o),
(394,170,o),
(428,186,c),
(428,0,l),
(520,0,l),
(520,520,l)
);
}
);
width = 605;
}
);
metricLeft = "=o+10";
metricRight = encyr;
unicode = 1095;
},
{
color = (153,255,154,255);
glyphname = shacyr;
kernLeft = n1;
kernRight = u2;
layers = (
{
layerId = "EF32B9A4-AE44-476D-9D4B-CF47E47A5F6C";
shapes = (
{
closed = 1;
nodes = (
(85,0,l),
(793,0,l),
(793,520,l),
(701,520,l),
(701,86,l),
(485,86,l),
(485,520,l),
(393,520,l),
(393,86,l),
(177,86,l),
(177,520,l),
(85,520,l)
);
}
);
width = 878;
}
);
metricLeft = encyr;
metricRight = "=|";
unicode = 1096;
},
{
color = (153,254,255,255);
glyphname = shchacyr;
kernLeft = n1;
kernRight = decyr2;
layers = (
{
layerId = "EF32B9A4-AE44-476D-9D4B-CF47E47A5F6C";
shapes = (
{
closed = 1;
nodes = (
(85,0,l),
(775,0,l),
(775,-130,l),
(863,-130,l),
(863,86,l),
(793,86,l),
(793,520,l),
(701,520,l),
(701,86,l),
(485,86,l),
(485,520,l),
(393,520,l),
(393,86,l),
(177,86,l),
(177,520,l),
(85,520,l)
);
}
);
width = 898;
}
);
metricLeft = encyr;
metricRight = decyr;
unicode = 1097;
},
{
color = (153,254,255,255);
glyphname = hardcyr;
kernLeft = hardcyr1;
kernRight = hardcyr2;
layers = (
{
layerId = "EF32B9A4-AE44-476D-9D4B-CF47E47A5F6C";
shapes = (
{
closed = 1;
nodes = (
(161,0,l),
(441,0,ls),
(541,0,o),
(611,81,o),
(611,175,cs),
(611,269,o),
(541,350,o),
(441,350,cs),
(253,350,l),
(253,520,l),
(20,520,l),
(20,434,l),
(161,434,l)
);
},
{
closed = 1;
nodes = (
(253,82,l),
(253,268,l),
(417,268,ls),
(481,268,o),
(519,233,o),
(519,175,cs),
(519,117,o),
(481,82,o),
(417,82,cs)
);
}
);
width = 661;
}
);
metricLeft = "=v-5";
metricRight = o;
unicode = 1098;
},
{
color = (153,255,154,255);
glyphname = ylongcyr;
kernLeft = n1;
kernRight = u2;
layers = (
{
anchors = (
{
name = top;
pos = (381,520);
}
);
layerId = "EF32B9A4-AE44-476D-9D4B-CF47E47A5F6C";
shapes = (
{
closed = 1;
nodes = (
(85,0,l),
(345,0,ls),
(445,0,o),
(515,81,o),
(515,175,cs),
(515,269,o),
(445,350,o),
(345,350,cs),
(177,350,l),
(177,520,l),
(85,520,l)
);
},
{
closed = 1;
nodes = (
(585,0,l),
(677,0,l),
(677,520,l),
(585,520,l)
);
},
{
closed = 1;
nodes = (
(177,82,l),
(177,268,l),
(321,268,ls),
(385,268,o),
(423,233,o),
(423,175,cs),
(423,117,o),
(385,82,o),
(321,82,cs)
);
}
);
width = 762;
}
);
metricLeft = encyr;
metricRight = "=|";
unicode = 1099;
},
{
color = (153,255,154,255);
glyphname = softcyr;
kernLeft = n1;
kernRight = hardcyr2;
layers = (
{
layerId = "EF32B9A4-AE44-476D-9D4B-CF47E47A5F6C";
shapes = (
{
closed = 1;
nodes = (
(85,0,l),
(365,0,ls),
(465,0,o),
(535,81,o),
(535,175,cs),
(535,269,o),
(465,350,o),
(365,350,cs),
(177,350,l),
(177,520,l),
(85,520,l)
);
},
{
closed = 1;
nodes = (
(177,82,l),
(177,268,l),
(341,268,ls),
(405,268,o),
(443,233,o),
(443,175,cs),
(443,117,o),
(405,82,o),
(341,82,cs)
);
}
);
width = 585;
}
);
metricLeft = encyr;
metricRight = o;
unicode = 1100;
},
{
color = (153,255,154,255);
glyphname = ereversedcyr;
kernLeft = ereversedcyr1;
kernRight = o2;
layers = (
{
anchors = (
{
name = top;
pos = (264,520);
}
);
guides = (
{
pos = (0,230);
}
);
layerId = "EF32B9A4-AE44-476D-9D4B-CF47E47A5F6C";
shapes = (
{
closed = 1;
nodes = (
(369,-10,o),
(473,105,o),
(473,260,cs),
(473,415,o),
(369,530,o),
(198,530,cs),
(150,530,o),
(103,521,o),
(61,505,c),
(61,425,l),
(100,442,o),
(147,448,o),
(181,448,cs),
(290,448,o),
(357,387,o),
(375,307,c),
(157,307,l),
(157,227,l),
(377,227,l),
(363,140,o),
(295,72,o),
(174,72,cs),
(139,72,o),
(92,78,o),
(55,96,c),
(55,14,l),
(97,-2,o),
(145,-10,o),
(192,-10,cs)
);
}
);
width = 523;
}
);
metricLeft = "=o+5";
metricRight = o;
unicode = 1101;
},
{
color = (153,255,154,255);
glyphname = yucyr;
kernLeft = n1;
kernRight = o2;
layers = (
{
layerId = "EF32B9A4-AE44-476D-9D4B-CF47E47A5F6C";
shapes = (
{
closed = 1;
nodes = (
(85,0,l),
(177,0,l),
(177,222,l),
(265,222,l),
(280,81,o),
(379,-10,o),
(523,-10,cs),
(680,-10,o),
(783,98,o),
(783,260,cs),
(783,422,o),
(680,530,o),
(523,530,cs),
(382,530,o),
(284,443,o),
(266,308,c),
(177,308,l),
(177,520,l),
(85,520,l)
);
},
{
closed = 1;
nodes = (
(356,369,o),
(426,448,o),
(523,448,cs),
(620,448,o),
(690,369,o),
(690,260,cs),
(690,151,o),
(620,72,o),
(523,72,cs),
(426,72,o),
(356,151,o),
(356,260,cs)
);
}
);
width = 833;
}
);
metricLeft = encyr;
metricRight = o;
unicode = 1102;
},
{
color = (153,255,154,255);
glyphname = yacyr;
kernLeft = yacyr1;
kernRight = u2;
layers = (
{
layerId = "EF32B9A4-AE44-476D-9D4B-CF47E47A5F6C";
shapes = (
{
closed = 1;
nodes = (
(517,520,l),
(237,520,ls),
(137,520,o),
(67,443,o),
(67,355,cs),
(67,278,o),
(120,210,o),
(200,194,c),
(45,0,l),
(154,0,l),
(305,190,l),
(425,190,l),
(425,0,l),
(517,0,l)
);
},
{
closed = 1;
nodes = (
(159,407,o),
(197,438,o),
(261,438,cs),
(425,438,l),
(425,272,l),
(261,272,ls),
(197,272,o),
(159,303,o),
(159,355,cs)
);
}
);
width = 602;
}
);
metricLeft = a;
metricRight = encyr;
unicode = 1103;
},
{
color = (153,255,154,255);
glyphname = djecyr;
kernLeft = djecyr1;
kernRight = j2;
layers = (
{
layerId = "EF32B9A4-AE44-476D-9D4B-CF47E47A5F6C";
shapes = (
{
closed = 1;
nodes = (
(510,13,ls),
(510,-77,o),
(472,-108,o),
(415,-108,cs),
(394,-108,o),
(375,-104,o),
(356,-97,c),
(356,-175,l),
(382,-184,o),
(410,-190,o),
(439,-190,cs),
(536,-190,o),
(602,-133,o),
(602,0,cs),
(602,308,ls),
(602,446,o),
(514,530,o),
(379,530,cs),
(309,530,o),
(250,507,o),
(210,462,c),
(210,571,l),
(400,571,l),
(400,650,l),
(210,650,l),
(210,700,l),
(116,700,l),
(116,650,l),
(25,650,l),
(25,571,l),
(116,571,l),
(116,0,l),
(210,0,l),
(210,288,ls),
(210,393,o),
(271,444,o),
(367,444,cs),
(462,444,o),
(510,393,o),
(510,288,cs)
);
}
);
width = 677;
}
);
metricLeft = v;
metricRight = n;
unicode = 1106;
},
{
color = (153,255,154,255);
glyphname = geupcyr;
kernLeft = n1;
kernRight = gecyr2;
layers = (
{
layerId = "EF32B9A4-AE44-476D-9D4B-CF47E47A5F6C";
shapes = (
{
closed = 1;
nodes = (
(85,0,l),
(177,0,l),
(177,434,l),
(461,434,l),
(461,650,l),
(373,650,l),
(373,520,l),
(85,520,l)
);
}
);
width = 496;
}
);
metricLeft = gecyr;
metricRight = gecyr;
unicode = 1169;
},
{
color = (153,255,154,255);
glyphname = eukrcyr;
kernLeft = o1;
kernRight = c2;
layers = (
{
layerId = "EF32B9A4-AE44-476D-9D4B-CF47E47A5F6C";
shapes = (
{
closed = 1;
nodes = (
(378,-10,o),
(426,-2,o),
(468,14,c),
(468,96,l),
(431,78,o),
(384,72,o),
(349,72,cs),
(228,72,o),
(160,140,o),
(146,227,c),
(366,227,l),
(366,307,l),
(148,307,l),
(166,387,o),
(233,448,o),
(342,448,cs),
(376,448,o),
(423,442,o),
(462,425,c),
(462,505,l),
(420,521,o),
(373,530,o),
(325,530,cs),
(154,530,o),
(50,415,o),
(50,260,cs),
(50,105,o),
(154,-10,o),
(331,-10,cs)
);
}
);
width = 523;
}
);
metricLeft = c;
metricRight = c;
unicode = 1108;
},
{
color = (153,255,154,255);
glyphname = ljecyr;
kernLeft = elcyr1;
kernRight = hardcyr2;
layers = (
{
layerId = "EF32B9A4-AE44-476D-9D4B-CF47E47A5F6C";
shapes = (
{
closed = 1;
nodes = (
(446,0,l),
(699,0,ls),
(799,0,o),
(869,76,o),
(869,163,cs),
(869,250,o),
(799,326,o),
(699,326,cs),
(538,326,l),
(538,520,l),
(166,520,l),
(157,376,ls),
(144,170,o),
(122,80,o),
(50,80,cs),
(37,80,o),
(27,81,o),
(20,83,c),
(20,1,l),
(30,-2,o),
(48,-4,o),
(64,-4,cs),
(218,-4,o),
(238,186,o),
(249,370,cs),
(253,434,l),
(446,434,l)
);
},
{
closed = 1;
nodes = (
(538,82,l),
(538,244,l),
(675,244,ls),
(739,244,o),
(777,214,o),
(777,163,cs),
(777,112,o),
(739,82,o),
(675,82,cs)
);
}
);
width = 919;
}
);
metricLeft = elcyr;
metricRight = softcyr;
unicode = 1113;
},
{
color = (153,255,154,255);
glyphname = njecyr;
kernLeft = n1;
kernRight = hardcyr2;
layers = (
{
guides = (
{
pos = (0,273);
}
);
layerId = "EF32B9A4-AE44-476D-9D4B-CF47E47A5F6C";
shapes = (
{
closed = 1;
nodes = (
(449,0,l),
(699,0,ls),
(799,0,o),
(869,76,o),
(869,163,cs),
(869,250,o),
(799,326,o),
(699,326,cs),
(541,326,l),
(541,520,l),
(449,520,l),
(449,326,l),
(177,326,l),
(177,520,l),
(85,520,l),
(85,0,l),
(177,0,l),
(177,240,l),
(449,240,l)
);
},
{
closed = 1;
nodes = (
(541,82,l),
(541,244,l),
(675,244,ls),
(739,244,o),
(777,214,o),
(777,163,cs),
(777,112,o),
(739,82,o),
(675,82,cs)
);
}
);
width = 919;
}
);
metricLeft = encyr;
metricRight = softcyr;
unicode = 1114;
},
{
color = (153,255,154,255);
glyphname = tshecyr;
kernLeft = djecyr1;
kernRight = n2;
layers = (
{
layerId = "EF32B9A4-AE44-476D-9D4B-CF47E47A5F6C";
shapes = (
{
closed = 1;
nodes = (
(116,0,l),
(210,0,l),
(210,288,ls),
(210,393,o),
(276,444,o),
(372,444,cs),
(467,444,o),
(510,393,o),
(510,288,cs),
(510,0,l),
(602,0,l),
(602,308,ls),
(602,446,o),
(514,530,o),
(379,530,cs),
(309,530,o),
(250,507,o),
(210,462,c),
(210,570,l),
(401,570,l),
(401,649,l),
(210,649,l),
(210,700,l),
(116,700,l),
(116,649,l),
(25,649,l),
(25,570,l),
(116,570,l)
);
}
);
width = 677;
}
);
metricLeft = v;
metricRight = h;
unicode = 1115;
},
{
color = (153,255,154,255);
glyphname = dzhecyr;
kernLeft = n1;
kernRight = u2;
layers = (
{
layerId = "EF32B9A4-AE44-476D-9D4B-CF47E47A5F6C";
shapes = (
{
closed = 1;
nodes = (
(85,0,l),
(276,0,l),
(276,-130,l),
(364,-130,l),
(364,0,l),
(555,0,l),
(555,520,l),
(463,520,l),
(463,86,l),
(177,86,l),
(177,520,l),
(85,520,l)
);
}
);
width = 640;
}
);
metricLeft = "=|";
metricRight = encyr;
unicode = 1119;
},
{
color = (154,153,255,255);
glyphname = period;
layers = (
{
guides = (
{
pos = (0,-41);
},
{
pos = (0,141);
}
);
layerId = "EF32B9A4-AE44-476D-9D4B-CF47E47A5F6C";
shapes = (
{
closed = 1;
nodes = (
(50,26,o),
(82,-6,o),
(126,-6,cs),
(170,-6,o),
(202,26,o),
(202,69,cs),
(202,112,o),
(170,144,o),
(126,144,cs),
(82,144,o),
(50,112,o),
(50,69,cs)
);
}
);
width = 252;
}
);
metricLeft = o;
metricRight = "=|";
unicode = 46;
},
{
color = (153,255,154,255);
glyphname = I.alt;
kernLeft = Ialt1;
kernRight = Ialt2;
layers = (
{
layerId = "EF32B9A4-AE44-476D-9D4B-CF47E47A5F6C";
shapes = (
{
closed = 1;
nodes = (
(90,610,l),
(187,610,l),
(187,90,l),
(90,90,l),
(90,0,l),
(376,0,l),
(376,90,l),
(283,90,l),
(283,610,l),
(376,610,l),
(376,700,l),
(90,700,l)
);
}
);
width = 466;
}
);
metricLeft = "=H-10";
metricRight = "=|";
},
{
color = 8;
glyphname = dotlessi;
kernLeft = i1;
kernRight = i2;
layers = (
{
anchors = (
{
name = top;
pos = (137,520);
}
);
guides = (
{
angle = 90;
pos = (142,0);
}
);
layerId = "EF32B9A4-AE44-476D-9D4B-CF47E47A5F6C";
shapes = (
{
closed = 1;
nodes = (
(95,0,l),
(189,0,l),
(189,520,l),
(15,520,l),
(15,434,l),
(95,434,l)
);
}
);
width = 274;
}
);
metricLeft = "=н-70";
metricRight = encyr;
unicode = 305;
},
{
color = 8;
glyphname = dotlessj;
kernLeft = j1;
kernRight = j2;
layers = (
{
anchors = (
{
name = top;
pos = (145,520);
}
);
guides = (
{
pos = (0,-65);
}
);
layerId = "EF32B9A4-AE44-476D-9D4B-CF47E47A5F6C";
shapes = (
{
closed = 1;
nodes = (
(-47,-175,l),
(-21,-185,o),
(7,-190,o),
(36,-190,cs),
(133,-190,o),
(199,-133,o),
(199,1,cs),
(199,520,l),
(25,520,l),
(25,436,l),
(105,436,l),
(105,13,ls),
(105,-77,o),
(68,-108,o),
(11,-108,cs),
(-9,-108,o),
(-29,-104,o),
(-47,-97,c)
);
}
);
width = 284;
}
);
unicode = 567;
},
{
color = (255,153,254,255);
glyphname = macron;
layers = (
{
layerId = "EF32B9A4-AE44-476D-9D4B-CF47E47A5F6C";
shapes = (
{
closed = 1;
nodes = (
(0,632,l),
(328,632,l),
(328,711,l),
(0,711,l)
);
}
);
width = 328;
}
);
unicode = 175;
},
{
color = (255,153,254,255);
glyphname = macroncomb;
layers = (
{
anchors = (
{
name = _top;
pos = (214,520);
}
);
layerId = "EF32B9A4-AE44-476D-9D4B-CF47E47A5F6C";
shapes = (
{
closed = 1;
nodes = (
(50,632,l),
(378,632,l),
(378,711,l),
(50,711,l)
);
}
);
width = 428;
}
);
metricLeft = "=50";
metricRight = "=|";
unicode = 772;
},
{
color = (255,153,254,255);
glyphname = hungarumlautcomb;
layers = (
{
anchors = (
{
name = _top;
pos = (180,520);
}
);
guides = (
{
angle = 90;
pos = (180,0);
}
);
layerId = "EF32B9A4-AE44-476D-9D4B-CF47E47A5F6C";
shapes = (
{
closed = 1;
nodes = (
(301,736,l),
(228,598,l),
(306,598,l),
(403,736,l)
);
},
{
closed = 1;
nodes = (
(123,736,l),
(50,598,l),
(128,598,l),
(225,736,l)
);
}
);
width = 453;
}
);
metricLeft = "=50";
metricRight = "=|";
unicode = 779;
},
{
color = (255,153,254,255);
glyphname = acute;
layers = (
{
anchors = (
{
name = _top;
pos = (126,520);
}
);
layerId = "EF32B9A4-AE44-476D-9D4B-CF47E47A5F6C";
shapes = (
{
closed = 1;
nodes = (
(123,736,l),
(50,598,l),
(128,598,l),
(225,736,l)
);
}
);
width = 275;
}
);
metricLeft = "=50";
metricRight = "=|";
unicode = 180;
},
{
color = (255,153,254,255);
glyphname = dotaccentcomb;
layers = (
{
anchors = (
{
name = _top;
pos = (116,520);
}
);
layerId = "EF32B9A4-AE44-476D-9D4B-CF47E47A5F6C";
shapes = (
{
closed = 1;
nodes = (
(50,633,o),
(77,606,o),
(116,606,cs),
(155,606,o),
(182,633,o),
(182,671,cs),
(182,709,o),
(155,736,o),
(116,736,cs),
(77,736,o),
(50,709,o),
(50,671,cs)
);
}
);
width = 232;
}
);
metricLeft = "=50";
metricRight = "=|";
unicode = 775;
},
{
color = (255,153,254,255);
glyphname = brevecomb;
layers = (
{
anchors = (
{
name = _top;
pos = (213,520);
}
);
guides = (
{
pos = (0,736);
}
);
layerId = "EF32B9A4-AE44-476D-9D4B-CF47E47A5F6C";
shapes = (
{
closed = 1;
nodes = (
(50,736,l),
(54,654,o),
(119,594,o),
(213,594,cs),
(307,594,o),
(372,654,o),
(376,736,c),
(300,736,l),
(297,695,o),
(263,664,o),
(213,664,cs),
(163,664,o),
(129,695,o),
(126,736,c)
);
}
);
width = 426;
}
);
metricLeft = "=50";
metricRight = "=|";
unicode = 774;
},
{
color = (255,153,254,255);
glyphname = dieresiscomb;
layers = (
{
anchors = (
{
name = _top;
pos = (211,520);
}
);
guides = (
{
pos = (0,1281);
},
{
pos = (0,740);
}
);
layerId = "EF32B9A4-AE44-476D-9D4B-CF47E47A5F6C";
shapes = (
{
closed = 1;
nodes = (
(240,639,o),
(267,612,o),
(306,612,cs),
(345,612,o),
(372,639,o),
(372,677,cs),
(372,715,o),
(345,742,o),
(306,742,cs),
(267,742,o),
(240,715,o),
(240,677,cs)
);
},
{
closed = 1;
nodes = (
(50,639,o),
(77,612,o),
(116,612,cs),
(155,612,o),
(182,639,o),
(182,677,cs),
(182,715,o),
(155,742,o),
(116,742,cs),
(77,742,o),
(50,715,o),
(50,677,cs)
);
}
);
width = 422;
}
);
metricLeft = "=50";
metricRight = "=|";
unicode = 776;
},
{
color = (255,153,254,255);
export = 0;
glyphname = brevecomb.case;
layers = (
{
anchors = (
{
name = _top;
pos = (238,700);
}
);
layerId = "EF32B9A4-AE44-476D-9D4B-CF47E47A5F6C";
shapes = (
{
closed = 1;
nodes = (
(50,953,l),
(55,857,o),
(130,787,o),
(238,787,cs),
(346,787,o),
(421,857,o),
(426,953,c),
(340,953,l),
(336,901,o),
(296,865,o),
(238,865,cs),
(180,865,o),
(140,901,o),
(136,953,c)
);
}
);
width = 476;
}
);
metricLeft = "=50";
metricRight = "=|";
},
{
color = (255,153,254,255);
export = 0;
glyphname = dieresiscomb.case;
layers = (
{
anchors = (
{
name = _top;
pos = (228,700);
}
);
guides = (
{
pos = (0,1281);
},
{
pos = (0,792);
}
);
layerId = "EF32B9A4-AE44-476D-9D4B-CF47E47A5F6C";
shapes = (
{
closed = 1;
nodes = (
(274,819,o),
(301,792,o),
(340,792,cs),
(379,792,o),
(406,819,o),
(406,857,cs),
(406,895,o),
(379,922,o),
(340,922,cs),
(301,922,o),
(274,895,o),
(274,857,cs)
);
},
{
closed = 1;
nodes = (
(50,819,o),
(77,792,o),
(116,792,cs),
(155,792,o),
(182,819,o),
(182,857,cs),
(182,895,o),
(155,922,o),
(116,922,cs),
(77,922,o),
(50,895,o),
(50,857,cs)
);
}
);
width = 456;
}
);
metricLeft = "=50";
metricRight = "=|";
},
{
color = (255,153,254,255);
export = 0;
glyphname = dotaccentcomb.case;
layers = (
{
anchors = (
{
name = _top;
pos = (116,700);
}
);
guides = (
{
pos = (0,778);
},
{
pos = (0,960);
}
);
layerId = "EF32B9A4-AE44-476D-9D4B-CF47E47A5F6C";
shapes = (
{
closed = 1;
nodes = (
(50,819,o),
(77,792,o),
(116,792,cs),
(155,792,o),
(182,819,o),
(182,857,cs),
(182,895,o),
(155,922,o),
(116,922,cs),
(77,922,o),
(50,895,o),
(50,857,cs)
);
}
);
width = 232;
}
);
metricLeft = "=50";
metricRight = "=|";
},
{
color = (153,255,154,255);
glyphname = information;
layers = (
{
guides = (
{
angle = 90;
pos = (318,0);
}
);
layerId = "EF32B9A4-AE44-476D-9D4B-CF47E47A5F6C";
shapes = (
{
closed = 1;
nodes = (
(70,0,l),
(70,88,l),
(212,88,l),
(212,434,l),
(102,434,l),
(102,520,l),
(306,520,l),
(306,88,l),
(448,88,l),
(448,0,l)
);
},
{
closed = 1;
nodes = (
(188,707,o),
(215,734,o),
(254,734,cs),
(293,734,o),
(320,707,o),
(320,669,cs),
(320,631,o),
(293,604,o),
(254,604,cs),
(215,604,o),
(188,631,o),
(188,669,cs)
);
}
);
width = 518;
}
);
metricLeft = O;
metricRight = O;
unicode = 8505;
},
{
color = (153,255,154,255);
glyphname = circledInformationSource;
layers = (
{
guides = (
{
pos = (0,1154);
}
);
layerId = "EF32B9A4-AE44-476D-9D4B-CF47E47A5F6C";
shapes = (
{
closed = 1;
nodes = (
(364,0,l),
(364,88,l),
(506,88,l),
(506,434,l),
(396,434,l),
(396,520,l),
(600,520,l),
(600,88,l),
(742,88,l),
(742,0,l)
);
},
{
closed = 1;
nodes = (
(988,672,ls),
(988,740,o),
(944,784,o),
(876,784,cs),
(212,784,ls),
(144,784,o),
(100,740,o),
(100,672,cs),
(100,12,ls),
(100,-56,o),
(144,-100,o),
(212,-100,cs),
(876,-100,ls),
(944,-100,o),
(988,-56,o),
(988,12,cs)
);
},
{
closed = 1;
nodes = (
(482,707,o),
(509,734,o),
(548,734,cs),
(587,734,o),
(614,707,o),
(614,669,cs),
(614,631,o),
(587,604,o),
(548,604,cs),
(509,604,o),
(482,631,o),
(482,669,cs)
);
}
);
width = 1088;
}
);
metricLeft = H;
metricRight = "=|";
unicode = 128712;
},
{
color = (153,154,255,255);
glyphname = zero;
layers = (
{
guides = (
{
pos = (0,350);
}
);
layerId = "EF32B9A4-AE44-476D-9D4B-CF47E47A5F6C";
shapes = (
{
closed = 1;
nodes = (
(70,140,o),
(181,-10,o),
(338,-10,cs),
(495,-10,o),
(606,140,o),
(606,350,cs),
(606,560,o),
(495,710,o),
(338,710,cs),
(181,710,o),
(70,560,o),
(70,350,cs)
);
},
{
closed = 1;
nodes = (
(168,514,o),
(237,622,o),
(338,622,cs),
(440,622,o),
(508,514,o),
(508,350,cs),
(508,186,o),
(440,78,o),
(338,78,cs),
(236,78,o),
(168,186,o),
(168,350,cs)
);
}
);
width = 676;
}
);
metricLeft = O;
metricRight = "=|";
unicode = 48;
},
{
color = (153,154,255,255);
glyphname = one;
layers = (
{
layerId = "EF32B9A4-AE44-476D-9D4B-CF47E47A5F6C";
shapes = (
{
closed = 1;
nodes = (
(70,0,l),
(546,0,l),
(546,86,l),
(356,86,l),
(356,700,l),
(264,700,l),
(91,589,l),
(91,487,l),
(260,596,l),
(260,86,l),
(70,86,l)
);
}
);
width = 616;
}
);
metricLeft = O;
metricRight = "=|";
unicode = 49;
},
{
color = (153,154,255,255);
glyphname = two;
layers = (
{
layerId = "EF32B9A4-AE44-476D-9D4B-CF47E47A5F6C";
shapes = (
{
closed = 1;
nodes = (
(70,0,l),
(556,0,l),
(556,86,l),
(204,86,l),
(399,284,ls),
(491,377,o),
(540,442,o),
(540,523,cs),
(540,638,o),
(441,710,o),
(292,710,cs),
(198,710,o),
(139,681,o),
(84,646,c),
(84,550,l),
(140,588,o),
(209,622,o),
(291,622,cs),
(381,622,o),
(442,581,o),
(442,515,cs),
(442,459,o),
(399,415,o),
(344,358,cs),
(70,78,l)
);
}
);
width = 626;
}
);
metricLeft = O;
metricRight = "=|";
unicode = 50;
},
{
color = (153,154,255,255);
glyphname = three;
layers = (
{
layerId = "EF32B9A4-AE44-476D-9D4B-CF47E47A5F6C";
shapes = (
{
closed = 1;
nodes = (
(70,60,l),
(128,22,o),
(208,-10,o),
(304,-10,cs),
(462,-10,o),
(566,78,o),
(566,217,cs),
(566,341,o),
(483,417,o),
(334,427,c),
(544,652,l),
(544,700,l),
(96,700,l),
(96,611,l),
(389,611,l),
(200,410,l),
(200,356,l),
(282,356,ls),
(398,356,o),
(470,305,o),
(470,218,cs),
(470,134,o),
(403,78,o),
(301,78,cs),
(211,78,o),
(121,121,o),
(70,154,c)
);
}
);
width = 636;
}
);
metricLeft = O;
metricRight = "=|";
unicode = 51;
},
{
color = (153,154,255,255);
glyphname = four;
layers = (
{
guides = (
{
pos = (0,229);
}
);
layerId = "EF32B9A4-AE44-476D-9D4B-CF47E47A5F6C";
shapes = (
{
closed = 1;
nodes = (
(70,149,l),
(450,149,l),
(450,0,l),
(546,0,l),
(546,149,l),
(666,149,l),
(666,237,l),
(546,237,l),
(546,700,l),
(412,700,l),
(70,221,l)
);
},
{
closed = 1;
nodes = (
(186,239,l),
(450,612,l),
(450,237,l),
(186,237,l)
);
}
);
width = 736;
}
);
metricLeft = O;
metricRight = "=|";
unicode = 52;
},
{
color = (153,154,255,255);
glyphname = five;
layers = (
{
layerId = "EF32B9A4-AE44-476D-9D4B-CF47E47A5F6C";
shapes = (
{
closed = 1;
nodes = (
(70,60,l),
(142,15,o),
(224,-10,o),
(305,-10,cs),
(461,-10,o),
(565,84,o),
(566,228,cs),
(567,375,o),
(460,470,o),
(292,470,cs),
(262,470,o),
(230,467,o),
(200,461,c),
(220,611,l),
(524,611,l),
(524,700,l),
(140,700,l),
(94,344,l),
(136,363,o),
(205,382,o),
(276,382,cs),
(398,382,o),
(472,326,o),
(471,230,cs),
(470,138,o),
(402,78,o),
(302,78,cs),
(232,78,o),
(143,107,o),
(70,154,c)
);
}
);
width = 637;
}
);
metricLeft = O;
metricRight = "=|";
unicode = 53;
},
{
color = (153,154,255,255);
glyphname = six;
layers = (
{
background = {
shapes = (
{
closed = 1;
nodes = (
(60,88,o),
(160,-10,o),
(311,-10,cs),
(462,-10,o),
(562,88,o),
(562,235,cs),
(562,382,o),
(462,480,o),
(311,480,cs),
(160,480,o),
(60,382,o),
(60,235,cs)
);
},
{
closed = 1;
nodes = (
(153,329,o),
(220,398,o),
(311,398,cs),
(402,398,o),
(469,329,o),
(469,235,cs),
(469,141,o),
(402,72,o),
(311,72,cs),
(220,72,o),
(153,141,o),
(153,235,cs)
);
}
);
};
layerId = "EF32B9A4-AE44-476D-9D4B-CF47E47A5F6C";
shapes = (
{
closed = 1;
nodes = (
(70,94,o),
(170,-10,o),
(321,-10,cs),
(472,-10,o),
(572,88,o),
(572,235,cs),
(572,382,o),
(472,480,o),
(321,480,cs),
(312,480,o),
(304,480,o),
(295,478,c),
(477,700,l),
(362,700,l),
(145,427,ls),
(89,356,o),
(70,300,o),
(70,237,cs)
);
},
{
closed = 1;
nodes = (
(163,329,o),
(230,398,o),
(321,398,cs),
(412,398,o),
(479,329,o),
(479,235,cs),
(479,141,o),
(412,72,o),
(321,72,cs),
(230,72,o),
(163,141,o),
(163,235,cs)
);
}
);
width = 642;
}
);
metricLeft = O;
metricRight = "=|";
unicode = 54;
},
{
color = (153,154,255,255);
glyphname = seven;
layers = (
{
layerId = "EF32B9A4-AE44-476D-9D4B-CF47E47A5F6C";
shapes = (
{
closed = 1;
nodes = (
(89,0,l),
(192,0,l),
(526,632,l),
(526,700,l),
(30,700,l),
(30,611,l),
(413,611,l)
);
}
);
width = 556;
}
);
metricLeft = A;
metricRight = "=|";
unicode = 55;
},
{
color = (153,154,255,255);
glyphname = eight;
layers = (
{
layerId = "EF32B9A4-AE44-476D-9D4B-CF47E47A5F6C";
shapes = (
{
closed = 1;
nodes = (
(70,78,o),
(170,-10,o),
(320,-10,cs),
(470,-10,o),
(570,78,o),
(570,210,cs),
(570,292,o),
(531,358,o),
(465,395,c),
(503,427,o),
(525,473,o),
(525,529,cs),
(525,637,o),
(443,710,o),
(320,710,cs),
(197,710,o),
(115,637,o),
(115,529,cs),
(115,473,o),
(137,427,o),
(175,395,c),
(109,358,o),
(70,292,o),
(70,210,cs)
);
},
{
closed = 1;
nodes = (
(163,290,o),
(230,348,o),
(320,348,cs),
(410,348,o),
(477,290,o),
(477,210,cs),
(477,130,o),
(410,72,o),
(320,72,cs),
(230,72,o),
(163,130,o),
(163,210,cs)
);
},
{
closed = 1;
nodes = (
(208,586,o),
(257,628,o),
(320,628,cs),
(383,628,o),
(432,586,o),
(432,529,cs),
(432,472,o),
(383,430,o),
(320,430,cs),
(257,430,o),
(208,472,o),
(208,529,cs)
);
}
);
width = 640;
}
);
metricLeft = O;
metricRight = "=|";
unicode = 56;
},
{
color = (153,154,255,255);
glyphname = nine;
layers = (
{
layerId = "EF32B9A4-AE44-476D-9D4B-CF47E47A5F6C";
shapes = (
{
closed = 1;
nodes = (
(572,606,o),
(472,710,o),
(321,710,cs),
(170,710,o),
(70,612,o),
(70,465,cs),
(70,318,o),
(170,220,o),
(321,220,cs),
(330,220,o),
(338,220,o),
(347,222,c),
(165,0,l),
(280,0,l),
(497,273,ls),
(553,344,o),
(572,400,o),
(572,463,cs)
);
},
{
closed = 1;
nodes = (
(479,371,o),
(412,302,o),
(321,302,cs),
(230,302,o),
(163,371,o),
(163,465,cs),
(163,559,o),
(230,628,o),
(321,628,cs),
(412,628,o),
(479,559,o),
(479,465,cs)
);
}
);
width = 642;
}
);
metricLeft = O;
metricRight = "=|";
unicode = 57;
},
{
color = (153,154,255,255);
glyphname = arrowleft;
layers = (
{
layerId = "EF32B9A4-AE44-476D-9D4B-CF47E47A5F6C";
shapes = (
{
closed = 1;
nodes = (
(326,520,l),
(94,260,l),
(326,0,l),
(444,0,l),
(251,215,l),
(620,215,l),
(620,305,l),
(251,305,l),
(444,520,l)
);
}
);
width = 720;
}
);
unicode = 8592;
},
{
color = (153,154,255,255);
glyphname = arrowup;
layers = (
{
layerId = "EF32B9A4-AE44-476D-9D4B-CF47E47A5F6C";
shapes = (
{
closed = 1;
nodes = (
(620,294,l),
(360,526,l),
(100,294,l),
(100,176,l),
(313,369,l),
(313,0,l),
(407,0,l),
(407,369,l),
(620,176,l)
);
}
);
width = 720;
}
);
unicode = 8593;
},
{
color = (153,154,255,255);
glyphname = arrowright;
layers = (
{
layerId = "EF32B9A4-AE44-476D-9D4B-CF47E47A5F6C";
shapes = (
{
closed = 1;
nodes = (
(276,520,l),
(469,305,l),
(100,305,l),
(100,215,l),
(469,215,l),
(276,0,l),
(394,0,l),
(626,260,l),
(394,520,l)
);
}
);
width = 720;
}
);
unicode = 8594;
},
{
color = (153,154,255,255);
glyphname = arrowdown;
layers = (
{
layerId = "EF32B9A4-AE44-476D-9D4B-CF47E47A5F6C";
shapes = (
{
closed = 1;
nodes = (
(620,232,l),
(360,0,l),
(100,232,l),
(100,350,l),
(313,157,l),
(313,526,l),
(407,526,l),
(407,157,l),
(620,350,l)
);
}
);
width = 720;
}
);
unicode = 8595;
},
{
color = (153,154,255,255);
glyphname = arrowboth;
layers = (
{
layerId = "EF32B9A4-AE44-476D-9D4B-CF47E47A5F6C";
shapes = (
{
closed = 1;
nodes = (
(996,260,l),
(764,0,l),
(646,0,l),
(839,215,l),
(251,215,l),
(444,0,l),
(326,0,l),
(94,260,l),
(326,520,l),
(444,520,l),
(251,305,l),
(839,305,l),
(646,520,l),
(764,520,l)
);
}
);
width = 1090;
}
);
metricLeft = "=94";
metricRight = "=|";
unicode = 8596;
},
{
color = (153,154,255,255);
glyphname = arrowleft.case;
layers = (
{
layerId = "EF32B9A4-AE44-476D-9D4B-CF47E47A5F6C";
shapes = (
{
closed = 1;
nodes = (
(326,623,l),
(94,363,l),
(326,103,l),
(444,103,l),
(251,318,l),
(620,318,l),
(620,408,l),
(251,408,l),
(444,623,l)
);
}
);
width = 720;
}
);
},
{
color = (153,154,255,255);
glyphname = arrowup.case;
layers = (
{
layerId = "EF32B9A4-AE44-476D-9D4B-CF47E47A5F6C";
shapes = (
{
closed = 1;
nodes = (
(620,397,l),
(360,629,l),
(100,397,l),
(100,278,l),
(313,469,l),
(313,103,l),
(407,103,l),
(407,469,l),
(620,278,l)
);
}
);
width = 720;
}
);
},
{
color = (153,154,255,255);
glyphname = arrowright.case;
layers = (
{
layerId = "EF32B9A4-AE44-476D-9D4B-CF47E47A5F6C";
shapes = (
{
closed = 1;
nodes = (
(276,623,l),
(469,408,l),
(100,408,l),
(100,318,l),
(469,318,l),
(276,103,l),
(394,103,l),
(626,363,l),
(394,623,l)
);
}
);
width = 720;
}
);
},
{
color = (153,154,255,255);
glyphname = arrowdown.case;
layers = (
{
layerId = "EF32B9A4-AE44-476D-9D4B-CF47E47A5F6C";
shapes = (
{
closed = 1;
nodes = (
(620,335,l),
(360,103,l),
(100,335,l),
(100,454,l),
(313,263,l),
(313,629,l),
(407,629,l),
(407,263,l),
(620,454,l)
);
}
);
width = 720;
}
);
},
{
color = (153,154,255,255);
glyphname = arrowboth.case;
layers = (
{
layerId = "EF32B9A4-AE44-476D-9D4B-CF47E47A5F6C";
shapes = (
{
closed = 1;
nodes = (
(764,623,l),
(996,363,l),
(764,103,l),
(646,103,l),
(839,318,l),
(251,318,l),
(444,103,l),
(326,103,l),
(94,363,l),
(326,623,l),
(444,623,l),
(251,408,l),
(839,408,l),
(646,623,l)
);
}
);
width = 1090;
}
);
metricLeft = "=94";
metricRight = "=|";
},
{
color = (153,154,255,255);
glyphname = exclam;
layers = (
{
layerId = "EF32B9A4-AE44-476D-9D4B-CF47E47A5F6C";
shapes = (
{
closed = 1;
nodes = (
(50,26,o),
(82,-6,o),
(126,-6,cs),
(170,-6,o),
(202,26,o),
(202,69,cs),
(202,112,o),
(170,144,o),
(126,144,cs),
(82,144,o),
(50,112,o),
(50,69,cs)
);
},
{
closed = 1;
nodes = (
(63,700,l),
(83,194,l),
(169,194,l),
(189,700,l)
);
}
);
width = 252;
}
);
metricLeft = period;
metricRight = "=|";
unicode = 33;
},
{
color = (153,154,255,255);
glyphname = quotedbl;
layers = (
{
layerId = "EF32B9A4-AE44-476D-9D4B-CF47E47A5F6C";
shapes = (
{
closed = 1;
nodes = (
(50,432,l),
(130,432,l),
(130,700,l),
(50,700,l)
);
},
{
closed = 1;
nodes = (
(216,432,l),
(296,432,l),
(296,700,l),
(216,700,l)
);
}
);
width = 346;
}
);
metricLeft = period;
metricRight = "=|";
unicode = 34;
},
{
color = (153,154,255,255);
glyphname = numbersign;
layers = (
{
guides = (
{
angle = 79.824;
pos = (35,182);
},
{
angle = 79.824;
pos = (663,182);
}
);
layerId = "EF32B9A4-AE44-476D-9D4B-CF47E47A5F6C";
shapes = (
{
closed = 1;
nodes = (
(484,0,l),
(516,182,l),
(663,182,l),
(677,260,l),
(530,260,l),
(562,440,l),
(709,440,l),
(723,518,l),
(576,518,l),
(608,700,l),
(523,700,l),
(491,518,l),
(314,518,l),
(347,700,l),
(262,700,l),
(229,518,l),
(95,518,l),
(81,440,l),
(214,440,l),
(182,260,l),
(49,260,l),
(35,182,l),
(167,182,l),
(134,0,l),
(219,0,l),
(252,182,l),
(431,182,l),
(399,0,l)
);
},
{
closed = 1;
nodes = (
(267,260,l),
(299,440,l),
(477,440,l),
(445,260,l)
);
}
);
width = 758;
}
);
metricLeft = "=O/2";
metricRight = "=O/2";
unicode = 35;
},
{
color = (153,154,255,255);
glyphname = percent;
layers = (
{
layerId = "EF32B9A4-AE44-476D-9D4B-CF47E47A5F6C";
shapes = (
{
closed = 1;
nodes = (
(451,54,o),
(517,-10,o),
(616,-10,cs),
(715,-10,o),
(781,54,o),
(781,152,cs),
(781,248,o),
(715,312,o),
(616,312,cs),
(517,312,o),
(451,248,o),
(451,152,cs)
);
},
{
closed = 1;
nodes = (
(35,452,o),
(101,388,o),
(200,388,cs),
(299,388,o),
(365,452,o),
(365,550,cs),
(365,646,o),
(299,710,o),
(200,710,cs),
(101,710,o),
(35,646,o),
(35,550,cs)
);
},
{
closed = 1;
nodes = (
(158,0,l),
(562,700,l),
(658,700,l),
(254,0,l)
);
},
{
closed = 1;
nodes = (
(531,206,o),
(565,242,o),
(616,242,cs),
(667,242,o),
(701,206,o),
(701,151,cs),
(701,96,o),
(667,60,o),
(616,60,cs),
(565,60,o),
(531,96,o),
(531,151,cs)
);
},
{
closed = 1;
nodes = (
(115,604,o),
(149,640,o),
(200,640,cs),
(251,640,o),
(285,604,o),
(285,549,cs),
(285,494,o),
(251,458,o),
(200,458,cs),
(149,458,o),
(115,494,o),
(115,549,cs)
);
}
);
width = 816;
}
);
metricLeft = "=O/2";
metricRight = "=|";
unicode = 37;
},
{
color = (153,154,255,255);
glyphname = ampersand;
lastChange = "2025-06-11 20:56:11 +0000";
layers = (
{
layerId = "EF32B9A4-AE44-476D-9D4B-CF47E47A5F6C";
shapes = (
{
closed = 1;
nodes = (
(359,358,ls),
(276,436,o),
(237,480,o),
(237,530,cs),
(237,587,o),
(286,622,o),
(367,622,cs),
(421,622,o),
(481,606,o),
(534,574,c),
(534,670,l),
(483,697,o),
(426,710,o),
(365,710,cs),
(226,710,o),
(143,643,o),
(143,536,cs),
(143,458,o),
(187,404,o),
(290,307,cs),
(614,0,l),
(737,0,l)
);
},
{
closed = 1;
nodes = (
(125,359,o),
(60,280,o),
(60,183,cs),
(60,67,o),
(153,-10,o),
(300,-10,cs),
(483,-10,o),
(612,110,o),
(721,377,c),
(624,377,l),
(541,171,o),
(429,76,o),
(302,76,cs),
(213,76,o),
(158,123,o),
(158,193,cs),
(158,257,o),
(203,312,o),
(295,345,c),
(255,408,l)
);
}
);
width = 787;
}
);
metricLeft = "=O-10";
metricRight = "=|-10";
unicode = 38;
},
{
color = (153,154,255,255);
glyphname = quotesingle;
layers = (
{
layerId = "EF32B9A4-AE44-476D-9D4B-CF47E47A5F6C";
shapes = (
{
closed = 1;
nodes = (
(50,432,l),
(130,432,l),
(130,700,l),
(50,700,l)
);
}
);
width = 180;
}
);
metricLeft = period;
metricRight = "=|";
unicode = 39;
},
{
color = (153,154,255,255);
glyphname = asterisk;
layers = (
{
layerId = "EF32B9A4-AE44-476D-9D4B-CF47E47A5F6C";
shapes = (
{
closed = 1;
nodes = (
(182,332,l),
(250,332,l),
(246,465,l),
(363,393,l),
(397,460,l),
(278,515,l),
(397,587,l),
(363,638,l),
(246,566,l),
(250,700,l),
(182,700,l),
(186,566,l),
(69,638,l),
(35,579,l),
(154,515,l),
(35,452,l),
(69,393,l),
(186,465,l)
);
}
);
width = 432;
}
);
metricLeft = "=O/2";
metricRight = "=O/2";
unicode = 42;
},
{
color = (153,154,255,255);
glyphname = comma;
layers = (
{
guides = (
{
pos = (0,118);
}
);
layerId = "EF32B9A4-AE44-476D-9D4B-CF47E47A5F6C";
shapes = (
{
closed = 1;
nodes = (
(10,-130,l),
(86,-130,l),
(194,140,l),
(84,140,l)
);
}
);
width = 234;
}
);
metricLeft = "=10";
metricRight = "=period-10";
unicode = 44;
},
{
color = (153,154,255,255);
glyphname = slash;
layers = (
{
layerId = "EF32B9A4-AE44-476D-9D4B-CF47E47A5F6C";
shapes = (
{
closed = 1;
nodes = (
(94,-136,l),
(520,750,l),
(420,750,l),
(-6,-136,l)
);
}
);
width = 520;
}
);
metricRight = "=0";
unicode = 47;
},
{
color = (153,154,255,255);
glyphname = colon;
layers = (
{
layerId = "EF32B9A4-AE44-476D-9D4B-CF47E47A5F6C";
shapes = (
{
closed = 1;
nodes = (
(50,26,o),
(82,-6,o),
(126,-6,cs),
(170,-6,o),
(202,26,o),
(202,69,cs),
(202,112,o),
(170,144,o),
(126,144,cs),
(82,144,o),
(50,112,o),
(50,69,cs)
);
},
{
closed = 1;
nodes = (
(51,422,o),
(83,390,o),
(127,390,cs),
(171,390,o),
(203,422,o),
(203,465,cs),
(203,508,o),
(171,540,o),
(127,540,cs),
(83,540,o),
(51,508,o),
(51,465,cs)
);
}
);
width = 253;
}
);
metricLeft = period;
metricRight = period;
unicode = 58;
},
{
color = (153,154,255,255);
glyphname = semicolon;
layers = (
{
layerId = "EF32B9A4-AE44-476D-9D4B-CF47E47A5F6C";
shapes = (
{
closed = 1;
nodes = (
(75,422,o),
(107,390,o),
(151,390,cs),
(195,390,o),
(227,422,o),
(227,465,cs),
(227,508,o),
(195,540,o),
(151,540,cs),
(107,540,o),
(75,508,o),
(75,465,cs)
);
},
{
closed = 1;
nodes = (
(10,-130,l),
(86,-130,l),
(194,140,l),
(84,140,l)
);
}
);
width = 263;
}
);
metricLeft = comma;
metricRight = "=comma-4";
unicode = 59;
},
{
color = (153,154,255,255);
glyphname = ellipsis;
layers = (
{
guides = (
{
pos = (0,-41);
},
{
pos = (0,141);
},
{
pos = (0,-41);
},
{
pos = (0,141);
},
{
pos = (0,-41);
},
{
pos = (0,141);
}
);
layerId = "EF32B9A4-AE44-476D-9D4B-CF47E47A5F6C";
shapes = (
{
closed = 1;
nodes = (
(50,26,o),
(82,-6,o),
(126,-6,cs),
(170,-6,o),
(202,26,o),
(202,69,cs),
(202,112,o),
(170,144,o),
(126,144,cs),
(82,144,o),
(50,112,o),
(50,69,cs)
);
},
{
closed = 1;
nodes = (
(322,26,o),
(354,-6,o),
(398,-6,cs),
(442,-6,o),
(474,26,o),
(474,69,cs),
(474,112,o),
(442,144,o),
(398,144,cs),
(354,144,o),
(322,112,o),
(322,69,cs)
);
},
{
closed = 1;
nodes = (
(594,26,o),
(626,-6,o),
(670,-6,cs),
(714,-6,o),
(746,26,o),
(746,69,cs),
(746,112,o),
(714,144,o),
(670,144,cs),
(626,144,o),
(594,112,o),
(594,69,cs)
);
}
);
width = 796;
}
);
metricLeft = o;
metricRight = o;
unicode = 8230;
},
{
color = (153,154,255,255);
glyphname = question;
layers = (
{
guides = (
{
angle = 90;
pos = (200,0);
}
);
layerId = "EF32B9A4-AE44-476D-9D4B-CF47E47A5F6C";
shapes = (
{
closed = 1;
nodes = (
(124,26,o),
(156,-6,o),
(200,-6,cs),
(244,-6,o),
(276,26,o),
(276,69,cs),
(276,112,o),
(244,144,o),
(200,144,cs),
(156,144,o),
(124,112,o),
(124,69,cs)
);
},
{
closed = 1;
nodes = (
(246,194,l),
(246,234,ls),
(246,405,o),
(437,373,o),
(437,537,cs),
(437,648,o),
(349,710,o),
(214,710,cs),
(137,710,o),
(80,690,o),
(35,660,c),
(35,564,l),
(82,593,o),
(143,622,o),
(209,622,cs),
(288,622,o),
(339,581,o),
(339,530,cs),
(339,433,o),
(154,449,o),
(154,234,cs),
(154,194,l)
);
}
);
width = 472;
}
);
metricLeft = "=O/2";
metricRight = "=O/2";
unicode = 63;
},
{
color = (153,154,255,255);
glyphname = at;
layers = (
{
layerId = "EF32B9A4-AE44-476D-9D4B-CF47E47A5F6C";
shapes = (
{
closed = 1;
nodes = (
(673,474,l),
(609,474,l),
(601,424,l),
(600,424,l),
(564,460,o),
(515,482,o),
(454,482,cs),
(338,482,o),
(259,396,o),
(259,266,cs),
(259,136,o),
(338,50,o),
(454,50,cs),
(522,50,o),
(576,78,o),
(612,122,c),
(632,72,o),
(675,50,o),
(727,50,cs),
(852,50,o),
(873,172,o),
(873,260,cs),
(873,518,o),
(712,673,o),
(472,673,cs),
(231,673,o),
(70,506,o),
(70,264,cs),
(70,22,o),
(231,-145,o),
(471,-145,cs),
(548,-145,o),
(616,-128,o),
(673,-96,c),
(673,-20,l),
(620,-53,o),
(550,-77,o),
(471,-77,cs),
(279,-77,o),
(146,64,o),
(146,264,cs),
(146,464,o),
(278,605,o),
(472,605,cs),
(665,605,o),
(797,478,o),
(797,263,cs),
(797,168,o),
(779,118,o),
(729,118,cs),
(695,118,o),
(673,140,o),
(673,203,cs)
);
},
{
closed = 1;
nodes = (
(336,358,o),
(390,414,o),
(471,414,cs),
(555,414,o),
(605,350,o),
(605,266,cs),
(605,182,o),
(555,118,o),
(471,118,cs),
(390,118,o),
(336,174,o),
(336,266,cs)
);
}
);
width = 943;
}
);
metricLeft = O;
metricRight = O;
unicode = 64;
},
{
color = (153,154,255,255);
glyphname = at.case;
layers = (
{
layerId = "EF32B9A4-AE44-476D-9D4B-CF47E47A5F6C";
shapes = (
{
closed = 1;
nodes = (
(673,536,l),
(609,536,l),
(601,486,l),
(600,486,l),
(564,522,o),
(515,544,o),
(454,544,cs),
(338,544,o),
(259,458,o),
(259,328,cs),
(259,198,o),
(338,112,o),
(454,112,cs),
(522,112,o),
(576,140,o),
(612,184,c),
(632,134,o),
(675,112,o),
(727,112,cs),
(852,112,o),
(873,234,o),
(873,322,cs),
(873,580,o),
(712,735,o),
(472,735,cs),
(231,735,o),
(70,568,o),
(70,326,cs),
(70,84,o),
(231,-83,o),
(471,-83,cs),
(548,-83,o),
(616,-66,o),
(673,-34,c),
(673,42,l),
(620,9,o),
(550,-15,o),
(471,-15,cs),
(279,-15,o),
(146,126,o),
(146,326,cs),
(146,526,o),
(278,667,o),
(472,667,cs),
(665,667,o),
(797,540,o),
(797,325,cs),
(797,230,o),
(779,180,o),
(729,180,cs),
(695,180,o),
(673,202,o),
(673,265,cs)
);
},
{
closed = 1;
nodes = (
(336,420,o),
(390,476,o),
(471,476,cs),
(555,476,o),
(605,412,o),
(605,328,cs),
(605,244,o),
(555,180,o),
(471,180,cs),
(390,180,o),
(336,236,o),
(336,328,cs)
);
}
);
width = 943;
}
);
metricLeft = O;
metricRight = O;
},
{
color = (153,154,255,255);
glyphname = backslash;
layers = (
{
layerId = "EF32B9A4-AE44-476D-9D4B-CF47E47A5F6C";
shapes = (
{
closed = 1;
nodes = (
(426,-136,l),
(0,750,l),
(99,750,l),
(525,-136,l)
);
}
);
width = 519;
}
);
metricLeft = "=0";
unicode = 92;
},
{
color = (153,154,255,255);
glyphname = exclamdown;
layers = (
{
layerId = "EF32B9A4-AE44-476D-9D4B-CF47E47A5F6C";
shapes = (
{
closed = 1;
nodes = (
(37,588,o),
(69,556,o),
(113,556,cs),
(157,556,o),
(189,588,o),
(189,631,cs),
(189,674,o),
(157,706,o),
(113,706,cs),
(69,706,o),
(37,674,o),
(37,631,cs)
);
},
{
closed = 1;
nodes = (
(176,0,l),
(156,506,l),
(70,506,l),
(50,0,l)
);
}
);
width = 226;
}
);
unicode = 161;
},
{
color = (153,154,255,255);
glyphname = periodcentered;
layers = (
{
layerId = "EF32B9A4-AE44-476D-9D4B-CF47E47A5F6C";
shapes = (
{
closed = 1;
nodes = (
(50,244,o),
(82,212,o),
(126,212,cs),
(170,212,o),
(202,244,o),
(202,287,cs),
(202,330,o),
(170,362,o),
(126,362,cs),
(82,362,o),
(50,330,o),
(50,287,cs)
);
}
);
width = 252;
}
);
metricLeft = period;
metricRight = "=|";
unicode = 183;
},
{
color = (153,154,255,255);
glyphname = questiondown;
layers = (
{
layerId = "EF32B9A4-AE44-476D-9D4B-CF47E47A5F6C";
shapes = (
{
closed = 1;
nodes = (
(348,678,o),
(316,710,o),
(272,710,cs),
(228,710,o),
(196,678,o),
(196,635,cs),
(196,592,o),
(228,560,o),
(272,560,cs),
(316,560,o),
(348,592,o),
(348,635,cs)
);
},
{
closed = 1;
nodes = (
(226,510,l),
(226,470,ls),
(226,299,o),
(35,331,o),
(35,167,cs),
(35,56,o),
(123,-6,o),
(258,-6,cs),
(335,-6,o),
(392,14,o),
(437,44,c),
(437,140,l),
(390,111,o),
(329,82,o),
(263,82,cs),
(184,82,o),
(133,123,o),
(133,174,cs),
(133,271,o),
(318,255,o),
(318,470,cs),
(318,510,l)
);
}
);
width = 472;
}
);
metricLeft = question;
metricRight = question;
unicode = 191;
},
{
color = (153,154,255,255);
glyphname = toilet;
layers = (
{
guides = (
{
angle = 90;
pos = (336,0);
},
{
angle = 90;
pos = (78,0);
},
{
pos = (0,296);
}
);
layerId = "EF32B9A4-AE44-476D-9D4B-CF47E47A5F6C";
shapes = (
{
closed = 1;
nodes = (
(163,415,o),
(236,340,o),
(336,340,cs),
(436,340,o),
(509,415,o),
(509,524,cs),
(509,633,o),
(436,712,o),
(336,712,cs),
(236,712,o),
(163,633,o),
(163,524,cs)
);
},
{
closed = 1;
nodes = (
(576,216,ls),
(588,216,o),
(594,210,o),
(594,198,cs),
(594,160,ls),
(594,137,o),
(584,117,o),
(564,104,cs),
(508,68,o),
(474,4,o),
(474,-48,cs),
(474,-76,ls),
(474,-92,o),
(466,-100,o),
(450,-100,cs),
(222,-100,ls),
(206,-100,o),
(198,-92,o),
(198,-76,cs),
(198,-48,ls),
(198,4,o),
(164,68,o),
(108,104,cs),
(88,117,o),
(78,137,o),
(78,160,cs),
(78,198,ls),
(78,210,o),
(84,216,o),
(96,216,cs)
);
},
{
closed = 1;
nodes = (
(132,264,l),
(92,364,o),
(70,449,o),
(70,524,cs),
(70,686,o),
(176,794,o),
(336,794,cs),
(496,794,o),
(602,686,o),
(602,524,cs),
(602,449,o),
(580,364,o),
(540,264,c)
);
}
);
width = 672;
}
);
metricLeft = O;
metricRight = O;
unicode = 128701;
},
{
glyphname = man;
layers = (
{
layerId = "EF32B9A4-AE44-476D-9D4B-CF47E47A5F6C";
shapes = (
{
closed = 1;
nodes = (
(242,676,o),
(274,644,o),
(318,644,cs),
(362,644,o),
(394,676,o),
(394,719,cs),
(394,762,o),
(362,794,o),
(318,794,cs),
(274,794,o),
(242,762,o),
(242,719,cs)
);
},
{
closed = 1;
nodes = (
(294,240,ls),
(294,245,o),
(297,248,o),
(302,248,cs),
(334,248,ls),
(339,248,o),
(342,245,o),
(342,240,cs),
(342,-63,ls),
(342,-90,o),
(362,-110,o),
(390,-110,cs),
(418,-110,o),
(438,-90,o),
(438,-63,cs),
(438,496,ls),
(438,510,o),
(444,518,o),
(456,518,cs),
(468,518,o),
(474,510,o),
(474,496,cs),
(474,293,ls),
(474,267,o),
(493,248,o),
(520,248,cs),
(547,248,o),
(566,267,o),
(566,293,cs),
(566,497,ls),
(566,566,o),
(522,608,o),
(454,608,cs),
(182,608,ls),
(114,608,o),
(70,566,o),
(70,497,cs),
(70,293,ls),
(70,267,o),
(89,248,o),
(116,248,cs),
(143,248,o),
(162,267,o),
(162,293,cs),
(162,496,ls),
(162,510,o),
(168,518,o),
(180,518,cs),
(192,518,o),
(198,510,o),
(198,496,cs),
(198,-63,ls),
(198,-90,o),
(218,-110,o),
(246,-110,cs),
(274,-110,o),
(294,-90,o),
(294,-63,cs)
);
}
);
width = 636;
}
);
metricLeft = O;
metricRight = O;
unicode = 128104;
},
{
glyphname = girl;
layers = (
{
guides = (
{
pos = (0,648);
},
{
pos = (0,830);
},
{
pos = (0,609);
},
{
pos = (0,791);
},
{
angle = 90;
pos = (367,0);
}
);
layerId = "EF32B9A4-AE44-476D-9D4B-CF47E47A5F6C";
shapes = (
{
closed = 1;
nodes = (
(223,476,o),
(255,444,o),
(299,444,cs),
(343,444,o),
(375,476,o),
(375,519,cs),
(375,562,o),
(343,594,o),
(299,594,cs),
(255,594,o),
(223,562,o),
(223,519,cs)
);
},
{
closed = 1;
nodes = (
(285,5,ls),
(285,10,o),
(288,13,o),
(293,13,cs),
(305,13,ls),
(310,13,o),
(313,10,o),
(313,5,cs),
(313,-65,ls),
(313,-91,o),
(332,-110,o),
(359,-110,cs),
(386,-110,o),
(405,-91,o),
(405,-65,cs),
(405,13,l),
(475,13,l),
(366,297,ls),
(363,305,o),
(364,318,o),
(378,318,cs),
(385,318,o),
(390,315,o),
(395,302,cs),
(449,166,ls),
(459,140,o),
(485,131,o),
(506,141,cs),
(526,151,o),
(534,173,o),
(525,195,cs),
(483,297,ls),
(455,364,o),
(438,408,o),
(371,408,cs),
(228,408,ls),
(161,408,o),
(144,364,o),
(116,297,cs),
(74,195,ls),
(65,173,o),
(73,151,o),
(93,141,cs),
(114,131,o),
(140,140,o),
(150,166,cs),
(204,302,ls),
(209,315,o),
(214,318,o),
(221,318,cs),
(235,318,o),
(236,305,o),
(233,297,cs),
(123,13,l),
(193,13,l),
(193,-65,ls),
(193,-91,o),
(212,-110,o),
(239,-110,cs),
(266,-110,o),
(285,-91,o),
(285,-65,cs)
);
}
);
width = 599;
}
);
metricLeft = O;
metricRight = O;
unicode = 128103;
},
{
glyphname = Aiecyr;
kernLeft = Aiecyr1;
kernRight = E2;
layers = (
{
layerId = "EF32B9A4-AE44-476D-9D4B-CF47E47A5F6C";
shapes = (
{
closed = 1;
nodes = (
(380,706,l),
(-10,6,l),
(90,6,l),
(195,195,l),
(427,195,l),
(427,6,l),
(877,6,l),
(877,96,l),
(523,96,l),
(523,322,l),
(812,322,l),
(812,412,l),
(523,412,l),
(523,616,l),
(865,616,l),
(865,706,l)
);
},
{
closed = 1;
nodes = (
(245,286,l),
(427,615,l),
(427,286,l)
);
}
);
width = 927;
}
);
metricLeft = "=А-40";
metricRight = Iecyr;
unicode = 1236;
},
{
glyphname = aiecyr;
kernLeft = a1;
kernRight = e2;
layers = (
{
layerId = "EF32B9A4-AE44-476D-9D4B-CF47E47A5F6C";
shapes = (
{
closed = 1;
nodes = (
(192,530,o),
(143,514,o),
(95,487,c),
(95,404,l),
(141,429,o),
(190,446,o),
(256,446,cs),
(334,446,o),
(389,422,o),
(396,311,c),
(271,311,ls),
(107,311,o),
(45,253,o),
(45,153,cs),
(45,57,o),
(102,-10,o),
(238,-10,cs),
(333,-10,o),
(404,32,o),
(446,105,c),
(492,33,o),
(570,-10,o),
(672,-10,cs),
(712,-10,o),
(785,-4,o),
(851,30,c),
(851,111,l),
(805,87,o),
(749,72,o),
(687,72,cs),
(568,72,o),
(502,125,o),
(492,231,c),
(875,231,l),
(875,270,ls),
(875,431,o),
(791,530,o),
(654,530,cs),
(560,530,o),
(482,489,o),
(455,413,c),
(430,490,o),
(358,530,o),
(258,530,cs)
);
},
{
closed = 1;
nodes = (
(397,231,l),
(397,211,ls),
(397,101,o),
(300,70,o),
(237,70,cs),
(164,70,o),
(138,110,o),
(138,154,cs),
(138,200,o),
(169,231,o),
(281,231,cs)
);
},
{
closed = 1;
nodes = (
(496,311,l),
(512,396,o),
(569,448,o),
(651,448,cs),
(725,448,o),
(772,396,o),
(779,311,c)
);
}
);
width = 925;
}
);
metricLeft = acyr;
metricRight = iecyr;
unicode = 1237;
},
{
glyphname = AE;
kernLeft = Aiecyr1;
kernRight = E2;
layers = (
{
anchors = (
{
name = top;
pos = (960,700);
}
);
layerId = "EF32B9A4-AE44-476D-9D4B-CF47E47A5F6C";
shapes = (
{
closed = 1;
nodes = (
(380,706,l),
(-10,6,l),
(90,6,l),
(195,195,l),
(427,195,l),
(427,6,l),
(877,6,l),
(877,96,l),
(523,96,l),
(523,322,l),
(812,322,l),
(812,412,l),
(523,412,l),
(523,616,l),
(865,616,l),
(865,706,l)
);
},
{
closed = 1;
nodes = (
(245,286,l),
(427,615,l),
(427,286,l)
);
}
);
width = 927;
}
);
metricLeft = "=А-40";
metricRight = Iecyr;
unicode = 198;
},
{
glyphname = ae;
kernLeft = a1;
kernRight = a2;
layers = (
{
layerId = "EF32B9A4-AE44-476D-9D4B-CF47E47A5F6C";
shapes = (
{
closed = 1;
nodes = (
(192,530,o),
(143,514,o),
(95,487,c),
(95,404,l),
(141,429,o),
(190,446,o),
(256,446,cs),
(334,446,o),
(389,422,o),
(396,311,c),
(271,311,ls),
(107,311,o),
(45,253,o),
(45,153,cs),
(45,57,o),
(102,-10,o),
(238,-10,cs),
(333,-10,o),
(404,32,o),
(446,105,c),
(492,33,o),
(570,-10,o),
(672,-10,cs),
(712,-10,o),
(785,-4,o),
(851,30,c),
(851,111,l),
(805,87,o),
(749,72,o),
(687,72,cs),
(568,72,o),
(502,125,o),
(492,231,c),
(875,231,l),
(875,270,ls),
(875,431,o),
(791,530,o),
(654,530,cs),
(560,530,o),
(482,489,o),
(455,413,c),
(430,490,o),
(358,530,o),
(258,530,cs)
);
},
{
closed = 1;
nodes = (
(397,231,l),
(397,211,ls),
(397,101,o),
(300,70,o),
(237,70,cs),
(164,70,o),
(138,110,o),
(138,154,cs),
(138,200,o),
(169,231,o),
(281,231,cs)
);
},
{
closed = 1;
nodes = (
(496,311,l),
(512,396,o),
(569,448,o),
(651,448,cs),
(725,448,o),
(772,396,o),
(779,311,c)
);
}
);
width = 925;
}
);
metricLeft = acyr;
metricRight = iecyr;
unicode = 230;
},
{
glyphname = Obarcyr;
kernLeft = O1;
kernRight = O2;
layers = (
{
anchors = (
{
name = top;
pos = (438,700);
}
);
layerId = "EF32B9A4-AE44-476D-9D4B-CF47E47A5F6C";
shapes = (
{
closed = 1;
nodes = (
(70,138,o),
(214,-10,o),
(428,-10,cs),
(642,-10,o),
(786,138,o),
(786,350,cs),
(786,562,o),
(642,710,o),
(428,710,cs),
(214,710,o),
(70,562,o),
(70,350,cs)
);
},
{
closed = 1;
nodes = (
(290,78,o),
(190,168,o),
(171,302,c),
(685,302,l),
(666,168,o),
(566,78,o),
(428,78,cs)
);
},
{
closed = 1;
nodes = (
(171,392,l),
(188,529,o),
(288,622,o),
(428,622,cs),
(568,622,o),
(668,529,o),
(685,392,c)
);
}
);
width = 856;
}
);
metricLeft = Ocyr;
metricRight = Ocyr;
unicode = 1256;
},
{
glyphname = obarcyr;
kernLeft = o1;
kernRight = o2;
layers = (
{
anchors = (
{
name = top;
pos = (316,520);
}
);
layerId = "EF32B9A4-AE44-476D-9D4B-CF47E47A5F6C";
shapes = (
{
closed = 1;
nodes = (
(50,100,o),
(158,-10,o),
(316,-10,cs),
(474,-10,o),
(582,100,o),
(582,260,cs),
(582,420,o),
(474,530,o),
(316,530,cs),
(158,530,o),
(50,420,o),
(50,260,cs)
);
},
{
closed = 1;
nodes = (
(224,72,o),
(160,131,o),
(146,222,c),
(486,222,l),
(472,131,o),
(408,72,o),
(316,72,cs)
);
},
{
closed = 1;
nodes = (
(146,302,l),
(161,391,o),
(226,448,o),
(316,448,cs),
(406,448,o),
(471,391,o),
(486,302,c)
);
}
);
width = 632;
}
);
metricLeft = ocyr;
metricRight = ocyr;
unicode = 1257;
},
{
glyphname = Gestrokecyr;
kernLeft = Gestokecyr1;
kernRight = Gestokecyr2;
layers = (
{
layerId = "EF32B9A4-AE44-476D-9D4B-CF47E47A5F6C";
shapes = (
{
closed = 1;
nodes = (
(169,700,l),
(169,386,l),
(100,386,l),
(100,296,l),
(169,296,l),
(169,0,l),
(265,0,l),
(265,296,l),
(485,296,l),
(485,386,l),
(265,386,l),
(265,610,l),
(633,610,l),
(633,700,l)
);
}
);
width = 673;
}
);
metricLeft = Gecyr;
metricRight = Gecyr;
unicode = 1170;
},
{
glyphname = gestrokecyr;
kernLeft = gestokecyr1;
kernRight = gestokecyr2;
layers = (
{
layerId = "EF32B9A4-AE44-476D-9D4B-CF47E47A5F6C";
shapes = (
{
closed = 1;
nodes = (
(150,0,l),
(242,0,l),
(242,200,l),
(394,200,l),
(394,286,l),
(242,286,l),
(242,434,l),
(526,434,l),
(526,520,l),
(150,520,l),
(150,286,l),
(85,286,l),
(85,200,l),
(150,200,l)
);
}
);
width = 561;
}
);
metricLeft = gecyr;
metricRight = gecyr;
unicode = 1171;
},
{
glyphname = Katailcyr;
kernLeft = H1;
kernRight = Katailcyr2;
layers = (
{
layerId = "EF32B9A4-AE44-476D-9D4B-CF47E47A5F6C";
shapes = (
{
closed = 1;
nodes = (
(100,700,l),
(100,0,l),
(196,0,l),
(196,313,l),
(336,313,l),
(336,315,l),
(563,0,l),
(606,0,l),
(606,-150,l),
(696,-150,l),
(696,90,l),
(610,90,l),
(411,363,l),
(645,700,l),
(539,700,l),
(330,403,l),
(196,403,l),
(196,700,l)
);
}
);
width = 691;
}
);
metricLeft = Kacyr;
metricRight = "=К-15";
unicode = 1178;
},
{
glyphname = katailcyr;
kernLeft = n1;
kernRight = katailcyr2;
layers = (
{
layerId = "EF32B9A4-AE44-476D-9D4B-CF47E47A5F6C";
shapes = (
{
closed = 1;
nodes = (
(85,0,l),
(179,0,l),
(179,230,l),
(273,230,l),
(455,0,l),
(495,0,l),
(495,-130,l),
(583,-130,l),
(583,86,l),
(495,86,l),
(342,278,l),
(525,520,l),
(420,520,l),
(267,316,l),
(179,316,l),
(179,520,l),
(85,520,l)
);
}
);
width = 588;
}
);
metricLeft = kacyr;
metricRight = "=к-20";
unicode = 1179;
},
{
glyphname = Entailcyr;
kernLeft = H1;
kernRight = Decyr2;
layers = (
{
layerId = "EF32B9A4-AE44-476D-9D4B-CF47E47A5F6C";
shapes = (
{
closed = 1;
nodes = (
(100,700,l),
(100,0,l),
(196,0,l),
(196,318,l),
(600,318,l),
(600,0,l),
(690,0,l),
(690,-150,l),
(780,-150,l),
(780,90,l),
(696,90,l),
(696,700,l),
(600,700,l),
(600,408,l),
(196,408,l),
(196,700,l)
);
}
);
width = 880;
}
);
metricLeft = H;
metricRight = H;
unicode = 1186;
},
{
glyphname = entailcyr;
kernLeft = n1;
kernRight = decyr2;
layers = (
{
layerId = "EF32B9A4-AE44-476D-9D4B-CF47E47A5F6C";
shapes = (
{
closed = 1;
nodes = (
(469,0,l),
(543,0,l),
(543,-130,l),
(631,-130,l),
(631,86,l),
(561,86,l),
(561,520,l),
(469,520,l),
(469,316,l),
(177,316,l),
(177,520,l),
(85,520,l),
(85,0,l),
(177,0,l),
(177,230,l),
(469,230,l)
);
}
);
width = 666;
}
);
metricLeft = encyr;
metricRight = decyr;
unicode = 1187;
},
{
glyphname = Ustraightcyr;
kernLeft = Y1;
kernRight = Y2;
layers = (
{
guides = (
{
angle = 90;
pos = (-722,0);
}
);
layerId = "EF32B9A4-AE44-476D-9D4B-CF47E47A5F6C";
shapes = (
{
closed = 1;
nodes = (
(262,0,l),
(358,0,l),
(358,324,l),
(596,700,l),
(493,700,l),
(310,412,l),
(129,700,l),
(25,700,l),
(262,318,l)
);
}
);
width = 621;
}
);
metricLeft = Y;
metricRight = Y;
unicode = 1198;
},
{
glyphname = ustraightcyr;
kernLeft = v1;
kernRight = v2;
layers = (
{
layerId = "EF32B9A4-AE44-476D-9D4B-CF47E47A5F6C";
shapes = (
{
closed = 1;
nodes = (
(119,520,l),
(277,105,l),
(435,520,l),
(530,520,l),
(324,0,l),
(324,-180,l),
(232,-180,l),
(232,0,l),
(25,520,l)
);
}
);
width = 555;
}
);
metricLeft = v;
metricRight = v;
unicode = 1199;
},
{
glyphname = Ustraightstrokecyr;
kernLeft = Ustraightstrokecyr1;
kernRight = Ustraightstrokecyr2;
layers = (
{
layerId = "EF32B9A4-AE44-476D-9D4B-CF47E47A5F6C";
shapes = (
{
closed = 1;
nodes = (
(51,221,l),
(222,221,l),
(222,0,l),
(318,0,l),
(318,221,l),
(490,221,l),
(490,311,l),
(318,311,l),
(318,324,l),
(556,700,l),
(453,700,l),
(270,412,l),
(89,700,l),
(-15,700,l),
(222,318,l),
(222,311,l),
(51,311,l)
);
}
);
width = 541;
}
);
metricLeft = "=Y-40";
metricRight = "=Y-40";
unicode = 1200;
},
{
glyphname = ustraightstrokecyr;
kernLeft = ustraightstrokecyr1;
kernRight = ustraightstrokecyr2;
layers = (
{
layerId = "EF32B9A4-AE44-476D-9D4B-CF47E47A5F6C";
shapes = (
{
closed = 1;
nodes = (
(119,520,l),
(277,105,l),
(435,520,l),
(530,520,l),
(324,0,l),
(448,0,l),
(448,-86,l),
(324,-86,l),
(324,-180,l),
(232,-180,l),
(232,-86,l),
(107,-86,l),
(107,0,l),
(232,0,l),
(25,520,l)
);
}
);
width = 555;
}
);
metricLeft = v;
metricRight = v;
unicode = 1201;
},
{
glyphname = Shhacyr;
kernLeft = H1;
kernRight = Shhacyr2;
layers = (
{
layerId = "EF32B9A4-AE44-476D-9D4B-CF47E47A5F6C";
shapes = (
{
closed = 1;
nodes = (
(196,0,l),
(196,395,l),
(235,419,o),
(290,434,o),
(356,434,cs),
(485,434,o),
(554,380,o),
(554,250,cs),
(554,0,l),
(650,0,l),
(650,266,ls),
(650,441,o),
(540,522,o),
(364,522,cs),
(295,522,o),
(238,510,o),
(196,488,c),
(196,700,l),
(100,700,l),
(100,0,l)
);
}
);
width = 730;
}
);
metricLeft = H;
metricRight = "=H-20";
unicode = 1210;
},
{
glyphname = Schwacyr;
kernLeft = Schwacyr1;
kernRight = O2;
layers = (
{
anchors = (
{
name = top;
pos = (392,700);
}
);
layerId = "EF32B9A4-AE44-476D-9D4B-CF47E47A5F6C";
shapes = (
{
closed = 1;
nodes = (
(70,347,ls),
(70,139,o),
(180,-10,o),
(397,-10,cs),
(614,-10,o),
(732,139,o),
(732,349,cs),
(732,559,o),
(614,709,o),
(379,709,cs),
(252,709,o),
(165,667,o),
(114,630,c),
(114,537,l),
(117,537,l),
(171,579,o),
(242,621,o),
(383,621,cs),
(534,621,o),
(618,532,o),
(632,391,c),
(70,391,l)
);
},
{
closed = 1;
nodes = (
(251,77,o),
(187,165,o),
(176,301,c),
(632,301,l),
(618,164,o),
(541,77,o),
(396,77,cs)
);
}
);
width = 802;
}
);
metricLeft = O;
metricRight = O;
unicode = 1240;
},
{
glyphname = schwacyr;
kernLeft = schwacyr1;
kernRight = o2;
layers = (
{
anchors = (
{
name = top;
pos = (299,520);
}
);
layerId = "EF32B9A4-AE44-476D-9D4B-CF47E47A5F6C";
shapes = (
{
closed = 1;
nodes = (
(223,530,o),
(140,524,o),
(74,490,c),
(74,409,l),
(120,433,o),
(186,448,o),
(248,448,cs),
(367,448,o),
(433,395,o),
(443,289,c),
(50,289,l),
(50,250,l),
(51,92,o),
(142,-10,o),
(288,-10,cs),
(437,-10,o),
(537,95,o),
(537,260,cs),
(537,426,o),
(431,530,o),
(263,530,cs)
);
},
{
closed = 1;
nodes = (
(210,72,o),
(159,125,o),
(146,209,c),
(439,209,l),
(423,124,o),
(366,72,o),
(284,72,cs)
);
}
);
width = 587;
}
);
metricLeft = o;
metricRight = o;
unicode = 1241;
},
{
glyphname = Wecyr;
kernLeft = W1;
kernRight = W2;
layers = (
{
layerId = "EF32B9A4-AE44-476D-9D4B-CF47E47A5F6C";
shapes = (
{
closed = 1;
nodes = (
(138,700,l),
(292,159,l),
(444,700,l),
(552,700,l),
(706,159,l),
(858,700,l),
(952,700,l),
(758,0,l),
(656,0,l),
(497,552,l),
(344,0,l),
(242,0,l),
(40,700,l)
);
}
);
width = 992;
}
);
metricLeft = W;
metricRight = W;
unicode = 1308;
},
{
glyphname = wecyr;
kernLeft = w1;
kernRight = w2;
layers = (
{
layerId = "EF32B9A4-AE44-476D-9D4B-CF47E47A5F6C";
shapes = (
{
closed = 1;
nodes = (
(123,520,l),
(235,108,l),
(347,520,l),
(439,520,l),
(551,108,l),
(663,520,l),
(751,520,l),
(601,0,l),
(503,0,l),
(393,384,l),
(283,0,l),
(185,0,l),
(35,520,l)
);
}
);
width = 786;
}
);
metricLeft = w;
metricRight = w;
unicode = 1309;
},
{
glyphname = Qacyr;
kernLeft = O1;
kernRight = Q2;
layers = (
{
layerId = "EF32B9A4-AE44-476D-9D4B-CF47E47A5F6C";
shapes = (
{
closed = 1;
nodes = (
(70,138,o),
(214,-10,o),
(428,-10,cs),
(504,-10,o),
(572,9,o),
(627,43,c),
(738,-68,l),
(801,-5,l),
(696,100,l),
(753,163,o),
(786,249,o),
(786,350,cs),
(786,562,o),
(642,710,o),
(428,710,cs),
(214,710,o),
(70,562,o),
(70,350,cs)
);
},
{
closed = 1;
nodes = (
(168,510,o),
(274,622,o),
(428,622,cs),
(582,622,o),
(688,510,o),
(688,350,cs),
(688,277,o),
(666,215,o),
(628,168,c),
(504,292,l),
(441,229,l),
(560,111,l),
(522,90,o),
(477,78,o),
(428,78,cs),
(274,78,o),
(168,190,o),
(168,350,cs)
);
}
);
width = 856;
}
);
metricLeft = Q;
metricRight = Q;
unicode = 1306;
},
{
glyphname = qacyr;
kernLeft = o1;
kernRight = q2;
layers = (
{
layerId = "EF32B9A4-AE44-476D-9D4B-CF47E47A5F6C";
shapes = (
{
closed = 1;
nodes = (
(50,424,o),
(149,530,o),
(294,530,cs),
(368,530,o),
(430,503,o),
(474,458,c),
(476,458,l),
(486,520,l),
(562,520,l),
(562,-180,l),
(470,-180,l),
(470,58,l),
(426,16,o),
(366,-10,o),
(294,-10,cs),
(149,-10,o),
(50,100,o),
(50,262,cs)
);
},
{
closed = 1;
nodes = (
(143,146,o),
(211,72,o),
(313,72,cs),
(421,72,o),
(483,152,o),
(483,260,cs),
(483,368,o),
(421,448,o),
(313,448,cs),
(211,448,o),
(143,378,o),
(143,262,cs)
);
}
);
width = 647;
}
);
metricLeft = q;
metricRight = q;
unicode = 1307;
},
{
glyphname = Zhetailcyr;
kernLeft = Zhecyr1;
kernRight = Katailcyr2;
layers = (
{
layerId = "EF32B9A4-AE44-476D-9D4B-CF47E47A5F6C";
shapes = (
{
closed = 1;
nodes = (
(122,0,l),
(15,0,l),
(259,363,l),
(51,700,l),
(152,700,l),
(336,403,l),
(436,403,l),
(436,700,l),
(532,700,l),
(532,403,l),
(632,403,l),
(815,700,l),
(916,700,l),
(708,363,l),
(891,90,l),
(957,90,l),
(957,-150,l),
(867,-150,l),
(867,0,l),
(844,0,l),
(633,313,l),
(532,313,l),
(532,0,l),
(436,0,l),
(436,313,l),
(336,313,l)
);
}
);
width = 957;
}
);
metricLeft = Zhecyr;
metricRight = "=Ж-15";
unicode = 1174;
},
{
glyphname = zhetailcyr;
kernLeft = zhecyr1;
kernRight = katailcyr2;
layers = (
{
layerId = "EF32B9A4-AE44-476D-9D4B-CF47E47A5F6C";
shapes = (
{
closed = 1;
nodes = (
(381,520,l),
(475,520,l),
(475,316,l),
(563,316,l),
(702,520,l),
(808,520,l),
(635,270,l),
(765,86,l),
(826,86,l),
(826,-130,l),
(738,-130,l),
(738,0,l),
(711,0,l),
(553,230,l),
(475,230,l),
(475,0,l),
(381,0,l),
(381,230,l),
(303,230,l),
(145,0,l),
(30,0,l),
(221,270,l),
(48,520,l),
(154,520,l),
(293,316,l),
(381,316,l)
);
}
);
width = 851;
}
);
metricLeft = zhecyr;
metricRight = "=ж-5";
unicode = 1175;
},
{
glyphname = Kabashkcyr;
kernLeft = Hardcyr1;
kernRight = K2;
layers = (
{
layerId = "EF32B9A4-AE44-476D-9D4B-CF47E47A5F6C";
shapes = (
{
closed = 1;
nodes = (
(30,610,l),
(198,610,l),
(198,0,l),
(294,0,l),
(294,313,l),
(415,313,l),
(641,0,l),
(754,0,l),
(489,363,l),
(723,700,l),
(617,700,l),
(408,403,l),
(294,403,l),
(294,700,l),
(30,700,l)
);
}
);
width = 764;
}
);
metricLeft = "=K-70";
metricRight = K;
unicode = 1184;
},
{
glyphname = kabashkcyr;
kernLeft = hardcyr1;
kernRight = k2;
layers = (
{
layerId = "EF32B9A4-AE44-476D-9D4B-CF47E47A5F6C";
shapes = (
{
closed = 1;
nodes = (
(15,434,l),
(151,434,l),
(151,0,l),
(245,0,l),
(245,230,l),
(327,230,l),
(509,0,l),
(629,0,l),
(396,279,l),
(579,520,l),
(474,520,l),
(321,316,l),
(245,316,l),
(245,520,l),
(15,520,l)
);
}
);
width = 654;
}
);
metricLeft = "=к-70";
metricRight = kacyr;
unicode = 1185;
},
{
glyphname = Enhookcyr;
kernLeft = H1;
kernRight = H2;
layers = (
{
layerId = "EF32B9A4-AE44-476D-9D4B-CF47E47A5F6C";
shapes = (
{
closed = 1;
nodes = (
(100,700,l),
(100,0,l),
(196,0,l),
(196,318,l),
(600,318,l),
(600,23,ls),
(600,-67,o),
(563,-98,o),
(506,-98,cs),
(486,-98,o),
(466,-94,o),
(448,-87,c),
(448,-165,l),
(474,-175,o),
(502,-180,o),
(531,-180,cs),
(628,-180,o),
(696,-123,o),
(696,11,cs),
(696,700,l),
(600,700,l),
(600,408,l),
(196,408,l),
(196,700,l)
);
}
);
width = 796;
}
);
metricLeft = H;
metricRight = H;
unicode = 1223;
},
{
glyphname = enhookcyr;
kernLeft = n1;
kernRight = j2;
layers = (
{
guides = (
{
pos = (0,-65);
}
);
layerId = "EF32B9A4-AE44-476D-9D4B-CF47E47A5F6C";
shapes = (
{
closed = 1;
nodes = (
(85,0,l),
(177,0,l),
(177,230,l),
(467,230,l),
(467,13,ls),
(467,-77,o),
(430,-108,o),
(373,-108,cs),
(353,-108,o),
(333,-104,o),
(315,-97,c),
(315,-175,l),
(341,-185,o),
(369,-190,o),
(398,-190,cs),
(495,-190,o),
(561,-133,o),
(561,1,cs),
(561,520,l),
(467,520,l),
(467,316,l),
(177,316,l),
(177,520,l),
(85,520,l)
);
}
);
width = 646;
}
);
metricLeft = encyr;
metricRight = encyr;
unicode = 1224;
},
{
glyphname = Tetailcyr;
kernLeft = T1;
kernRight = T2;
layers = (
{
layerId = "EF32B9A4-AE44-476D-9D4B-CF47E47A5F6C";
shapes = (
{
closed = 1;
nodes = (
(40,610,l),
(288,610,l),
(288,0,l),
(375,0,l),
(375,-150,l),
(465,-150,l),
(465,90,l),
(384,90,l),
(384,610,l),
(634,610,l),
(634,700,l),
(40,700,l)
);
}
);
width = 674;
}
);
metricLeft = Tecyr;
metricRight = Tecyr;
unicode = 1196;
},
{
glyphname = tetailcyr;
kernLeft = tecyr1;
kernRight = tecyr2;
layers = (
{
layerId = "EF32B9A4-AE44-476D-9D4B-CF47E47A5F6C";
shapes = (
{
closed = 1;
nodes = (
(208,0,l),
(282,0,l),
(282,-130,l),
(370,-130,l),
(370,86,l),
(300,86,l),
(300,434,l),
(482,434,l),
(482,520,l),
(25,520,l),
(25,434,l),
(208,434,l)
);
}
);
width = 507;
}
);
metricLeft = tecyr;
metricRight = tecyr;
unicode = 1197;
},
{
glyphname = Gehookcyr;
kernLeft = H1;
kernRight = Gehookcyr2;
layers = (
{
layerId = "EF32B9A4-AE44-476D-9D4B-CF47E47A5F6C";
shapes = (
{
closed = 1;
nodes = (
(100,700,l),
(100,0,l),
(196,0,l),
(196,288,l),
(241,307,o),
(264,312,o),
(322,312,cs),
(437,312,o),
(500,229,o),
(500,98,cs),
(500,-12,o),
(458,-83,o),
(362,-83,cs),
(333,-83,o),
(305,-77,o),
(283,-67,c),
(283,-155,l),
(309,-164,o),
(347,-170,o),
(376,-170,cs),
(511,-170,o),
(592,-55,o),
(592,98,cs),
(592,280,o),
(497,398,o),
(336,398,cs),
(287,398,o),
(240,389,o),
(196,374,c),
(196,610,l),
(564,610,l),
(564,700,l)
);
}
);
width = 603;
}
);
metricLeft = H;
unicode = 1172;
},
{
glyphname = gehookcyr;
kernLeft = n1;
kernRight = gehookcyr2;
layers = (
{
layerId = "EF32B9A4-AE44-476D-9D4B-CF47E47A5F6C";
shapes = (
{
closed = 1;
nodes = (
(417,-54,o),
(375,-103,o),
(279,-103,cs),
(250,-103,o),
(222,-97,o),
(200,-87,c),
(200,-175,l),
(226,-184,o),
(264,-190,o),
(293,-190,cs),
(428,-190,o),
(509,-97,o),
(509,56,cs),
(509,209,o),
(428,302,o),
(293,302,cs),
(250,302,o),
(214,297,o),
(177,284,c),
(177,434,l),
(461,434,l),
(461,520,l),
(85,520,l),
(85,0,l),
(177,0,l),
(177,197,l),
(208,209,o),
(241,215,o),
(279,215,cs),
(369,215,o),
(417,160,o),
(417,56,cs)
);
}
);
width = 528;
}
);
metricLeft = encyr;
unicode = 1173;
},
{
glyphname = Kahookcyr;
kernLeft = H1;
kernRight = Kahookcyr2;
layers = (
{
layerId = "EF32B9A4-AE44-476D-9D4B-CF47E47A5F6C";
shapes = (
{
closed = 1;
nodes = (
(100,700,l),
(100,0,l),
(196,0,l),
(196,258,l),
(262,278,o),
(328,285,o),
(391,285,cs),
(515,285,o),
(589,200,o),
(589,56,cs),
(589,-54,o),
(547,-103,o),
(451,-103,cs),
(422,-103,o),
(394,-97,o),
(372,-87,c),
(372,-175,l),
(398,-184,o),
(436,-190,o),
(465,-190,cs),
(600,-190,o),
(681,-97,o),
(681,56,cs),
(681,240,o),
(575,365,o),
(416,371,c),
(645,700,l),
(539,700,l),
(304,365,l),
(266,361,o),
(231,354,o),
(196,345,c),
(196,700,l)
);
}
);
width = 696;
}
);
metricLeft = K;
unicode = 1219;
},
{
glyphname = kahookcyr;
kernLeft = n1;
kernRight = kahookcyr2;
layers = (
{
layerId = "EF32B9A4-AE44-476D-9D4B-CF47E47A5F6C";
shapes = (
{
closed = 1;
nodes = (
(454,-54,o),
(412,-103,o),
(316,-103,cs),
(287,-103,o),
(259,-97,o),
(237,-87,c),
(237,-175,l),
(263,-184,o),
(301,-190,o),
(330,-190,cs),
(465,-190,o),
(546,-97,o),
(546,56,cs),
(546,194,o),
(480,295,o),
(368,313,c),
(525,520,l),
(420,520,l),
(264,312,l),
(233,308,o),
(203,301,o),
(179,292,c),
(179,520,l),
(85,520,l),
(85,0,l),
(179,0,l),
(179,205,l),
(216,220,o),
(264,229,o),
(316,229,cs),
(406,229,o),
(454,160,o),
(454,56,cs)
);
}
);
width = 591;
}
);
metricLeft = encyr;
unicode = 1220;
},
{
glyphname = Engecyr;
kernLeft = H1;
kernRight = Engecyr2;
layers = (
{
layerId = "EF32B9A4-AE44-476D-9D4B-CF47E47A5F6C";
shapes = (
{
closed = 1;
nodes = (
(100,700,l),
(100,0,l),
(196,0,l),
(196,318,l),
(600,318,l),
(600,0,l),
(696,0,l),
(696,610,l),
(875,610,l),
(875,700,l),
(600,700,l),
(600,408,l),
(196,408,l),
(196,700,l)
);
}
);
width = 815;
}
);
metricLeft = H;
unicode = 1188;
},
{
glyphname = engecyr;
kernLeft = n1;
kernRight = engecyr2;
layers = (
{
layerId = "EF32B9A4-AE44-476D-9D4B-CF47E47A5F6C";
shapes = (
{
closed = 1;
nodes = (
(469,0,l),
(561,0,l),
(561,434,l),
(691,434,l),
(691,520,l),
(469,520,l),
(469,316,l),
(177,316,l),
(177,520,l),
(85,520,l),
(85,0,l),
(177,0,l),
(177,230,l),
(469,230,l)
);
}
);
width = 733;
}
);
metricLeft = encyr;
unicode = 1189;
},
{
glyphname = Kastrokecyr;
kernLeft = Kastrokecyr1;
kernRight = K2;
layers = (
{
layerId = "EF32B9A4-AE44-476D-9D4B-CF47E47A5F6C";
shapes = (
{
closed = 1;
nodes = (
(140,700,l),
(140,646,l),
(40,646,l),
(40,567,l),
(140,567,l),
(140,0,l),
(236,0,l),
(236,313,l),
(376,313,l),
(376,315,l),
(603,0,l),
(716,0,l),
(451,363,l),
(685,700,l),
(579,700,l),
(370,403,l),
(236,403,l),
(236,567,l),
(426,567,l),
(426,646,l),
(236,646,l),
(236,700,l)
);
}
);
width = 726;
}
);
metricLeft = "=K-60";
metricRight = K;
unicode = 1182;
},
{
glyphname = kastrokecyr;
kernLeft = kastrokecyr1;
kernRight = k2;
layers = (
{
layerId = "EF32B9A4-AE44-476D-9D4B-CF47E47A5F6C";
shapes = (
{
closed = 1;
nodes = (
(25,567,l),
(116,567,l),
(116,0,l),
(210,0,l),
(210,230,l),
(304,230,l),
(488,0,l),
(597,0,l),
(374,278,l),
(556,520,l),
(453,520,l),
(297,316,l),
(210,316,l),
(210,567,l),
(411,567,l),
(411,646,l),
(210,646,l),
(210,700,l),
(116,700,l),
(116,646,l),
(25,646,l)
);
}
);
width = 622;
}
);
metricLeft = "=k-60";
metricRight = k;
unicode = 1183;
},
{
glyphname = Chetailcyr;
kernLeft = Checyr1;
kernRight = Decyr2;
layers = (
{
layerId = "EF32B9A4-AE44-476D-9D4B-CF47E47A5F6C";
shapes = (
{
closed = 1;
nodes = (
(524,700,l),
(524,377,l),
(485,353,o),
(430,338,o),
(364,338,cs),
(235,338,o),
(166,392,o),
(166,522,cs),
(166,700,l),
(70,700,l),
(70,506,ls),
(70,331,o),
(180,250,o),
(356,250,cs),
(425,250,o),
(482,262,o),
(524,284,c),
(524,0,l),
(614,0,l),
(614,-150,l),
(704,-150,l),
(704,90,l),
(620,90,l),
(620,700,l)
);
}
);
width = 754;
}
);
metricLeft = Checyr;
metricRight = Shchacyr;
unicode = 1206;
},
{
glyphname = chetailcyr;
kernLeft = checyr1;
kernRight = decyr2;
layers = (
{
layerId = "EF32B9A4-AE44-476D-9D4B-CF47E47A5F6C";
shapes = (
{
closed = 1;
nodes = (
(428,520,l),
(428,272,l),
(398,254,o),
(355,243,o),
(305,243,cs),
(206,243,o),
(152,284,o),
(152,384,cs),
(152,520,l),
(60,520,l),
(60,365,ls),
(60,235,o),
(149,161,o),
(291,161,cs),
(348,161,o),
(394,170,o),
(428,186,c),
(428,0,l),
(502,0,l),
(502,-130,l),
(590,-130,l),
(590,86,l),
(520,86,l),
(520,520,l)
);
}
);
width = 625;
}
);
metricLeft = checyr;
metricRight = shchacyr;
unicode = 1207;
},
{
glyphname = Palochkacyr;
kernLeft = H1;
kernRight = H2;
layers = (
{
layerId = "EF32B9A4-AE44-476D-9D4B-CF47E47A5F6C";
shapes = (
{
closed = 1;
nodes = (
(85,700,l),
(85,0,l),
(181,0,l),
(181,700,l)
);
}
);
width = 266;
}
);
metricLeft = encyr;
metricRight = encyr;
unicode = 1216;
},
{
glyphname = palochkacyr;
kernLeft = h1;
kernRight = d2;
layers = (
{
layerId = "EF32B9A4-AE44-476D-9D4B-CF47E47A5F6C";
shapes = (
{
closed = 1;
nodes = (
(85,700,l),
(85,0,l),
(181,0,l),
(181,700,l)
);
}
);
width = 266;
}
);
metricLeft = encyr;
metricRight = encyr;
unicode = 1231;
},
{
glyphname = Cheabkhtailcyr;
kernLeft = Cheabkhcyr1;
kernRight = Cheabkhcyr2;
layers = (
{
guides = (
{
angle = 90;
pos = (534,0);
}
);
layerId = "EF32B9A4-AE44-476D-9D4B-CF47E47A5F6C";
shapes = (
{
closed = 1;
nodes = (
(847,352,ls),
(847,578,o),
(729,709,o),
(525,709,cs),
(324,709,o),
(204,581,o),
(187,396,c),
(123,403,o),
(110,434,o),
(131,513,c),
(37,513,l),
(2,379,o),
(47,317,o),
(187,309,c),
(200,137,o),
(299,13,o),
(483,-7,c),
(483,-150,l),
(573,-150,l),
(573,-9,l),
(681,-2,o),
(757,36,o),
(803,69,c),
(803,162,l),
(800,162,l),
(746,120,o),
(675,78,o),
(534,78,cs),
(383,78,o),
(299,167,o),
(285,308,c),
(847,308,l)
);
},
{
closed = 1;
nodes = (
(286,398,l),
(301,535,o),
(381,622,o),
(526,622,cs),
(660,622,o),
(730,550,o),
(741,398,c)
);
}
);
width = 917;
}
);
metricRight = O;
unicode = 1214;
},
{
glyphname = cheabkhtailcyr;
kernLeft = cheabkhtailcyr1;
kernRight = e2;
layers = (
{
layerId = "EF32B9A4-AE44-476D-9D4B-CF47E47A5F6C";
shapes = (
{
closed = 1;
nodes = (
(40,426,l),
(-1,306,o),
(47,236,o),
(163,231,c),
(173,99,o),
(255,13,o),
(383,-6,c),
(383,-130,l),
(471,-130,l),
(471,-9,l),
(514,-6,o),
(575,4,o),
(625,30,c),
(625,111,l),
(579,87,o),
(513,72,o),
(451,72,cs),
(332,72,o),
(266,125,o),
(256,231,c),
(649,231,l),
(649,270,l),
(648,428,o),
(557,530,o),
(418,530,cs),
(279,530,o),
(184,446,o),
(165,311,c),
(115,315,o),
(102,352,o),
(126,426,c)
);
},
{
closed = 1;
nodes = (
(260,311,l),
(276,396,o),
(333,448,o),
(415,448,cs),
(489,448,o),
(540,395,o),
(553,311,c)
);
}
);
width = 699;
}
);
metricRight = e;
unicode = 1215;
},
{
glyphname = Cheabkhcyr;
kernLeft = Cheabkhcyr1;
kernRight = Cheabkhcyr2;
layers = (
{
layerId = "EF32B9A4-AE44-476D-9D4B-CF47E47A5F6C";
shapes = (
{
closed = 1;
nodes = (
(847,352,ls),
(847,578,o),
(729,709,o),
(525,709,cs),
(324,709,o),
(204,581,o),
(187,396,c),
(123,403,o),
(110,434,o),
(131,513,c),
(37,513,l),
(2,379,o),
(47,317,o),
(187,309,c),
(202,121,o),
(319,-10,o),
(538,-10,cs),
(665,-10,o),
(752,32,o),
(803,69,c),
(803,162,l),
(800,162,l),
(746,120,o),
(675,78,o),
(534,78,cs),
(383,78,o),
(299,167,o),
(285,308,c),
(847,308,l)
);
},
{
closed = 1;
nodes = (
(286,398,l),
(301,535,o),
(381,622,o),
(526,622,cs),
(660,622,o),
(730,550,o),
(741,398,c)
);
}
);
width = 917;
}
);
metricRight = O;
unicode = 1212;
},
{
glyphname = cheabkhcyr;
kernLeft = cheabkhtailcyr1;
kernRight = e2;
layers = (
{
layerId = "EF32B9A4-AE44-476D-9D4B-CF47E47A5F6C";
shapes = (
{
closed = 1;
nodes = (
(476,-10,o),
(559,-4,o),
(625,30,c),
(625,111,l),
(579,87,o),
(513,72,o),
(451,72,cs),
(332,72,o),
(266,125,o),
(256,231,c),
(649,231,l),
(649,270,l),
(648,428,o),
(557,530,o),
(418,530,cs),
(279,530,o),
(184,446,o),
(165,311,c),
(115,315,o),
(102,352,o),
(126,426,c),
(40,426,l),
(-1,306,o),
(47,236,o),
(163,231,c),
(175,82,o),
(278,-10,o),
(436,-10,cs)
);
},
{
closed = 1;
nodes = (
(260,311,l),
(276,396,o),
(333,448,o),
(415,448,cs),
(489,448,o),
(540,395,o),
(553,311,c)
);
}
);
width = 699;
}
);
metricLeft = "=25";
metricRight = e;
unicode = 1213;
},
{
glyphname = Xatailcyr;
kernLeft = X1;
kernRight = Xatailcyr2;
layers = (
{
layerId = "EF32B9A4-AE44-476D-9D4B-CF47E47A5F6C";
shapes = (
{
closed = 1;
nodes = (
(25,0,l),
(143,0,l),
(332,282,l),
(527,0,l),
(564,0,l),
(564,-150,l),
(654,-150,l),
(654,90,l),
(576,90,l),
(388,362,l),
(615,700,l),
(510,700,l),
(332,443,l),
(155,700,l),
(51,700,l),
(276,360,l)
);
}
);
width = 664;
}
);
metricLeft = Hacyr;
metricRight = "=Х-15";
unicode = 1202;
},
{
glyphname = xatailcyr;
kernLeft = x1;
kernRight = xatailcyr2;
layers = (
{
layerId = "EF32B9A4-AE44-476D-9D4B-CF47E47A5F6C";
shapes = (
{
closed = 1;
nodes = (
(30,0,l),
(144,0,l),
(287,201,l),
(439,0,l),
(467,0,l),
(467,-130,l),
(555,-130,l),
(555,86,l),
(480,86,l),
(340,275,l),
(518,520,l),
(414,520,l),
(287,351,l),
(163,520,l),
(60,520,l),
(233,273,l)
);
}
);
width = 571;
}
);
metricLeft = x;
metricRight = "=x-14";
unicode = 1203;
},
{
glyphname = Elsharptailcyr;
kernLeft = Elcyr1;
kernRight = Elsharptailcyr2;
layers = (
{
layerId = "EF32B9A4-AE44-476D-9D4B-CF47E47A5F6C";
shapes = (
{
closed = 1;
nodes = (
(15,2,l),
(26,-3,o),
(42,-6,o),
(65,-6,cs),
(240,-6,o),
(261,160,o),
(279,466,cs),
(288,610,l),
(594,610,l),
(594,0,l),
(676,0,l),
(658,-110,l),
(748,-110,l),
(781,86,l),
(690,86,l),
(690,700,l),
(196,700,l),
(182,476,ls),
(166,224,o),
(160,84,o),
(49,84,cs),
(36,84,o),
(26,86,o),
(15,89,c)
);
}
);
width = 861;
}
);
metricLeft = Elcyr;
metricRight = "=Л-20";
unicode = 1221;
},
{
glyphname = elsharptailcyr;
kernLeft = elcyr1;
kernRight = elsharptailcyr2;
layers = (
{
layerId = "EF32B9A4-AE44-476D-9D4B-CF47E47A5F6C";
shapes = (
{
closed = 1;
nodes = (
(474,0,l),
(550,0,l),
(530,-110,l),
(614,-110,l),
(654,86,l),
(566,86,l),
(566,520,l),
(166,520,l),
(157,376,ls),
(144,170,o),
(122,80,o),
(50,80,cs),
(37,80,o),
(27,81,o),
(20,83,c),
(20,1,l),
(30,-2,o),
(48,-4,o),
(64,-4,cs),
(218,-4,o),
(238,186,o),
(249,370,cs),
(253,434,l),
(474,434,l)
);
}
);
width = 691;
}
);
metricLeft = elcyr;
unicode = 1222;
},
{
glyphname = Emsharptailcyr;
kernLeft = H1;
kernRight = Elsharptailcyr2;
layers = (
{
layerId = "EF32B9A4-AE44-476D-9D4B-CF47E47A5F6C";
shapes = (
{
closed = 1;
nodes = (
(459,241,l),
(668,700,l),
(818,700,l),
(818,86,l),
(909,86,l),
(876,-110,l),
(786,-110,l),
(804,0,l),
(722,0,l),
(722,590,l),
(492,94,l),
(426,94,l),
(196,590,l),
(196,0,l),
(100,0,l),
(100,700,l),
(250,700,l)
);
}
);
width = 989;
}
);
metricLeft = Emcyr;
metricRight = "=М-20";
unicode = 1229;
},
{
glyphname = emsharptailcyr;
kernLeft = n1;
kernRight = elsharptailcyr2;
layers = (
{
layerId = "EF32B9A4-AE44-476D-9D4B-CF47E47A5F6C";
shapes = (
{
closed = 1;
nodes = (
(563,0,l),
(639,0,l),
(619,-110,l),
(703,-110,l),
(743,86,l),
(655,86,l),
(655,520,l),
(504,520,l),
(370,203,l),
(236,520,l),
(85,520,l),
(85,0,l),
(177,0,l),
(177,438,l),
(322,103,l),
(418,103,l),
(563,438,l)
);
}
);
width = 780;
}
);
metricLeft = emcyr;
metricRight = "=37";
unicode = 1230;
},
{
glyphname = Ishortsharptailcyr;
kernLeft = H1;
kernRight = Elsharptailcyr2;
layers = (
{
layerId = "EF32B9A4-AE44-476D-9D4B-CF47E47A5F6C";
shapes = (
{
closed = 1;
nodes = (
(612,0,l),
(693,0,l),
(676,-104,l),
(766,-104,l),
(799,92,l),
(708,92,l),
(708,700,l),
(590,700,l),
(196,124,l),
(196,700,l),
(100,700,l),
(100,0,l),
(220,0,l),
(612,574,l)
);
},
{
closed = 1;
nodes = (
(212,953,l),
(217,857,o),
(292,787,o),
(400,787,cs),
(508,787,o),
(583,857,o),
(588,953,c),
(502,953,l),
(498,901,o),
(458,865,o),
(400,865,cs),
(342,865,o),
(302,901,o),
(298,953,c)
);
}
);
width = 879;
}
);
metricLeft = Icyr;
metricRight = "=И-20";
unicode = 1162;
},
{
glyphname = ishortsharptailcyr;
kernLeft = n1;
kernRight = elsharptailcyr2;
layers = (
{
layerId = "EF32B9A4-AE44-476D-9D4B-CF47E47A5F6C";
shapes = (
{
closed = 1;
nodes = (
(85,520,l),
(177,520,l),
(177,107,l),
(449,520,l),
(571,520,l),
(571,92,l),
(659,92,l),
(619,-104,l),
(535,-104,l),
(554,0,l),
(479,0,l),
(479,414,l),
(207,0,l),
(85,0,l)
);
},
{
closed = 1;
nodes = (
(241,736,l),
(244,695,o),
(278,664,o),
(328,664,cs),
(378,664,o),
(412,695,o),
(415,736,c),
(491,736,l),
(487,654,o),
(422,594,o),
(328,594,cs),
(234,594,o),
(169,654,o),
(165,736,c)
);
}
);
width = 724;
}
);
metricLeft = icyr;
metricRight = "=и-20";
unicode = 1163;
},
{
glyphname = Getailcyr;
kernLeft = H1;
kernRight = Gecyr2;
layers = (
{
layerId = "EF32B9A4-AE44-476D-9D4B-CF47E47A5F6C";
shapes = (
{
closed = 1;
nodes = (
(100,700,l),
(100,0,l),
(190,0,l),
(190,-150,l),
(280,-150,l),
(280,90,l),
(196,90,l),
(196,610,l),
(570,610,l),
(570,700,l)
);
}
);
width = 610;
}
);
metricLeft = Gecyr;
metricRight = Gecyr;
unicode = 1270;
},
{
glyphname = getailcyr;
kernLeft = n1;
kernRight = gecyr2;
layers = (
{
layerId = "EF32B9A4-AE44-476D-9D4B-CF47E47A5F6C";
shapes = (
{
closed = 1;
nodes = (
(85,0,l),
(159,0,l),
(159,-130,l),
(247,-130,l),
(247,86,l),
(177,86,l),
(177,434,l),
(461,434,l),
(461,520,l),
(85,520,l)
);
}
);
width = 496;
}
);
metricLeft = gecyr;
metricRight = gecyr;
unicode = 1271;
},
{
glyphname = Ensharptailcyr;
kernLeft = H1;
kernRight = Elsharptailcyr2;
layers = (
{
layerId = "EF32B9A4-AE44-476D-9D4B-CF47E47A5F6C";
shapes = (
{
closed = 1;
nodes = (
(100,700,l),
(100,0,l),
(196,0,l),
(196,318,l),
(600,318,l),
(600,0,l),
(682,0,l),
(664,-110,l),
(754,-110,l),
(787,86,l),
(696,86,l),
(696,700,l),
(600,700,l),
(600,408,l),
(196,408,l),
(196,700,l)
);
}
);
width = 867;
}
);
metricLeft = Encyr;
metricRight = "=Н-20";
unicode = 1225;
},
{
glyphname = ensharptailcyr;
kernLeft = n1;
kernRight = elsharptailcyr2;
layers = (
{
layerId = "EF32B9A4-AE44-476D-9D4B-CF47E47A5F6C";
shapes = (
{
closed = 1;
nodes = (
(469,0,l),
(545,0,l),
(525,-110,l),
(609,-110,l),
(649,86,l),
(561,86,l),
(561,520,l),
(469,520,l),
(469,316,l),
(177,316,l),
(177,520,l),
(85,520,l),
(85,0,l),
(177,0,l),
(177,230,l),
(469,230,l)
);
}
);
width = 714;
}
);
metricLeft = encyr;
metricRight = "=н-20";
unicode = 1226;
},
{
glyphname = Estailcyr;
kernLeft = C1;
kernRight = C2;
layers = (
{
layerId = "EF32B9A4-AE44-476D-9D4B-CF47E47A5F6C";
shapes = (
{
closed = 1;
nodes = (
(647,120,l),
(595,91,o),
(522,78,o),
(459,78,cs),
(276,78,o),
(168,185,o),
(168,350,cs),
(168,514,o),
(274,622,o),
(448,622,cs),
(511,622,o),
(584,608,o),
(637,575,c),
(637,669,l),
(585,696,o),
(522,710,o),
(451,710,cs),
(221,710,o),
(70,560,o),
(70,350,cs),
(70,169,o),
(185,34,o),
(368,-1,c),
(368,-150,l),
(458,-150,l),
(458,-10,l),
(523,-10,o),
(588,-1,o),
(647,27,c)
);
}
);
width = 702;
}
);
metricLeft = Escyr;
metricRight = Escyr;
unicode = 1194;
},
{
glyphname = estailcyr;
kernLeft = o1;
kernRight = c2;
layers = (
{
layerId = "EF32B9A4-AE44-476D-9D4B-CF47E47A5F6C";
shapes = (
{
closed = 1;
nodes = (
(281,-130,l),
(369,-130,l),
(369,-9,l),
(407,-6,o),
(445,3,o),
(478,15,c),
(478,96,l),
(440,78,o),
(391,72,o),
(354,72,cs),
(215,72,o),
(143,158,o),
(143,260,cs),
(143,362,o),
(215,448,o),
(348,448,cs),
(383,448,o),
(432,442,o),
(472,424,c),
(472,504,l),
(429,521,o),
(380,530,o),
(330,530,cs),
(156,530,o),
(50,415,o),
(50,260,cs),
(50,122,o),
(135,15,o),
(281,-6,c)
);
}
);
width = 533;
}
);
metricLeft = escyr;
metricRight = escyr;
unicode = 1195;
},
{
glyphname = Zetailcyr;
kernLeft = Zecyr1;
kernRight = Zecyr2;
layers = (
{
layerId = "EF32B9A4-AE44-476D-9D4B-CF47E47A5F6C";
shapes = (
{
closed = 1;
nodes = (
(474,447,o),
(423,406,o),
(342,406,cs),
(209,406,l),
(209,318,l),
(346,318,ls),
(438,318,o),
(500,270,o),
(500,199,cs),
(500,124,o),
(430,78,o),
(318,78,cs),
(209,78,o),
(107,121,o),
(50,154,c),
(50,60,l),
(105,27,o),
(179,-1,o),
(269,-8,c),
(269,-150,l),
(359,-150,l),
(359,-8,l),
(504,5,o),
(596,81,o),
(596,192,cs),
(596,275,o),
(544,339,o),
(460,367,c),
(534,399,o),
(570,457,o),
(570,525,cs),
(570,636,o),
(472,710,o),
(300,710,cs),
(222,710,o),
(148,695,o),
(76,657,c),
(76,563,l),
(145,604,o),
(222,622,o),
(297,622,cs),
(414,622,o),
(474,579,o),
(474,510,cs)
);
}
);
width = 656;
}
);
metricLeft = Zecyr;
metricRight = Zecyr;
unicode = 1176;
},
{
glyphname = zetailcyr;
kernLeft = zecyr1;
kernRight = zecyr2;
layers = (
{
layerId = "EF32B9A4-AE44-476D-9D4B-CF47E47A5F6C";
shapes = (
{
closed = 1;
nodes = (
(60,21,l),
(106,2,o),
(168,-9,o),
(231,-10,c),
(231,-130,l),
(319,-130,l),
(319,-5,l),
(446,15,o),
(488,86,o),
(488,155,cs),
(488,221,o),
(448,253,o),
(391,272,c),
(438,288,o),
(481,325,o),
(481,385,cs),
(481,476,o),
(381,530,o),
(242,530,cs),
(179,530,o),
(117,519,o),
(66,497,c),
(66,414,l),
(109,433,o),
(174,448,o),
(241,448,cs),
(323,448,o),
(381,425,o),
(381,376,cs),
(381,340,o),
(349,312,o),
(267,312,cs),
(165,312,l),
(165,232,l),
(267,232,ls),
(343,232,o),
(388,208,o),
(388,156,cs),
(388,94,o),
(326,72,o),
(244,72,cs),
(178,72,o),
(106,86,o),
(60,108,c)
);
}
);
width = 543;
}
);
metricLeft = zecyr;
metricRight = zecyr;
unicode = 1177;
},
{
glyphname = Chekhakascyr;
kernLeft = Checyr1;
kernRight = H2;
layers = (
{
layerId = "EF32B9A4-AE44-476D-9D4B-CF47E47A5F6C";
shapes = (
{
closed = 1;
nodes = (
(524,700,l),
(524,377,l),
(485,353,o),
(430,338,o),
(364,338,cs),
(235,338,o),
(166,392,o),
(166,522,cs),
(166,700,l),
(70,700,l),
(70,506,ls),
(70,331,o),
(180,250,o),
(356,250,cs),
(425,250,o),
(482,262,o),
(524,284,c),
(524,90,l),
(440,90,l),
(440,-150,l),
(530,-150,l),
(530,0,l),
(620,0,l),
(620,700,l)
);
}
);
width = 720;
}
);
metricLeft = Checyr;
metricRight = Checyr;
unicode = 1227;
},
{
glyphname = chekhakascyr;
kernLeft = checyr1;
kernRight = u2;
layers = (
{
layerId = "EF32B9A4-AE44-476D-9D4B-CF47E47A5F6C";
shapes = (
{
closed = 1;
nodes = (
(438,520,l),
(438,272,l),
(408,254,o),
(365,243,o),
(315,243,cs),
(216,243,o),
(162,284,o),
(162,384,cs),
(162,520,l),
(70,520,l),
(70,365,ls),
(70,235,o),
(159,161,o),
(301,161,cs),
(358,161,o),
(404,170,o),
(438,186,c),
(438,86,l),
(368,86,l),
(368,-130,l),
(456,-130,l),
(456,0,l),
(530,0,l),
(530,520,l)
);
}
);
width = 630;
}
);
metricLeft = Checyr;
metricRight = Checyr;
unicode = 1228;
},
{
glyphname = Dzeabkhcyr;
kernLeft = Dzeabkhcyr1;
kernRight = Dzeabkhcyr2;
layers = (
{
layerId = "EF32B9A4-AE44-476D-9D4B-CF47E47A5F6C";
shapes = (
{
closed = 1;
nodes = (
(50,60,l),
(114,22,o),
(202,-10,o),
(312,-10,cs),
(484,-10,o),
(596,69,o),
(596,192,cs),
(596,330,o),
(501,406,o),
(327,406,cs),
(318,406,l),
(556,613,l),
(556,700,l),
(87,700,l),
(87,610,l),
(432,610,l),
(198,402,l),
(198,318,l),
(326,318,ls),
(442,318,o),
(500,279,o),
(500,199,cs),
(500,124,o),
(430,78,o),
(318,78,cs),
(209,78,o),
(107,121,o),
(50,154,c)
);
}
);
width = 584;
}
);
unicode = 1248;
},
{
glyphname = dzeabkhcyr;
kernLeft = dzeabkhcyr1;
kernRight = dzeabkhcyr2;
layers = (
{
layerId = "EF32B9A4-AE44-476D-9D4B-CF47E47A5F6C";
shapes = (
{
closed = 1;
nodes = (
(87,434,l),
(347,434,l),
(184,255,l),
(184,173,l),
(318,173,o),
(389,121,o),
(389,31,cs),
(389,-59,o),
(328,-103,o),
(248,-103,cs),
(174,-103,o),
(132,-92,o),
(71,-57,c),
(71,-144,l),
(118,-172,o),
(174,-185,o),
(247,-185,cs),
(387,-185,o),
(482,-98,o),
(482,31,cs),
(482,148,o),
(404,220,o),
(285,245,c),
(453,439,l),
(453,520,l),
(87,520,l)
);
}
);
width = 498;
}
);
unicode = 1249;
},
{
glyphname = Tetsecyr;
kernLeft = Hardcyr1;
kernRight = Decyr2;
layers = (
{
layerId = "EF32B9A4-AE44-476D-9D4B-CF47E47A5F6C";
shapes = (
{
closed = 1;
nodes = (
(770,-135,l),
(770,90,l),
(686,90,l),
(686,700,l),
(590,700,l),
(590,90,l),
(196,90,l),
(196,610,l),
(382,610,l),
(382,700,l),
(-84,700,l),
(-84,610,l),
(100,610,l),
(100,0,l),
(680,0,l),
(680,-135,l)
);
}
);
width = 820;
}
);
metricRight = Tsecyr;
unicode = 1204;
},
{
glyphname = tetsecyr;
kernLeft = hardcyr1;
kernRight = decyr2;
layers = (
{
layerId = "EF32B9A4-AE44-476D-9D4B-CF47E47A5F6C";
shapes = (
{
closed = 1;
nodes = (
(90,0,l),
(542,0,l),
(542,-130,l),
(630,-130,l),
(630,86,l),
(560,86,l),
(560,520,l),
(468,520,l),
(468,86,l),
(182,86,l),
(182,434,l),
(332,434,l),
(332,520,l),
(-60,520,l),
(-60,434,l),
(90,434,l)
);
}
);
width = 665;
}
);
metricRight = tsecyr;
unicode = 1205;
},
{
glyphname = Gehookstrokecyr;
kernLeft = Gestokecyr1;
kernRight = Gestokecyr2;
layers = (
{
layerId = "EF32B9A4-AE44-476D-9D4B-CF47E47A5F6C";
shapes = (
{
closed = 1;
nodes = (
(100,700,l),
(100,395,l),
(32,395,l),
(32,305,l),
(100,305,l),
(100,0,l),
(194,0,l),
(194,-21,ls),
(194,-80,o),
(178,-105,o),
(142,-105,cs),
(125,-105,o),
(115,-101,o),
(105,-95,c),
(103,-95,l),
(103,-170,l),
(114,-175,o),
(134,-180,o),
(156,-180,cs),
(244,-180,o),
(285,-118,o),
(285,0,cs),
(285,86,l),
(196,86,l),
(196,305,l),
(411,305,l),
(411,395,l),
(196,395,l),
(196,610,l),
(570,610,l),
(570,700,l)
);
}
);
width = 530;
}
);
unicode = 1274;
},
{
glyphname = gehookstrokecyr;
kernLeft = gestokecyr1;
kernRight = gestokecyr2;
layers = (
{
layerId = "EF32B9A4-AE44-476D-9D4B-CF47E47A5F6C";
shapes = (
{
closed = 1;
nodes = (
(90,0,l),
(181,0,l),
(181,-21,ls),
(181,-80,o),
(165,-105,o),
(129,-105,cs),
(112,-105,o),
(102,-101,o),
(92,-95,c),
(90,-95,l),
(90,-170,l),
(101,-175,o),
(121,-180,o),
(143,-180,cs),
(231,-180,o),
(272,-118,o),
(272,0,cs),
(272,86,l),
(182,86,l),
(182,217,l),
(336,217,l),
(336,303,l),
(182,303,l),
(182,434,l),
(466,434,l),
(466,520,l),
(90,520,l),
(90,303,l),
(14,303,l),
(14,217,l),
(90,217,l)
);
}
);
width = 434;
}
);
unicode = 1275;
},
{
glyphname = Hahookcyr;
kernLeft = X1;
kernRight = Hahookcyr2;
layers = (
{
layerId = "EF32B9A4-AE44-476D-9D4B-CF47E47A5F6C";
shapes = (
{
closed = 1;
nodes = (
(25,0,l),
(143,0,l),
(332,282,l),
(527,0,l),
(578,0,l),
(578,-21,ls),
(578,-80,o),
(562,-105,o),
(526,-105,cs),
(509,-105,o),
(499,-101,o),
(489,-95,c),
(487,-95,l),
(487,-170,l),
(498,-175,o),
(518,-180,o),
(540,-180,cs),
(628,-180,o),
(669,-118,o),
(669,0,cs),
(669,86,l),
(579,86,l),
(388,362,l),
(615,700,l),
(510,700,l),
(332,443,l),
(155,700,l),
(51,700,l),
(276,360,l)
);
}
);
width = 710;
}
);
metricLeft = X;
unicode = 1276;
},
{
glyphname = hahookcyr;
kernLeft = x1;
kernRight = hahookcyr2;
layers = (
{
layerId = "EF32B9A4-AE44-476D-9D4B-CF47E47A5F6C";
shapes = (
{
closed = 1;
nodes = (
(30,0,l),
(144,0,l),
(287,201,l),
(439,0,l),
(479,0,l),
(479,-21,ls),
(479,-80,o),
(463,-105,o),
(427,-105,cs),
(410,-105,o),
(400,-101,o),
(390,-95,c),
(388,-95,l),
(388,-170,l),
(399,-175,o),
(419,-180,o),
(441,-180,cs),
(529,-180,o),
(570,-118,o),
(570,0,cs),
(570,86,l),
(480,86,l),
(340,275,l),
(518,520,l),
(414,520,l),
(287,351,l),
(163,520,l),
(60,520,l),
(233,273,l)
);
}
);
width = 614;
}
);
metricLeft = x;
unicode = 1277;
},
{
glyphname = Chevertcyr;
kernLeft = Checyr1;
kernRight = H2;
layers = (
{
layerId = "EF32B9A4-AE44-476D-9D4B-CF47E47A5F6C";
shapes = (
{
closed = 1;
nodes = (
(524,700,l),
(524,377,l),
(490,356,o),
(444,342,o),
(390,339,c),
(390,520,l),
(300,520,l),
(300,343,l),
(212,360,o),
(166,416,o),
(166,522,cs),
(166,700,l),
(70,700,l),
(70,506,ls),
(70,350,o),
(157,269,o),
(300,253,c),
(300,128,l),
(390,128,l),
(390,251,l),
(444,254,o),
(489,266,o),
(524,284,c),
(524,0,l),
(620,0,l),
(620,700,l)
);
}
);
width = 720;
}
);
metricLeft = Checyr;
metricRight = Checyr;
unicode = 1208;
},
{
glyphname = chevertcyr;
kernLeft = checyr1;
kernRight = u2;
layers = (
{
layerId = "EF32B9A4-AE44-476D-9D4B-CF47E47A5F6C";
shapes = (
{
closed = 1;
nodes = (
(428,520,l),
(428,272,l),
(404,257,o),
(371,247,o),
(333,244,c),
(333,395,l),
(245,395,l),
(245,249,l),
(184,264,o),
(152,307,o),
(152,384,cs),
(152,520,l),
(60,520,l),
(60,365,ls),
(60,250,o),
(130,179,o),
(245,164,c),
(245,67,l),
(333,67,l),
(333,163,l),
(371,166,o),
(403,174,o),
(428,186,c),
(428,0,l),
(520,0,l),
(520,520,l)
);
}
);
width = 605;
}
);
metricLeft = checyr;
metricRight = checyr;
unicode = 1209;
},
{
glyphname = Kaverticalstrokecyr;
kernLeft = H1;
kernRight = K2;
layers = (
{
layerId = "EF32B9A4-AE44-476D-9D4B-CF47E47A5F6C";
shapes = (
{
closed = 1;
nodes = (
(269,154,l),
(269,313,l),
(196,313,l),
(196,0,l),
(100,0,l),
(100,700,l),
(196,700,l),
(196,403,l),
(269,403,l),
(269,546,l),
(359,546,l),
(359,403,l),
(403,403,l),
(596,700,l),
(702,700,l),
(487,364,l),
(733,0,l),
(620,0,l),
(412,313,l),
(359,313,l),
(359,154,l)
);
}
);
width = 743;
}
);
metricLeft = Kacyr;
metricRight = Kacyr;
unicode = 1180;
},
{
glyphname = kaverticalstrokecyr;
kernLeft = n1;
kernRight = k2;
layers = (
{
layerId = "EF32B9A4-AE44-476D-9D4B-CF47E47A5F6C";
shapes = (
{
closed = 1;
nodes = (
(243,103,l),
(323,103,l),
(323,230,l),
(366,230,l),
(528,0,l),
(637,0,l),
(435,278,l),
(598,520,l),
(493,520,l),
(360,316,l),
(323,316,l),
(323,431,l),
(243,431,l),
(243,316,l),
(179,316,l),
(179,520,l),
(85,520,l),
(85,0,l),
(179,0,l),
(179,230,l),
(243,230,l)
);
}
);
width = 662;
}
);
metricLeft = kacyr;
metricRight = kacyr;
unicode = 1181;
},
{
glyphname = Haabkhcyr;
kernLeft = O1;
kernRight = Haabkhcyr2;
layers = (
{
layerId = "EF32B9A4-AE44-476D-9D4B-CF47E47A5F6C";
shapes = (
{
closed = 1;
nodes = (
(683,208,o),
(720,289,o),
(720,409,cs),
(720,536,o),
(667,619,o),
(586,619,cs),
(505,619,o),
(452,536,o),
(452,409,cs),
(452,289,o),
(489,208,o),
(586,120,c)
);
},
{
closed = 1;
nodes = (
(780,-10,ls),
(702,-10,o),
(624,6,o),
(586,30,c),
(548,6,o),
(490,-10,o),
(435,-10,cs),
(216,-10,o),
(70,142,o),
(70,369,cs),
(70,581,o),
(183,707,o),
(350,707,c),
(350,619,l),
(241,619,o),
(168,527,o),
(168,369,cs),
(168,198,o),
(281,76,o),
(443,76,cs),
(467,76,o),
(490,81,o),
(505,87,c),
(410,159,o),
(354,277,o),
(354,409,cs),
(354,589,o),
(438,707,o),
(586,707,cs),
(734,707,o),
(817,592,o),
(817,412,cs),
(817,279,o),
(761,158,o),
(667,87,c),
(688,80,o),
(745,76,o),
(809,76,cs),
(818,76,l),
(818,-10,l)
);
}
);
width = 888;
}
);
metricLeft = O;
metricRight = Ocyr;
unicode = 1192;
},
{
glyphname = haabkhcyr;
kernLeft = o1;
kernRight = haabkhcyr2;
layers = (
{
layerId = "EF32B9A4-AE44-476D-9D4B-CF47E47A5F6C";
shapes = (
{
closed = 1;
nodes = (
(262,529,l),
(134,529,o),
(50,427,o),
(50,272,cs),
(50,105,o),
(157,-5,o),
(319,-5,cs),
(370,-5,o),
(416,6,o),
(446,27,c),
(480,6,o),
(539,-4,o),
(592,-4,cs),
(617,-4,l),
(617,78,l),
(602,78,ls),
(563,78,o),
(545,80,o),
(530,84,c),
(589,137,o),
(622,216,o),
(622,297,cs),
(622,433,o),
(549,522,o),
(439,522,cs),
(333,522,o),
(262,433,o),
(262,296,cs),
(262,224,o),
(287,136,o),
(361,81,c),
(356,79,o),
(329,77,o),
(319,77,cs),
(214,77,o),
(143,155,o),
(143,272,cs),
(143,375,o),
(191,443,o),
(262,443,c)
);
},
{
closed = 1;
nodes = (
(351,387,o),
(386,440,o),
(439,440,cs),
(493,440,o),
(529,383,o),
(529,297,cs),
(529,220,o),
(504,161,o),
(444,109,c),
(378,161,o),
(351,222,o),
(351,297,cs)
);
}
);
width = 662;
}
);
metricLeft = ocyr;
metricRight = "=о-10";
unicode = 1193;
},
{
glyphname = Semisoftcyr;
kernLeft = Semisoftcyr1;
kernRight = Semisoftcyr2;
layers = (
{
layerId = "EF32B9A4-AE44-476D-9D4B-CF47E47A5F6C";
shapes = (
{
closed = 1;
nodes = (
(195,700,l),
(195,610,l),
(100,610,l),
(100,520,l),
(195,520,l),
(195,0,l),
(492,0,ls),
(632,0,o),
(725,90,o),
(725,220,cs),
(725,350,o),
(632,440,o),
(492,440,cs),
(291,440,l),
(291,520,l),
(539,520,l),
(539,610,l),
(291,610,l),
(291,700,l)
);
},
{
closed = 1;
nodes = (
(291,90,l),
(291,350,l),
(475,350,ls),
(571,350,o),
(629,300,o),
(629,220,cs),
(629,140,o),
(571,90,o),
(475,90,cs)
);
}
);
width = 780;
}
);
metricLeft = Softcyr;
metricRight = Softcyr;
unicode = 1164;
},
{
glyphname = semisoftcyr;
kernLeft = semisoftcyr1;
kernRight = softcyr2;
layers = (
{
layerId = "EF32B9A4-AE44-476D-9D4B-CF47E47A5F6C";
shapes = (
{
closed = 1;
nodes = (
(136,0,l),
(416,0,ls),
(516,0,o),
(586,81,o),
(586,175,cs),
(586,269,o),
(516,350,o),
(416,350,cs),
(228,350,l),
(228,406,l),
(391,406,l),
(391,476,l),
(228,476,l),
(228,520,l),
(136,520,l),
(136,476,l),
(75,476,l),
(75,406,l),
(136,406,l)
);
},
{
closed = 1;
nodes = (
(228,82,l),
(228,268,l),
(392,268,ls),
(456,268,o),
(494,233,o),
(494,175,cs),
(494,117,o),
(456,82,o),
(392,82,cs)
);
}
);
width = 636;
}
);
metricLeft = "=n-10";
metricRight = softcyr;
unicode = 1165;
},
{
glyphname = Koppacyr;
kernLeft = O1;
kernRight = Koppacyr2;
layers = (
{
layerId = "EF32B9A4-AE44-476D-9D4B-CF47E47A5F6C";
shapes = (
{
closed = 1;
nodes = (
(454,-180,l),
(544,-180,l),
(544,86,l),
(515,81,o),
(486,78,o),
(459,78,cs),
(276,78,o),
(168,185,o),
(168,350,cs),
(168,514,o),
(274,622,o),
(448,622,cs),
(511,622,o),
(584,608,o),
(637,575,c),
(637,669,l),
(585,696,o),
(522,710,o),
(451,710,cs),
(221,710,o),
(70,560,o),
(70,350,cs),
(70,143,o),
(221,-10,o),
(454,-10,c)
);
}
);
width = 652;
}
);
metricLeft = Escyr;
metricRight = "=С-40";
unicode = 1152;
},
{
glyphname = koppacyr;
kernLeft = o1;
kernRight = koppacyr2;
layers = (
{
layerId = "EF32B9A4-AE44-476D-9D4B-CF47E47A5F6C";
shapes = (
{
closed = 1;
nodes = (
(336,-180,l),
(428,-180,l),
(428,80,l),
(402,74,o),
(376,72,o),
(354,72,cs),
(354,72,l),
(215,72,o),
(143,158,o),
(143,260,cs),
(143,362,o),
(215,448,o),
(348,448,cs),
(383,448,o),
(432,442,o),
(472,424,c),
(472,504,l),
(429,521,o),
(380,530,o),
(330,530,cs),
(156,530,o),
(50,415,o),
(50,260,cs),
(50,105,o),
(156,-10,o),
(336,-10,c)
);
}
);
width = 487;
}
);
metricLeft = escyr;
metricRight = "=с-40";
unicode = 1153;
},
{
glyphname = Hastrokecyr;
kernLeft = Hastrokecyr1;
kernRight = Hastrokecyr2;
layers = (
{
layerId = "EF32B9A4-AE44-476D-9D4B-CF47E47A5F6C";
shapes = (
{
closed = 1;
nodes = (
(25,0,l),
(143,0,l),
(332,282,l),
(527,0,l),
(638,0,l),
(420,315,l),
(562,315,l),
(562,393,l),
(408,393,l),
(615,700,l),
(510,700,l),
(332,443,l),
(155,700,l),
(51,700,l),
(254,393,l),
(100,393,l),
(100,315,l),
(245,315,l)
);
}
);
width = 663;
}
);
metricLeft = Hacyr;
metricRight = Hacyr;
unicode = 1278;
},
{
glyphname = hastrokecyr;
kernLeft = hastrokecyr1;
kernRight = hastrokecyr2;
layers = (
{
layerId = "EF32B9A4-AE44-476D-9D4B-CF47E47A5F6C";
shapes = (
{
closed = 1;
nodes = (
(30,0,l),
(144,0,l),
(287,201,l),
(439,0,l),
(543,0,l),
(374,229,l),
(486,229,l),
(486,298,l),
(357,298,l),
(518,520,l),
(414,520,l),
(287,351,l),
(163,520,l),
(60,520,l),
(216,298,l),
(86,298,l),
(86,229,l),
(200,229,l)
);
}
);
width = 573;
}
);
metricLeft = hacyr;
metricRight = hacyr;
unicode = 1279;
},
{
glyphname = Ertickcyr;
kernLeft = H1;
kernRight = Ertickcyr2;
layers = (
{
layerId = "EF32B9A4-AE44-476D-9D4B-CF47E47A5F6C";
shapes = (
{
closed = 1;
nodes = (
(100,700,l),
(100,0,l),
(196,0,l),
(196,266,l),
(401,266,ls),
(446,266,o),
(487,277,o),
(520,298,c),
(577,247,l),
(634,311,l),
(582,358,l),
(604,392,o),
(616,434,o),
(616,481,cs),
(616,608,o),
(526,700,o),
(401,700,cs)
);
},
{
closed = 1;
nodes = (
(196,356,l),
(196,610,l),
(384,610,ls),
(470,610,o),
(520,560,o),
(520,480,cs),
(520,458,o),
(516,439,o),
(509,423,c),
(430,494,l),
(373,430,l),
(445,365,l),
(427,359,o),
(407,356,o),
(384,356,cs)
);
}
);
width = 669;
}
);
metricLeft = Ercyr;
metricRight = "=Р-20";
unicode = 1166;
},
{
glyphname = ertickcyr;
kernLeft = p1;
kernRight = ertickcyr2;
layers = (
{
layerId = "EF32B9A4-AE44-476D-9D4B-CF47E47A5F6C";
shapes = (
{
closed = 1;
nodes = (
(177,-180,l),
(85,-180,l),
(85,520,l),
(161,520,l),
(171,458,l),
(173,458,l),
(217,503,o),
(279,530,o),
(353,530,cs),
(498,530,o),
(597,424,o),
(597,262,cs),
(597,190,o),
(577,128,o),
(543,82,c),
(603,22,l),
(545,-37,l),
(482,26,l),
(446,3,o),
(402,-10,o),
(353,-10,cs),
(281,-10,o),
(221,16,o),
(177,58,c)
);
},
{
closed = 1;
nodes = (
(504,378,o),
(436,448,o),
(334,448,cs),
(226,448,o),
(164,368,o),
(164,260,cs),
(164,152,o),
(226,72,o),
(334,72,cs),
(365,72,o),
(392,79,o),
(416,92,c),
(351,157,l),
(410,215,l),
(476,149,l),
(494,179,o),
(504,218,o),
(504,262,cs)
);
}
);
width = 633;
}
);
metricLeft = ercyr;
metricRight = "=р-20";
unicode = 1167;
},
{
glyphname = Pehookcyr;
kernLeft = H1;
kernRight = Pehookcyr2;
layers = (
{
layerId = "EF32B9A4-AE44-476D-9D4B-CF47E47A5F6C";
shapes = (
{
closed = 1;
nodes = (
(1000,-12,o),
(958,-83,o),
(862,-83,cs),
(833,-83,o),
(805,-77,o),
(783,-67,c),
(783,-155,l),
(809,-164,o),
(847,-170,o),
(876,-170,cs),
(1011,-170,o),
(1092,-55,o),
(1092,98,cs),
(1092,280,o),
(997,398,o),
(836,398,cs),
(787,398,o),
(740,389,o),
(696,374,c),
(696,700,l),
(100,700,l),
(100,0,l),
(196,0,l),
(196,610,l),
(600,610,l),
(600,0,l),
(696,0,l),
(696,288,l),
(741,307,o),
(764,312,o),
(822,312,cs),
(937,312,o),
(1000,229,o),
(1000,98,cs)
);
}
);
width = 1056;
}
);
metricLeft = H;
unicode = 1190;
},
{
glyphname = pehookcyr;
kernLeft = n1;
kernRight = pehookcyr2;
layers = (
{
layerId = "EF32B9A4-AE44-476D-9D4B-CF47E47A5F6C";
shapes = (
{
closed = 1;
nodes = (
(463,0,l),
(555,0,l),
(555,198,l),
(585,209,o),
(617,215,o),
(655,215,cs),
(745,215,o),
(793,160,o),
(793,56,cs),
(793,-54,o),
(751,-103,o),
(655,-103,cs),
(626,-103,o),
(598,-97,o),
(576,-87,c),
(576,-175,l),
(602,-184,o),
(640,-190,o),
(669,-190,cs),
(804,-190,o),
(885,-97,o),
(885,56,cs),
(885,209,o),
(804,302,o),
(669,302,cs),
(627,302,o),
(592,297,o),
(555,285,c),
(555,520,l),
(85,520,l),
(85,0,l),
(177,0,l),
(177,434,l),
(463,434,l)
);
}
);
width = 858;
}
);
metricLeft = encyr;
unicode = 1191;
},
{
glyphname = Gestrokecyr.loclBSH;
kernLeft = H1;
layers = (
{
layerId = "EF32B9A4-AE44-476D-9D4B-CF47E47A5F6C";
shapes = (
{
closed = 1;
nodes = (
(100,700,l),
(100,0,l),
(196,0,l),
(196,296,l),
(526,296,l),
(526,386,l),
(196,386,l),
(196,610,l),
(582,610,l),
(582,700,l)
);
}
);
width = 627;
}
);
metricLeft = F;
metricRight = F;
},
{
glyphname = gestrokecyr.loclBSH;
kernLeft = n1;
kernRight = gestrokecyrloclBSH2;
layers = (
{
layerId = "EF32B9A4-AE44-476D-9D4B-CF47E47A5F6C";
shapes = (
{
closed = 1;
nodes = (
(85,0,l),
(177,0,l),
(177,200,l),
(363,200,l),
(363,286,l),
(177,286,l),
(177,434,l),
(461,434,l),
(461,520,l),
(85,520,l)
);
}
);
width = 496;
}
);
metricLeft = encyr;
metricRight = "=н-50";
},
{
glyphname = Zetailcyr.loclBSH;
layers = (
{
layerId = "EF32B9A4-AE44-476D-9D4B-CF47E47A5F6C";
shapes = (
{
closed = 1;
nodes = (
(474,447,o),
(423,406,o),
(342,406,cs),
(209,406,l),
(209,318,l),
(346,318,ls),
(438,318,o),
(500,270,o),
(500,199,cs),
(500,124,o),
(430,78,o),
(318,78,cs),
(209,78,o),
(107,121,o),
(50,154,c),
(50,60,l),
(111,24,o),
(195,-8,o),
(299,-10,c),
(324,-32,o),
(330,-55,o),
(330,-75,cs),
(330,-108,o),
(313,-117,o),
(285,-117,cs),
(269,-117,o),
(255,-114,o),
(242,-107,c),
(242,-175,l),
(259,-185,o),
(275,-188,o),
(295,-188,cs),
(357,-188,o),
(395,-159,o),
(395,-94,cs),
(395,-66,o),
(388,-34,o),
(357,-8,c),
(503,5,o),
(596,80,o),
(596,192,cs),
(596,275,o),
(544,339,o),
(460,367,c),
(534,399,o),
(570,457,o),
(570,525,cs),
(570,636,o),
(472,710,o),
(300,710,cs),
(222,710,o),
(148,695,o),
(76,657,c),
(76,563,l),
(145,604,o),
(222,622,o),
(297,622,cs),
(414,622,o),
(474,579,o),
(474,510,cs)
);
}
);
width = 656;
}
);
metricLeft = Zecyr;
metricRight = Zecyr;
},
{
glyphname = zetailcyr.loclBSH;
layers = (
{
layerId = "EF32B9A4-AE44-476D-9D4B-CF47E47A5F6C";
shapes = (
{
closed = 1;
nodes = (
(50,21,l),
(106,-2,o),
(175,-10,o),
(235,-10,c),
(260,-32,o),
(266,-55,o),
(266,-75,cs),
(266,-108,o),
(249,-117,o),
(221,-117,cs),
(205,-117,o),
(191,-114,o),
(178,-107,c),
(178,-175,l),
(195,-185,o),
(211,-188,o),
(231,-188,cs),
(293,-188,o),
(331,-159,o),
(331,-94,cs),
(331,-66,o),
(324,-33,o),
(292,-7,c),
(432,9,o),
(478,83,o),
(478,155,cs),
(478,221,o),
(438,253,o),
(381,272,c),
(428,288,o),
(471,325,o),
(471,385,cs),
(471,476,o),
(371,530,o),
(232,530,cs),
(169,530,o),
(107,519,o),
(56,497,c),
(56,414,l),
(99,433,o),
(164,448,o),
(231,448,cs),
(313,448,o),
(371,425,o),
(371,376,cs),
(371,340,o),
(339,312,o),
(257,312,cs),
(155,312,l),
(155,232,l),
(257,232,ls),
(333,232,o),
(378,208,o),
(378,156,cs),
(378,94,o),
(316,72,o),
(234,72,cs),
(168,72,o),
(96,86,o),
(50,108,c)
);
}
);
width = 538;
}
);
metricLeft = Zecyr;
metricRight = Zecyr;
},
{
glyphname = Estailcyr.loclBSH;
kernLeft = C1;
kernRight = C2;
layers = (
{
layerId = "EF32B9A4-AE44-476D-9D4B-CF47E47A5F6C";
shapes = (
{
closed = 1;
nodes = (
(647,120,l),
(595,91,o),
(522,78,o),
(459,78,cs),
(276,78,o),
(168,185,o),
(168,350,cs),
(168,514,o),
(274,622,o),
(448,622,cs),
(511,622,o),
(584,608,o),
(637,575,c),
(637,669,l),
(585,696,o),
(522,710,o),
(451,710,cs),
(221,710,o),
(70,560,o),
(70,350,cs),
(70,163,o),
(194,23,o),
(389,-5,c),
(419,-29,o),
(426,-53,o),
(426,-75,cs),
(426,-108,o),
(409,-117,o),
(381,-117,cs),
(365,-117,o),
(351,-114,o),
(338,-107,c),
(338,-175,l),
(355,-185,o),
(371,-188,o),
(391,-188,cs),
(453,-188,o),
(491,-159,o),
(491,-94,cs),
(491,-67,o),
(484,-35,o),
(455,-10,c),
(521,-10,o),
(587,-1,o),
(647,27,c)
);
}
);
width = 702;
}
);
metricLeft = Escyr;
metricRight = Escyr;
},
{
glyphname = estailcyr.loclBSH;
kernLeft = o1;
kernRight = c2;
layers = (
{
layerId = "EF32B9A4-AE44-476D-9D4B-CF47E47A5F6C";
shapes = (
{
closed = 1;
nodes = (
(50,121,o),
(136,15,o),
(283,-6,c),
(312,-29,o),
(318,-54,o),
(318,-75,cs),
(318,-108,o),
(301,-117,o),
(273,-117,cs),
(257,-117,o),
(243,-114,o),
(230,-107,c),
(230,-175,l),
(247,-185,o),
(263,-188,o),
(283,-188,cs),
(345,-188,o),
(383,-159,o),
(383,-94,cs),
(383,-67,o),
(376,-35,o),
(347,-10,c),
(392,-9,o),
(438,0,o),
(478,15,c),
(478,96,l),
(440,78,o),
(391,72,o),
(354,72,cs),
(215,72,o),
(143,158,o),
(143,260,cs),
(143,362,o),
(215,448,o),
(348,448,cs),
(383,448,o),
(432,442,o),
(472,424,c),
(472,504,l),
(429,521,o),
(380,530,o),
(330,530,cs),
(156,530,o),
(50,415,o),
(50,260,cs)
);
}
);
width = 533;
}
);
metricLeft = escyr;
metricRight = escyr;
},
{
glyphname = Estailcyr.loclCHU;
kernLeft = C1;
kernRight = C2;
layers = (
{
layerId = "EF32B9A4-AE44-476D-9D4B-CF47E47A5F6C";
shapes = (
{
closed = 1;
nodes = (
(647,120,l),
(595,91,o),
(522,78,o),
(459,78,cs),
(276,78,o),
(168,185,o),
(168,350,cs),
(168,514,o),
(274,622,o),
(448,622,cs),
(511,622,o),
(584,608,o),
(637,575,c),
(637,669,l),
(585,696,o),
(522,710,o),
(451,710,cs),
(221,710,o),
(70,560,o),
(70,350,cs),
(70,163,o),
(193,23,o),
(388,-5,c),
(371,-66,l),
(384,-75,l),
(389,-73,o),
(397,-71,o),
(404,-71,cs),
(428,-71,o),
(441,-81,o),
(441,-101,cs),
(441,-119,o),
(430,-130,o),
(413,-130,cs),
(395,-130,o),
(384,-116,o),
(384,-98,c),
(321,-98,l),
(321,-153,o),
(358,-188,o),
(413,-188,cs),
(468,-188,o),
(505,-153,o),
(505,-98,cs),
(505,-57,o),
(484,-32,o),
(450,-22,c),
(453,-10,l),
(520,-10,o),
(586,-2,o),
(647,27,c)
);
}
);
width = 702;
}
);
metricLeft = C;
metricRight = C;
},
{
glyphname = estailcyr.loclCHU;
kernLeft = o1;
kernRight = c2;
layers = (
{
layerId = "EF32B9A4-AE44-476D-9D4B-CF47E47A5F6C";
shapes = (
{
closed = 1;
nodes = (
(205,-98,l),
(205,-153,o),
(242,-188,o),
(297,-188,cs),
(352,-188,o),
(389,-153,o),
(389,-98,cs),
(389,-57,o),
(368,-32,o),
(334,-22,c),
(337,-10,l),
(386,-10,o),
(435,-1,o),
(478,15,c),
(478,96,l),
(440,78,o),
(391,72,o),
(354,72,cs),
(215,72,o),
(143,158,o),
(143,260,cs),
(143,362,o),
(215,448,o),
(348,448,cs),
(383,448,o),
(432,442,o),
(472,424,c),
(472,504,l),
(429,521,o),
(380,530,o),
(330,530,cs),
(156,530,o),
(50,415,o),
(50,260,cs),
(50,124,o),
(131,19,o),
(272,-5,c),
(255,-66,l),
(268,-75,l),
(273,-73,o),
(281,-71,o),
(288,-71,cs),
(312,-71,o),
(325,-81,o),
(325,-101,cs),
(325,-119,o),
(314,-130,o),
(297,-130,cs),
(279,-130,o),
(268,-116,o),
(268,-98,c)
);
}
);
width = 533;
}
);
metricLeft = c;
metricRight = c;
},
{
color = (153,154,255,255);
glyphname = endash;
layers = (
{
layerId = "EF32B9A4-AE44-476D-9D4B-CF47E47A5F6C";
shapes = (
{
closed = 1;
nodes = (
(25,232,l),
(441,232,l),
(441,320,l),
(25,320,l)
);
}
);
width = 466;
}
);
metricLeft = hyphen;
metricRight = "=|";
unicode = 8211;
},
{
color = (153,154,255,255);
glyphname = emdash;
layers = (
{
layerId = "EF32B9A4-AE44-476D-9D4B-CF47E47A5F6C";
shapes = (
{
closed = 1;
nodes = (
(25,232,l),
(701,232,l),
(701,320,l),
(25,320,l)
);
}
);
width = 726;
}
);
metricLeft = hyphen;
metricRight = "=|";
unicode = 8212;
},
{
glyphname = hyphen;
layers = (
{
layerId = "EF32B9A4-AE44-476D-9D4B-CF47E47A5F6C";
shapes = (
{
closed = 1;
nodes = (
(25,232,l),
(341,232,l),
(341,320,l),
(25,320,l)
);
}
);
width = 366;
}
);
metricLeft = "=25";
metricRight = "=|";
unicode = 45;
},
{
color = (153,154,255,255);
glyphname = "hyphen-gnrl.case";
layers = (
{
layerId = "EF32B9A4-AE44-476D-9D4B-CF47E47A5F6C";
shapes = (
{
closed = 1;
nodes = (
(25,312,l),
(341,312,l),
(341,400,l),
(25,400,l)
);
}
);
width = 366;
}
);
metricRight = "=|";
},
{
color = (153,154,255,255);
glyphname = nonbreakinghyphen.case;
layers = (
{
layerId = "EF32B9A4-AE44-476D-9D4B-CF47E47A5F6C";
shapes = (
{
closed = 1;
nodes = (
(25,312,l),
(341,312,l),
(341,400,l),
(25,400,l)
);
}
);
width = 340;
}
);
},
{
color = (153,154,255,255);
glyphname = endash.case;
layers = (
{
layerId = "EF32B9A4-AE44-476D-9D4B-CF47E47A5F6C";
shapes = (
{
closed = 1;
nodes = (
(25,312,l),
(441,312,l),
(441,400,l),
(25,400,l)
);
}
);
width = 466;
}
);
metricLeft = hyphen;
metricRight = "=|";
},
{
color = (153,154,255,255);
glyphname = emdash.case;
layers = (
{
layerId = "EF32B9A4-AE44-476D-9D4B-CF47E47A5F6C";
shapes = (
{
closed = 1;
nodes = (
(25,312,l),
(701,312,l),
(701,400,l),
(25,400,l)
);
}
);
width = 726;
}
);
metricLeft = hyphen;
metricRight = "=|";
},
{
glyphname = hyphen.case;
layers = (
{
layerId = "EF32B9A4-AE44-476D-9D4B-CF47E47A5F6C";
shapes = (
{
closed = 1;
nodes = (
(21,312,l),
(337,312,l),
(337,400,l),
(21,400,l)
);
}
);
width = 358;
}
);
metricLeft = "=н/4";
metricRight = "=|";
},
{
color = (153,154,255,255);
glyphname = equal;
layers = (
{
guides = (
{
pos = (0,350);
}
);
layerId = "EF32B9A4-AE44-476D-9D4B-CF47E47A5F6C";
shapes = (
{
closed = 1;
nodes = (
(25,403,l),
(461,403,l),
(461,489,l),
(25,489,l)
);
},
{
closed = 1;
nodes = (
(25,211,l),
(461,211,l),
(461,297,l),
(25,297,l)
);
}
);
width = 486;
}
);
metricLeft = minus;
metricRight = "=|";
unicode = 61;
},
{
glyphname = globeMeridians;
layers = (
{
layerId = "EF32B9A4-AE44-476D-9D4B-CF47E47A5F6C";
shapes = (
{
closed = 1;
nodes = (
(70,76,o),
(252,-110,o),
(520,-110,cs),
(788,-110,o),
(970,76,o),
(970,342,cs),
(970,608,o),
(788,794,o),
(520,794,cs),
(252,794,o),
(70,608,o),
(70,342,cs)
);
},
{
closed = 1;
nodes = (
(674,314,o),
(673,287,o),
(671,262,c),
(566,262,l),
(566,422,l),
(671,422,l),
(673,397,o),
(674,370,o),
(674,342,cs)
);
},
{
closed = 1;
nodes = (
(369,262,l),
(367,287,o),
(366,314,o),
(366,342,cs),
(366,370,o),
(367,397,o),
(369,422,c),
(474,422,l),
(474,262,l)
);
},
{
closed = 1;
nodes = (
(274,314,o),
(275,288,o),
(277,262,c),
(173,262,l),
(168,287,o),
(166,314,o),
(166,342,cs),
(166,370,o),
(168,397,o),
(173,422,c),
(277,422,l),
(275,396,o),
(274,370,o),
(274,342,cs)
);
},
{
closed = 1;
nodes = (
(874,314,o),
(872,287,o),
(867,262,c),
(763,262,l),
(765,288,o),
(766,314,o),
(766,342,cs),
(766,370,o),
(765,396,o),
(763,422,c),
(867,422,l),
(872,397,o),
(874,370,o),
(874,342,cs)
);
},
{
closed = 1;
nodes = (
(566,176,l),
(661,176,l),
(644,82,o),
(611,16,o),
(566,-10,c)
);
},
{
closed = 1;
nodes = (
(474,176,l),
(474,-10,l),
(429,16,o),
(396,82,o),
(379,176,c)
);
},
{
closed = 1;
nodes = (
(379,508,l),
(396,602,o),
(429,668,o),
(474,694,c),
(474,508,l)
);
},
{
closed = 1;
nodes = (
(566,508,l),
(566,694,l),
(611,668,o),
(644,602,o),
(661,508,c)
);
},
{
closed = 1;
nodes = (
(722,64,o),
(740,117,o),
(751,176,c),
(841,176,l),
(811,109,o),
(762,55,o),
(699,21,c)
);
},
{
closed = 1;
nodes = (
(199,508,l),
(229,575,o),
(278,629,o),
(341,663,c),
(318,620,o),
(300,567,o),
(289,508,c)
);
},
{
closed = 1;
nodes = (
(289,176,l),
(300,117,o),
(318,64,o),
(341,21,c),
(278,55,o),
(229,109,o),
(199,176,c)
);
},
{
closed = 1;
nodes = (
(751,508,l),
(740,567,o),
(722,620,o),
(699,663,c),
(762,629,o),
(811,575,o),
(841,508,c)
);
}
);
width = 1040;
}
);
metricLeft = O;
metricRight = O;
unicode = 127760;
},
{
glyphname = copyright;
layers = (
{
layerId = "EF32B9A4-AE44-476D-9D4B-CF47E47A5F6C";
shapes = (
{
closed = 1;
nodes = (
(70,140,o),
(218,-10,o),
(428,-10,cs),
(638,-10,o),
(786,140,o),
(786,350,cs),
(786,560,o),
(638,710,o),
(428,710,cs),
(218,710,o),
(70,560,o),
(70,350,cs)
);
},
{
closed = 1;
nodes = (
(148,526,o),
(261,642,o),
(428,642,cs),
(596,642,o),
(708,526,o),
(708,350,cs),
(708,174,o),
(596,58,o),
(428,58,cs),
(260,58,o),
(148,174,o),
(148,350,cs)
);
},
{
closed = 1;
nodes = (
(486,149,o),
(523,155,o),
(556,167,c),
(556,234,l),
(528,221,o),
(491,216,o),
(464,216,cs),
(361,216,o),
(307,279,o),
(307,351,cs),
(307,424,o),
(361,486,o),
(459,486,cs),
(485,486,o),
(522,482,o),
(551,468,c),
(551,534,l),
(519,547,o),
(482,554,o),
(445,554,cs),
(314,554,o),
(235,467,o),
(235,351,cs),
(235,235,o),
(314,149,o),
(449,149,cs)
);
}
);
width = 856;
}
);
metricLeft = O;
metricRight = "=|";
unicode = 169;
},
{
color = (153,154,255,255);
glyphname = arrowupdn;
layers = (
{
layerId = "EF32B9A4-AE44-476D-9D4B-CF47E47A5F6C";
shapes = (
{
closed = 1;
nodes = (
(620,144,l),
(620,262,l),
(407,69,l),
(407,631,l),
(620,438,l),
(620,556,l),
(360,788,l),
(100,556,l),
(100,438,l),
(313,631,l),
(313,69,l),
(100,262,l),
(100,144,l),
(360,-88,l)
);
}
);
width = 720;
}
);
unicode = 8597;
},
{
color = (153,154,255,255);
glyphname = arrowNW;
layers = (
{
layerId = "EF32B9A4-AE44-476D-9D4B-CF47E47A5F6C";
shapes = (
{
closed = 1;
nodes = (
(500,500,l),
(100,500,l),
(100,100,l),
(186,14,l),
(186,355,l),
(498,39,l),
(560,105,l),
(247,418,l),
(582,418,l)
);
}
);
width = 630;
}
);
metricLeft = "=100";
unicode = 8598;
},
{
color = (153,154,255,255);
glyphname = arrowNE;
layers = (
{
layerId = "EF32B9A4-AE44-476D-9D4B-CF47E47A5F6C";
shapes = (
{
closed = 1;
nodes = (
(48,418,l),
(383,418,l),
(70,105,l),
(132,39,l),
(444,355,l),
(444,14,l),
(530,100,l),
(530,500,l),
(130,500,l)
);
}
);
width = 630;
}
);
metricLeft = "=48";
metricRight = "=100";
unicode = 8599;
},
{
color = (153,154,255,255);
glyphname = arrowSE;
layers = (
{
layerId = "EF32B9A4-AE44-476D-9D4B-CF47E47A5F6C";
shapes = (
{
closed = 1;
nodes = (
(134,14,l),
(534,14,l),
(534,414,l),
(452,496,l),
(452,155,l),
(136,475,l),
(74,409,l),
(383,100,l),
(48,100,l)
);
}
);
width = 634;
}
);
metricLeft = "=48";
metricRight = "=100";
unicode = 8600;
},
{
color = (153,154,255,255);
glyphname = arrowSW;
layers = (
{
layerId = "EF32B9A4-AE44-476D-9D4B-CF47E47A5F6C";
shapes = (
{
closed = 1;
nodes = (
(582,96,l),
(247,96,l),
(560,409,l),
(498,475,l),
(186,159,l),
(186,500,l),
(100,414,l),
(100,14,l),
(500,14,l)
);
}
);
width = 630;
}
);
metricLeft = "=100";
metricRight = "=48";
unicode = 8601;
},
{
color = (153,154,255,255);
glyphname = wifi;
layers = (
{
layerId = "EF32B9A4-AE44-476D-9D4B-CF47E47A5F6C";
shapes = (
{
closed = 1;
nodes = (
(642,-78,o),
(674,-110,o),
(718,-110,cs),
(762,-110,o),
(794,-78,o),
(794,-35,cs),
(794,8,o),
(762,40,o),
(718,40,cs),
(674,40,o),
(642,8,o),
(642,-35,cs)
);
},
{
closed = 1;
nodes = (
(157,451,l),
(294,592,o),
(489,676,o),
(718,676,cs),
(947,676,o),
(1142,592,o),
(1279,451,c),
(1366,538,l),
(1207,699,o),
(982,794,o),
(718,794,cs),
(454,794,o),
(229,699,o),
(70,538,c)
);
},
{
closed = 1;
nodes = (
(343,265,l),
(433,363,o),
(563,421,o),
(718,421,cs),
(873,421,o),
(1003,363,o),
(1093,265,c),
(1178,350,l),
(1068,469,o),
(908,539,o),
(718,539,cs),
(528,539,o),
(368,469,o),
(258,350,c)
);
},
{
closed = 1;
nodes = (
(521,87,l),
(566,137,o),
(639,167,o),
(718,167,cs),
(797,167,o),
(870,137,o),
(915,87,c),
(994,166,l),
(931,239,o),
(834,283,o),
(718,283,cs),
(602,283,o),
(505,239,o),
(442,166,c)
);
}
);
width = 1436;
}
);
metricLeft = O;
metricRight = O;
unicode = 128732;
},
{
color = (255,153,153,255);
glyphname = elevator;
layers = (
{
guides = (
{
pos = (0,387);
},
{
pos = (0,556);
},
{
pos = (0,259);
},
{
angle = 90;
pos = (282,0);
},
{
angle = 90;
pos = (458,0);
},
{
angle = 90;
pos = (616,0);
},
{
angle = 90;
pos = (-92,0);
},
{
angle = 90;
pos = (661,0);
},
{
angle = 90;
pos = (249,0);
},
{
pos = (0,324);
},
{
pos = (0,416);
}
);
layerId = "EF32B9A4-AE44-476D-9D4B-CF47E47A5F6C";
shapes = (
{
closed = 1;
nodes = (
(70,-100,l),
(846,-100,l),
(846,520,l),
(70,520,l)
);
},
{
closed = 1;
nodes = (
(142,-30,l),
(142,450,l),
(774,450,l),
(774,-30,l)
);
},
{
closed = 1;
nodes = (
(447,88,ls),
(447,91,o),
(448,92,o),
(451,92,cs),
(465,92,ls),
(468,92,o),
(469,91,o),
(469,88,cs),
(469,6,l),
(517,6,l),
(517,92,l),
(553,92,l),
(504,286,ls),
(498,309,o),
(481,322,o),
(458,322,cs),
(435,322,o),
(418,309,o),
(412,286,cs),
(363,92,l),
(399,92,l),
(399,6,l),
(447,6,l)
);
},
{
closed = 1;
nodes = (
(238,130,ls),
(238,133,o),
(239,134,o),
(242,134,cs),
(256,134,ls),
(259,134,o),
(260,133,o),
(260,130,cs),
(260,6,l),
(308,6,l),
(308,266,ls),
(308,301,o),
(286,322,o),
(252,322,cs),
(246,322,ls),
(212,322,o),
(190,301,o),
(190,266,cs),
(190,6,l),
(238,6,l)
);
},
{
closed = 1;
nodes = (
(656,130,ls),
(656,133,o),
(657,134,o),
(660,134,cs),
(674,134,ls),
(677,134,o),
(678,133,o),
(678,130,cs),
(678,6,l),
(726,6,l),
(726,266,ls),
(726,301,o),
(704,322,o),
(670,322,cs),
(664,322,ls),
(630,322,o),
(608,301,o),
(608,266,cs),
(608,6,l),
(656,6,l)
);
},
{
closed = 1;
nodes = (
(422,694,l),
(315,790,l),
(208,694,l),
(208,623,l),
(283,691,l),
(283,568,l),
(347,568,l),
(347,691,l),
(422,623,l)
);
},
{
closed = 1;
nodes = (
(708,660,l),
(708,731,l),
(633,663,l),
(633,786,l),
(569,786,l),
(569,663,l),
(494,731,l),
(494,660,l),
(601,564,l)
);
},
{
closed = 1;
nodes = (
(211,359,o),
(227,344,o),
(249,344,cs),
(271,344,o),
(287,359,o),
(287,381,cs),
(287,403,o),
(271,418,o),
(249,418,cs),
(227,418,o),
(211,403,o),
(211,381,cs)
);
},
{
closed = 1;
nodes = (
(629,359,o),
(645,344,o),
(667,344,cs),
(689,344,o),
(705,359,o),
(705,381,cs),
(705,403,o),
(689,418,o),
(667,418,cs),
(645,418,o),
(629,403,o),
(629,381,cs)
);
},
{
closed = 1;
nodes = (
(420,359,o),
(436,344,o),
(458,344,cs),
(480,344,o),
(496,359,o),
(496,381,cs),
(496,403,o),
(480,418,o),
(458,418,cs),
(436,418,o),
(420,403,o),
(420,381,cs)
);
}
);
width = 916;
}
);
metricLeft = O;
metricRight = O;
unicode = 128727;
},
{
color = (153,154,255,255);
glyphname = waterCloset;
layers = (
{
guides = (
{
angle = 90;
pos = (522,0);
},
{
angle = 90;
pos = (1166,0);
},
{
pos = (0,324);
},
{
pos = (0,485);
}
);
layerId = "EF32B9A4-AE44-476D-9D4B-CF47E47A5F6C";
shapes = (
{
closed = 1;
nodes = (
(1272,11,o),
(1131,148,o),
(1131,342,cs),
(1131,536,o),
(1269,673,o),
(1480,673,cs),
(1547,673,o),
(1606,661,o),
(1656,635,c),
(1656,545,l),
(1608,575,o),
(1541,588,o),
(1482,588,cs),
(1322,588,o),
(1225,492,o),
(1225,341,cs),
(1225,189,o),
(1324,96,o),
(1493,96,cs),
(1552,96,o),
(1618,108,o),
(1666,136,c),
(1666,45,l),
(1615,22,o),
(1554,11,o),
(1492,11,cs)
);
},
{
closed = 1;
nodes = (
(100,-52,ls),
(100,-85,o),
(115,-100,o),
(148,-100,cs),
(1779,-100,ls),
(1813,-100,o),
(1828,-85,o),
(1828,-52,cs),
(1828,736,ls),
(1828,769,o),
(1813,784,o),
(1779,784,cs),
(148,784,ls),
(115,784,o),
(100,769,o),
(100,736,cs)
);
},
{
closed = 1;
nodes = (
(234,664,l),
(327,664,l),
(468,165,l),
(607,664,l),
(711,664,l),
(850,165,l),
(991,664,l),
(1084,664,l),
(897,20,l),
(801,20,l),
(659,529,l),
(517,20,l),
(421,20,l)
);
}
);
width = 1928;
}
);
metricLeft = H;
metricRight = "=|";
unicode = 128702;
},
{
color = (153,154,255,255);
glyphname = bus;
layers = (
{
layerId = "EF32B9A4-AE44-476D-9D4B-CF47E47A5F6C";
shapes = (
{
closed = 1;
nodes = (
(250,27,l),
(886,27,l),
(886,-53,ls),
(886,-87,o),
(910,-110,o),
(944,-110,cs),
(978,-110,o),
(1002,-87,o),
(1002,-53,cs),
(1002,455,l),
(1003,455,ls),
(1042,455,o),
(1069,482,o),
(1069,520,cs),
(1069,558,o),
(1042,585,o),
(1003,585,cs),
(1002,585,l),
(1002,672,ls),
(1002,740,o),
(958,784,o),
(890,784,cs),
(246,784,ls),
(178,784,o),
(134,740,o),
(134,672,cs),
(134,585,l),
(96,584,o),
(70,557,o),
(70,520,cs),
(70,483,o),
(96,456,o),
(134,455,c),
(134,-53,ls),
(134,-87,o),
(158,-110,o),
(192,-110,cs),
(226,-110,o),
(250,-87,o),
(250,-53,cs)
);
},
{
closed = 1;
nodes = (
(230,357,l),
(230,646,ls),
(230,679,o),
(245,694,o),
(278,694,cs),
(858,694,ls),
(891,694,o),
(906,679,o),
(906,646,cs),
(906,357,l)
);
},
{
closed = 1;
nodes = (
(754,235,o),
(786,267,o),
(830,267,cs),
(874,267,o),
(906,235,o),
(906,192,cs),
(906,149,o),
(874,117,o),
(830,117,cs),
(786,117,o),
(754,149,o),
(754,192,cs)
);
},
{
closed = 1;
nodes = (
(230,235,o),
(262,267,o),
(306,267,cs),
(350,267,o),
(382,235,o),
(382,192,cs),
(382,149,o),
(350,117,o),
(306,117,cs),
(262,117,o),
(230,149,o),
(230,192,cs)
);
}
);
width = 1139;
}
);
metricLeft = O;
metricRight = O;
unicode = 128652;
},
{
color = (153,154,255,255);
glyphname = metro;
layers = (
{
guides = (
{
angle = 90;
pos = (428,0);
},
{
angle = 0.041;
pos = (10,350);
}
);
layerId = "EF32B9A4-AE44-476D-9D4B-CF47E47A5F6C";
shapes = (
{
closed = 1;
nodes = (
(302,155,o),
(329,128,o),
(368,128,cs),
(407,128,o),
(434,155,o),
(434,193,cs),
(434,231,o),
(407,258,o),
(368,258,cs),
(329,258,o),
(302,231,o),
(302,193,cs)
);
},
{
closed = 1;
nodes = (
(70,76,o),
(252,-110,o),
(520,-110,cs),
(788,-110,o),
(970,76,o),
(970,342,cs),
(970,608,o),
(788,794,o),
(520,794,cs),
(252,794,o),
(70,608,o),
(70,342,cs)
);
},
{
closed = 1;
nodes = (
(738,231,o),
(711,258,o),
(672,258,cs),
(633,258,o),
(606,231,o),
(606,193,cs),
(606,155,o),
(633,128,o),
(672,128,cs),
(711,128,o),
(738,155,o),
(738,193,cs)
);
},
{
closed = 1;
nodes = (
(802,124,ls),
(802,80,o),
(774,52,o),
(730,52,cs),
(310,52,ls),
(266,52,o),
(238,80,o),
(238,124,cs),
(238,560,ls),
(238,604,o),
(266,632,o),
(310,632,cs),
(730,632,ls),
(774,632,o),
(802,604,o),
(802,560,cs)
);
},
{
closed = 1;
nodes = (
(302,336,l),
(302,537,ls),
(302,559,o),
(311,568,o),
(333,568,cs),
(707,568,ls),
(728,568,o),
(738,559,o),
(738,537,cs),
(738,336,l)
);
}
);
width = 1040;
}
);
metricLeft = O;
metricRight = O;
unicode = 128647;
},
{
color = (153,154,255,255);
glyphname = train;
layers = (
{
layerId = "EF32B9A4-AE44-476D-9D4B-CF47E47A5F6C";
shapes = (
{
closed = 1;
nodes = (
(196,113,o),
(228,145,o),
(272,145,cs),
(316,145,o),
(348,113,o),
(348,70,cs),
(348,27,o),
(316,-5,o),
(272,-5,cs),
(228,-5,o),
(196,27,o),
(196,70,cs)
);
},
{
closed = 1;
nodes = (
(710,113,o),
(742,145,o),
(786,145,cs),
(830,145,o),
(862,113,o),
(862,70,cs),
(862,27,o),
(830,-5,o),
(786,-5,cs),
(742,-5,o),
(710,27,o),
(710,70,cs)
);
},
{
closed = 1;
nodes = (
(100,12,ls),
(100,-56,o),
(144,-100,o),
(212,-100,cs),
(846,-100,ls),
(914,-100,o),
(958,-56,o),
(958,12,cs),
(958,672,ls),
(958,740,o),
(914,784,o),
(846,784,cs),
(212,784,ls),
(144,784,o),
(100,740,o),
(100,672,cs)
);
},
{
closed = 1;
nodes = (
(196,221,l),
(196,490,l),
(862,490,l),
(862,221,l)
);
},
{
closed = 1;
nodes = (
(453,680,o),
(485,712,o),
(529,712,cs),
(573,712,o),
(605,680,o),
(605,637,cs),
(605,594,o),
(573,562,o),
(529,562,cs),
(485,562,o),
(453,594,o),
(453,637,cs)
);
}
);
width = 1058;
}
);
metricLeft = H;
metricRight = H;
unicode = 128646;
},
{
color = (153,154,255,255);
glyphname = shower;
layers = (
{
guides = (
{
pos = (0,1158);
}
);
layerId = "EF32B9A4-AE44-476D-9D4B-CF47E47A5F6C";
shapes = (
{
closed = 1;
nodes = (
(114,190,o),
(141,217,o),
(180,217,cs),
(219,217,o),
(246,190,o),
(246,152,cs),
(246,114,o),
(219,87,o),
(180,87,cs),
(141,87,o),
(114,114,o),
(114,152,cs)
);
},
{
closed = 1;
nodes = (
(114,380,o),
(141,407,o),
(180,407,cs),
(219,407,o),
(246,380,o),
(246,342,cs),
(246,304,o),
(219,277,o),
(180,277,cs),
(141,277,o),
(114,304,o),
(114,342,cs)
);
},
{
closed = 1;
nodes = (
(310,380,o),
(337,407,o),
(376,407,cs),
(415,407,o),
(442,380,o),
(442,342,cs),
(442,304,o),
(415,277,o),
(376,277,cs),
(337,277,o),
(310,304,o),
(310,342,cs)
);
},
{
closed = 1;
nodes = (
(100,471,l),
(100,561,l),
(230,561,l),
(230,672,ls),
(230,740,o),
(274,784,o),
(342,784,cs),
(584,784,ls),
(652,784,o),
(696,735,o),
(696,659,cs),
(696,-100,l),
(604,-100,l),
(604,635,ls),
(604,674,o),
(586,694,o),
(552,694,cs),
(374,694,ls),
(340,694,o),
(322,676,o),
(322,642,cs),
(322,561,l),
(456,561,l),
(456,471,l)
);
},
{
closed = 1;
nodes = (
(114,0,o),
(141,27,o),
(180,27,cs),
(219,27,o),
(246,0,o),
(246,-38,cs),
(246,-76,o),
(219,-103,o),
(180,-103,cs),
(141,-103,o),
(114,-76,o),
(114,-38,cs)
);
},
{
closed = 1;
nodes = (
(310,0,o),
(337,27,o),
(376,27,cs),
(415,27,o),
(442,0,o),
(442,-38,cs),
(442,-76,o),
(415,-103,o),
(376,-103,cs),
(337,-103,o),
(310,-76,o),
(310,-38,cs)
);
},
{
closed = 1;
nodes = (
(310,190,o),
(337,217,o),
(376,217,cs),
(415,217,o),
(442,190,o),
(442,152,cs),
(442,114,o),
(415,87,o),
(376,87,cs),
(337,87,o),
(310,114,o),
(310,152,cs)
);
}
);
width = 796;
}
);
metricLeft = H;
metricRight = H;
unicode = 128703;
},
{
color = (153,154,255,255);
glyphname = bed;
layers = (
{
guides = (
{
pos = (0,587);
},
{
angle = 90;
pos = (182,0);
}
);
layerId = "EF32B9A4-AE44-476D-9D4B-CF47E47A5F6C";
shapes = (
{
closed = 1;
nodes = (
(832,48,l),
(832,-100,l),
(924,-100,l),
(924,288,ls),
(924,356,o),
(880,400,o),
(812,400,cs),
(182,400,ls),
(114,400,o),
(70,356,o),
(70,288,cs),
(70,-100,l),
(162,-100,l),
(162,48,l)
);
},
{
closed = 1;
nodes = (
(288,529,ls),
(288,563,o),
(310,584,o),
(347,584,cs),
(650,584,ls),
(684,584,o),
(706,563,o),
(706,529,cs),
(706,448,l),
(798,448,l),
(798,672,ls),
(798,740,o),
(754,784,o),
(686,784,cs),
(308,784,ls),
(240,784,o),
(196,740,o),
(196,672,cs),
(196,448,l),
(288,448,l)
);
}
);
width = 994;
}
);
metricLeft = O;
metricRight = O;
unicode = 128719;
},
{
color = (153,154,255,255);
glyphname = restroom;
layers = (
{
layerId = "EF32B9A4-AE44-476D-9D4B-CF47E47A5F6C";
shapes = (
{
closed = 1;
nodes = (
(1195,676,o),
(1163,644,o),
(1119,644,cs),
(1075,644,o),
(1043,676,o),
(1043,719,cs),
(1043,762,o),
(1075,794,o),
(1119,794,cs),
(1163,794,o),
(1195,762,o),
(1195,719,cs)
);
},
{
closed = 1;
nodes = (
(1095,-63,ls),
(1095,-90,o),
(1075,-110,o),
(1047,-110,cs),
(1019,-110,o),
(999,-90,o),
(999,-60,cs),
(999,108,l),
(904,108,l),
(1047,491,ls),
(1054,509,o),
(1045,518,o),
(1033,518,cs),
(1021,518,o),
(1016,508,o),
(1011,494,cs),
(927,278,ls),
(916,251,o),
(889,241,o),
(865,254,cs),
(843,265,o),
(837,288,o),
(845,309,cs),
(918,497,ls),
(943,562,o),
(963,608,o),
(1031,608,cs),
(1207,608,ls),
(1275,608,o),
(1295,562,o),
(1320,497,cs),
(1393,309,ls),
(1401,288,o),
(1395,265,o),
(1373,254,cs),
(1349,241,o),
(1322,251,o),
(1311,278,cs),
(1227,494,ls),
(1222,508,o),
(1217,518,o),
(1205,518,cs),
(1193,518,o),
(1184,509,o),
(1191,491,cs),
(1334,108,l),
(1239,108,l),
(1239,-63,ls),
(1239,-90,o),
(1219,-110,o),
(1191,-110,cs),
(1163,-110,o),
(1143,-90,o),
(1143,-63,cs),
(1143,100,ls),
(1143,105,o),
(1140,108,o),
(1135,108,cs),
(1103,108,ls),
(1098,108,o),
(1095,105,o),
(1095,100,cs)
);
},
{
closed = 1;
nodes = (
(242,762,o),
(274,794,o),
(318,794,cs),
(362,794,o),
(394,762,o),
(394,719,cs),
(394,676,o),
(362,644,o),
(318,644,cs),
(274,644,o),
(242,676,o),
(242,719,cs)
);
},
{
closed = 1;
nodes = (
(294,-63,ls),
(294,-90,o),
(274,-110,o),
(246,-110,cs),
(218,-110,o),
(198,-90,o),
(198,-63,cs),
(198,496,ls),
(198,510,o),
(192,518,o),
(180,518,cs),
(168,518,o),
(162,510,o),
(162,496,cs),
(162,293,ls),
(162,267,o),
(143,248,o),
(116,248,cs),
(89,248,o),
(70,267,o),
(70,293,cs),
(70,497,ls),
(70,566,o),
(114,608,o),
(182,608,cs),
(454,608,ls),
(522,608,o),
(566,566,o),
(566,497,cs),
(566,293,ls),
(566,267,o),
(547,248,o),
(520,248,cs),
(493,248,o),
(474,267,o),
(474,293,cs),
(474,496,ls),
(474,510,o),
(468,518,o),
(456,518,cs),
(444,518,o),
(438,510,o),
(438,496,cs),
(438,-63,ls),
(438,-90,o),
(418,-110,o),
(390,-110,cs),
(362,-110,o),
(342,-90,o),
(342,-63,cs),
(342,240,ls),
(342,245,o),
(339,248,o),
(334,248,cs),
(302,248,ls),
(297,248,o),
(294,245,o),
(294,240,cs)
);
},
{
closed = 1;
nodes = (
(663,784,l),
(753,784,l),
(753,-100,l),
(663,-100,l)
);
}
);
width = 1467;
}
);
metricLeft = man;
metricRight = woman;
unicode = 128699;
},
{
color = (153,154,255,255);
glyphname = door;
layers = (
{
guides = (
{
pos = (0,241);
},
{
pos = (0,423);
}
);
layerId = "EF32B9A4-AE44-476D-9D4B-CF47E47A5F6C";
shapes = (
{
closed = 1;
nodes = (
(578,-100,ls),
(646,-100,o),
(690,-56,o),
(690,12,cs),
(690,672,ls),
(690,740,o),
(646,784,o),
(578,784,cs),
(182,784,ls),
(114,784,o),
(70,740,o),
(70,672,cs),
(70,12,ls),
(70,-56,o),
(114,-100,o),
(182,-100,cs)
);
},
{
closed = 1;
nodes = (
(142,385,o),
(174,417,o),
(218,417,cs),
(262,417,o),
(294,385,o),
(294,342,cs),
(294,299,o),
(262,267,o),
(218,267,cs),
(174,267,o),
(142,299,o),
(142,342,cs)
);
}
);
width = 760;
}
);
metricLeft = O;
metricRight = O;
unicode = 128682;
},
{
color = (153,154,255,255);
glyphname = noEntrySign;
layers = (
{
layerId = "EF32B9A4-AE44-476D-9D4B-CF47E47A5F6C";
shapes = (
{
closed = 1;
nodes = (
(70,76,o),
(252,-110,o),
(520,-110,cs),
(788,-110,o),
(970,76,o),
(970,342,cs),
(970,608,o),
(788,794,o),
(520,794,cs),
(252,794,o),
(70,608,o),
(70,342,cs)
);
},
{
closed = 1;
nodes = (
(166,430,o),
(190,507,o),
(232,567,c),
(747,53,l),
(688,5,o),
(610,-22,o),
(520,-22,cs),
(310,-22,o),
(166,126,o),
(166,342,cs)
);
},
{
closed = 1;
nodes = (
(874,254,o),
(850,178,o),
(808,118,c),
(294,632,l),
(353,679,o),
(431,706,o),
(520,706,cs),
(730,706,o),
(874,558,o),
(874,342,cs)
);
}
);
width = 1040;
}
);
metricLeft = O;
metricRight = O;
unicode = 128683;
},
{
glyphname = prohibitedSign;
layers = (
{
layerId = "EF32B9A4-AE44-476D-9D4B-CF47E47A5F6C";
shapes = (
{
closed = 1;
nodes = (
(70,76,o),
(252,-110,o),
(520,-110,cs),
(788,-110,o),
(970,76,o),
(970,342,cs),
(970,608,o),
(788,794,o),
(520,794,cs),
(252,794,o),
(70,608,o),
(70,342,cs)
);
},
{
closed = 1;
nodes = (
(166,430,o),
(190,507,o),
(232,567,c),
(747,53,l),
(688,5,o),
(610,-22,o),
(520,-22,cs),
(310,-22,o),
(166,126,o),
(166,342,cs)
);
},
{
closed = 1;
nodes = (
(874,254,o),
(850,178,o),
(808,118,c),
(294,632,l),
(353,679,o),
(431,706,o),
(520,706,cs),
(730,706,o),
(874,558,o),
(874,342,cs)
);
}
);
width = 1040;
}
);
metricLeft = O;
metricRight = O;
unicode = 128711;
},
{
color = (154,153,255,255);
glyphname = pedestrian;
layers = (
{
guides = (
{
pos = (0,791);
},
{
angle = 96.34;
pos = (438,248);
}
);
layerId = "EF32B9A4-AE44-476D-9D4B-CF47E47A5F6C";
shapes = (
{
closed = 1;
nodes = (
(365,117,ls),
(367,101,o),
(372,87,o),
(381,74,cs),
(497,-86,ls),
(518,-114,o),
(553,-114,o),
(573,-95,cs),
(592,-77,o),
(591,-50,o),
(576,-29,cs),
(474,109,ls),
(464,122,o),
(460,136,o),
(458,152,cs),
(424,495,l),
(472,452,ls),
(484,441,o),
(492,428,o),
(495,412,cs),
(510,339,ls),
(516,312,o),
(543,299,o),
(568,305,cs),
(592,311,o),
(607,334,o),
(601,360,cs),
(578,461,ls),
(574,477,o),
(567,490,o),
(555,501,cs),
(483,566,ls),
(451,594,o),
(415,608,o),
(372,608,cs),
(273,608,ls),
(230,608,o),
(200,589,o),
(183,550,cs),
(146,465,ls),
(139,450,o),
(130,438,o),
(118,427,cs),
(68,382,ls),
(48,364,o),
(45,336,o),
(62,317,cs),
(79,298,o),
(111,297,o),
(131,315,cs),
(194,372,ls),
(206,383,o),
(215,395,o),
(222,410,cs),
(245,463,l),
(263,280,l),
(121,-39,ls),
(110,-64,o),
(117,-90,o),
(140,-103,cs),
(166,-117,o),
(197,-105,o),
(209,-78,cs),
(352,244,l)
);
},
{
closed = 1;
nodes = (
(237,676,o),
(269,644,o),
(313,644,cs),
(357,644,o),
(389,676,o),
(389,719,cs),
(389,762,o),
(357,794,o),
(313,794,cs),
(269,794,o),
(237,762,o),
(237,719,cs)
);
}
);
width = 653;
}
);
metricLeft = o;
metricRight = o;
unicode = 128694;
},
{
color = (153,154,255,255);
glyphname = pedestrian.alt;
layers = (
{
guides = (
{
pos = (0,791);
},
{
angle = 96.34;
pos = (252,248);
}
);
layerId = "EF32B9A4-AE44-476D-9D4B-CF47E47A5F6C";
shapes = (
{
closed = 1;
nodes = (
(100,-114,o),
(135,-114,o),
(156,-86,cs),
(272,74,ls),
(281,87,o),
(286,101,o),
(288,117,cs),
(301,244,l),
(444,-78,ls),
(456,-105,o),
(487,-117,o),
(513,-103,cs),
(536,-90,o),
(543,-64,o),
(532,-39,cs),
(390,280,l),
(408,463,l),
(431,410,ls),
(438,395,o),
(447,383,o),
(459,372,cs),
(522,315,ls),
(542,297,o),
(574,298,o),
(591,317,cs),
(608,336,o),
(605,364,o),
(585,382,cs),
(535,427,ls),
(523,438,o),
(514,450,o),
(507,465,cs),
(470,550,ls),
(453,589,o),
(423,608,o),
(380,608,cs),
(281,608,ls),
(238,608,o),
(202,594,o),
(170,566,cs),
(98,501,ls),
(86,490,o),
(79,477,o),
(75,461,cs),
(52,360,ls),
(46,334,o),
(61,311,o),
(85,305,cs),
(110,299,o),
(137,312,o),
(143,339,cs),
(158,412,ls),
(161,428,o),
(169,441,o),
(181,452,cs),
(229,495,l),
(195,152,ls),
(193,136,o),
(189,122,o),
(179,109,cs),
(77,-29,ls),
(62,-50,o),
(61,-77,o),
(80,-95,cs)
);
},
{
closed = 1;
nodes = (
(416,762,o),
(384,794,o),
(340,794,cs),
(296,794,o),
(264,762,o),
(264,719,cs),
(264,676,o),
(296,644,o),
(340,644,cs),
(384,644,o),
(416,676,o),
(416,719,cs)
);
}
);
width = 653;
}
);
metricLeft = o;
metricRight = o;
unicode = 57344;
},
{
color = (153,154,255,255);
glyphname = noPedestrians;
layers = (
{
guides = (
{
pos = (0,676);
}
);
layerId = "EF32B9A4-AE44-476D-9D4B-CF47E47A5F6C";
shapes = (
{
closed = 1;
nodes = (
(70,76,o),
(252,-110,o),
(520,-110,cs),
(788,-110,o),
(970,76,o),
(970,342,cs),
(970,608,o),
(788,794,o),
(520,794,cs),
(252,794,o),
(70,608,o),
(70,342,cs)
);
},
{
closed = 1;
nodes = (
(490,594,o),
(513,571,o),
(545,571,cs),
(576,571,o),
(600,594,o),
(600,625,cs),
(600,656,o),
(576,679,o),
(545,679,cs),
(513,679,o),
(490,656,o),
(490,625,cs)
);
},
{
closed = 1;
nodes = (
(588,383,l),
(593,441,l),
(608,408,ls),
(615,393,o),
(624,381,o),
(636,370,cs),
(676,334,ls),
(690,321,o),
(713,322,o),
(726,336,cs),
(738,349,o),
(736,369,o),
(721,382,cs),
(690,410,ls),
(678,421,o),
(668,433,o),
(662,448,cs),
(645,487,ls),
(628,526,o),
(599,545,o),
(556,545,cs),
(520,545,ls),
(492,545,o),
(467,539,o),
(444,527,c)
);
},
{
closed = 1;
nodes = (
(517,282,l),
(620,51,l),
(628,31,o),
(651,23,o),
(670,33,cs),
(686,42,o),
(691,61,o),
(683,79,cs),
(654,145,l),
(747,52,l),
(687,5,o),
(610,-22,o),
(520,-22,cs),
(310,-22,o),
(166,126,o),
(166,342,cs),
(166,430,o),
(190,507,o),
(232,567,c),
(356,443,l),
(355,439,o),
(354,436,o),
(353,432,cs),
(337,366,l),
(333,347,o),
(344,331,o),
(361,327,cs),
(379,322,o),
(399,332,o),
(403,351,cs),
(410,389,l),
(453,346,l),
(441,223,ls),
(439,207,o),
(435,193,o),
(425,180,cs),
(355,86,ls),
(344,72,o),
(344,52,o),
(357,39,cs),
(372,25,o),
(397,25,o),
(412,45,cs),
(492,155,ls),
(501,168,o),
(506,182,o),
(508,198,cs)
);
},
{
closed = 1;
nodes = (
(376,686,o),
(443,706,o),
(520,706,cs),
(730,706,o),
(874,558,o),
(874,342,cs),
(874,267,o),
(857,201,o),
(825,146,c),
(820,136,o),
(814,127,o),
(808,118,c),
(294,632,l),
(302,639,o),
(311,645,o),
(320,651,cs)
);
}
);
width = 1040;
}
);
metricLeft = O;
metricRight = O;
unicode = 128695;
},
{
color = (153,154,255,255);
glyphname = noSmoking;
layers = (
{
guides = (
{
pos = (0,1034);
}
);
layerId = "EF32B9A4-AE44-476D-9D4B-CF47E47A5F6C";
shapes = (
{
closed = 1;
nodes = (
(788,-110,o),
(970,76,o),
(970,342,cs),
(970,608,o),
(788,794,o),
(520,794,cs),
(252,794,o),
(70,608,o),
(70,342,cs),
(70,76,o),
(252,-110,o),
(520,-110,cs)
);
},
{
closed = 1;
nodes = (
(672,299,l),
(729,242,l),
(729,299,l)
);
},
{
closed = 1;
nodes = (
(762,299,l),
(762,218,l),
(819,218,l),
(819,299,l)
);
},
{
closed = 1;
nodes = (
(562,409,l),
(694,409,ls),
(731,409,o),
(762,391,o),
(762,349,cs),
(762,331,l),
(819,331,l),
(819,349,ls),
(819,460,o),
(750,527,o),
(643,527,c),
(643,594,o),
(593,645,o),
(523,645,cs),
(467,645,o),
(423,611,o),
(409,562,c)
);
},
{
closed = 1;
nodes = (
(500,299,l),
(211,299,l),
(211,218,l),
(581,218,l),
(747,52,l),
(687,5,o),
(610,-22,o),
(520,-22,cs),
(310,-22,o),
(166,126,o),
(166,342,cs),
(166,430,o),
(190,507,o),
(232,567,c)
);
},
{
closed = 1;
nodes = (
(376,686,o),
(443,706,o),
(520,706,cs),
(730,706,o),
(874,558,o),
(874,342,cs),
(874,267,o),
(857,201,o),
(825,146,c),
(820,136,o),
(814,127,o),
(808,118,c),
(294,632,l),
(302,639,o),
(311,645,o),
(320,651,cs)
);
}
);
width = 1040;
}
);
metricLeft = O;
metricRight = O;
unicode = 128685;
},
{
color = (153,154,255,255);
glyphname = putLitterInItsPlace;
layers = (
{
guides = (
{
pos = (0,609);
},
{
pos = (0,791);
},
{
pos = (0,280);
}
);
layerId = "EF32B9A4-AE44-476D-9D4B-CF47E47A5F6C";
shapes = (
{
closed = 1;
nodes = (
(328,676,o),
(360,644,o),
(404,644,cs),
(448,644,o),
(480,676,o),
(480,719,cs),
(480,762,o),
(448,794,o),
(404,794,cs),
(360,794,o),
(328,762,o),
(328,719,cs)
);
},
{
closed = 1;
nodes = (
(380,240,ls),
(380,245,o),
(383,248,o),
(388,248,cs),
(420,248,ls),
(425,248,o),
(428,245,o),
(428,240,cs),
(428,-63,ls),
(428,-90,o),
(448,-110,o),
(476,-110,cs),
(504,-110,o),
(524,-90,o),
(524,-63,cs),
(524,496,ls),
(524,510,o),
(530,518,o),
(542,518,cs),
(554,518,o),
(560,510,o),
(560,496,cs),
(560,293,ls),
(560,267,o),
(579,248,o),
(606,248,cs),
(633,248,o),
(652,267,o),
(652,293,cs),
(652,497,ls),
(652,566,o),
(608,608,o),
(540,608,cs),
(266,608,ls),
(198,608,o),
(175,559,o),
(148,497,cs),
(82,347,ls),
(70,320,o),
(76,295,o),
(99,283,cs),
(126,269,o),
(153,283,o),
(167,314,cs),
(248,496,ls),
(254,509,o),
(258,518,o),
(270,518,cs),
(282,518,o),
(284,510,o),
(284,496,cs),
(284,-63,ls),
(284,-90,o),
(304,-110,o),
(332,-110,cs),
(360,-110,o),
(380,-90,o),
(380,-63,cs)
);
},
{
closed = 1;
nodes = (
(70,125,o),
(97,98,o),
(136,98,cs),
(175,98,o),
(202,125,o),
(202,163,cs),
(202,201,o),
(175,228,o),
(136,228,cs),
(97,228,o),
(70,201,o),
(70,163,cs)
);
},
{
closed = 1;
nodes = (
(71,-82,l),
(195,-11,l),
(70,62,l)
);
}
);
width = 722;
}
);
metricLeft = O;
metricRight = man;
unicode = 128686;
},
{
color = (153,154,255,255);
glyphname = doNotLitter;
layers = (
{
guides = (
{
pos = (0,676);
},
{
pos = (0,535);
},
{
pos = (0,663);
},
{
pos = (0,305);
}
);
layerId = "EF32B9A4-AE44-476D-9D4B-CF47E47A5F6C";
shapes = (
{
closed = 1;
nodes = (
(307,193,o),
(325,175,o),
(353,175,cs),
(380,175,o),
(399,193,o),
(399,220,cs),
(399,247,o),
(380,266,o),
(353,266,cs),
(325,266,o),
(307,247,o),
(307,220,cs)
);
},
{
closed = 1;
nodes = (
(311,130,l),
(383,59,l),
(408,156,l)
);
},
{
closed = 1;
nodes = (
(788,-110,o),
(970,76,o),
(970,342,cs),
(970,608,o),
(788,794,o),
(520,794,cs),
(252,794,o),
(70,608,o),
(70,342,cs),
(70,76,o),
(252,-110,o),
(520,-110,cs)
);
},
{
closed = 1;
nodes = (
(649,322,l),
(690,281,l),
(705,284,o),
(714,296,o),
(714,311,cs),
(714,454,ls),
(714,502,o),
(683,532,o),
(635,532,cs),
(439,532,l),
(624,347,l),
(624,453,ls),
(624,463,o),
(628,469,o),
(637,469,cs),
(645,469,o),
(649,463,o),
(649,453,cs)
);
},
{
closed = 1;
nodes = (
(571,557,o),
(593,579,o),
(593,610,cs),
(593,640,o),
(571,662,o),
(540,662,cs),
(509,662,o),
(487,640,o),
(487,610,cs),
(487,579,o),
(509,557,o),
(540,557,cs)
);
},
{
closed = 1;
nodes = (
(166,430,o),
(190,507,o),
(232,567,c),
(356,443,l),
(315,349,ls),
(307,330,o),
(311,312,o),
(328,303,cs),
(346,294,o),
(364,304,o),
(374,326,cs),
(405,394,l),
(456,343,l),
(456,62,ls),
(456,43,o),
(470,29,o),
(490,29,cs),
(509,29,o),
(523,43,o),
(523,62,cs),
(523,276,l),
(557,242,l),
(557,62,ls),
(557,43,o),
(571,29,o),
(591,29,cs),
(610,29,o),
(624,43,o),
(624,62,cs),
(624,175,l),
(747,52,l),
(687,5,o),
(610,-22,o),
(520,-22,cs),
(310,-22,o),
(166,126,o),
(166,342,cs)
);
},
{
closed = 1;
nodes = (
(294,632,l),
(302,639,o),
(311,645,o),
(320,651,cs),
(375,686,o),
(444,706,o),
(520,706,cs),
(730,706,o),
(874,558,o),
(874,342,cs),
(874,267,o),
(857,201,o),
(825,146,c),
(820,136,o),
(814,127,o),
(808,118,c)
);
}
);
width = 1040;
}
);
metricLeft = O;
metricRight = O;
unicode = 128687;
},
{
color = (153,154,255,255);
glyphname = smoking;
layers = (
{
guides = (
{
pos = (0,1158);
}
);
layerId = "EF32B9A4-AE44-476D-9D4B-CF47E47A5F6C";
shapes = (
{
closed = 1;
nodes = (
(186,165,l),
(186,255,l),
(642,255,l),
(642,165,l)
);
},
{
closed = 1;
nodes = (
(678,165,l),
(678,255,l),
(742,255,l),
(742,165,l)
);
},
{
closed = 1;
nodes = (
(778,165,l),
(778,255,l),
(842,255,l),
(842,165,l)
);
},
{
closed = 1;
nodes = (
(765,508,o),
(842,434,o),
(842,317,cs),
(842,291,l),
(778,291,l),
(778,311,ls),
(778,357,o),
(744,377,o),
(703,377,cs),
(513,377,ls),
(436,377,o),
(380,433,o),
(380,508,cs),
(380,583,o),
(436,639,o),
(513,639,cs),
(590,639,o),
(646,583,o),
(646,508,c)
);
},
{
closed = 1;
nodes = (
(958,672,ls),
(958,740,o),
(914,784,o),
(846,784,cs),
(182,784,ls),
(114,784,o),
(70,740,o),
(70,672,cs),
(70,12,ls),
(70,-56,o),
(114,-100,o),
(182,-100,cs),
(846,-100,ls),
(914,-100,o),
(958,-56,o),
(958,12,cs)
);
}
);
width = 1028;
}
);
metricLeft = O;
metricRight = O;
unicode = 128684;
},
{
color = (153,154,255,255);
glyphname = taxi;
layers = (
{
layerId = "EF32B9A4-AE44-476D-9D4B-CF47E47A5F6C";
shapes = (
{
closed = 1;
nodes = (
(186,27,l),
(908,27,l),
(908,-53,ls),
(908,-87,o),
(932,-110,o),
(966,-110,cs),
(1000,-110,o),
(1024,-87,o),
(1024,-53,cs),
(1024,316,ls),
(1024,373,o),
(994,412,o),
(944,424,c),
(844,690,ls),
(819,757,o),
(786,784,o),
(710,784,cs),
(384,784,ls),
(308,784,o),
(275,757,o),
(250,690,cs),
(150,424,l),
(100,412,o),
(70,373,o),
(70,316,cs),
(70,-53,ls),
(70,-87,o),
(94,-110,o),
(128,-110,cs),
(162,-110,o),
(186,-87,o),
(186,-53,cs)
);
},
{
closed = 1;
nodes = (
(719,694,ls),
(741,694,o),
(745,685,o),
(751,670,cs),
(842,428,l),
(252,428,l),
(343,670,ls),
(349,685,o),
(353,694,o),
(375,694,cs)
);
},
{
closed = 1;
nodes = (
(367,820,l),
(455,820,l),
(455,894,l),
(503,894,l),
(503,820,l),
(591,820,l),
(591,894,l),
(639,894,l),
(639,820,l),
(727,820,l),
(727,910,l),
(659,910,l),
(659,984,l),
(571,984,l),
(571,910,l),
(523,910,l),
(523,984,l),
(435,984,l),
(435,910,l),
(367,910,l)
);
},
{
closed = 1;
nodes = (
(776,304,o),
(808,336,o),
(852,336,cs),
(896,336,o),
(928,304,o),
(928,261,cs),
(928,218,o),
(896,186,o),
(852,186,cs),
(808,186,o),
(776,218,o),
(776,261,cs)
);
},
{
closed = 1;
nodes = (
(166,304,o),
(198,336,o),
(242,336,cs),
(286,336,o),
(318,304,o),
(318,261,cs),
(318,218,o),
(286,186,o),
(242,186,cs),
(198,186,o),
(166,218,o),
(166,261,cs)
);
}
);
width = 1094;
}
);
metricLeft = O;
metricRight = O;
unicode = 128661;
},
{
color = (153,154,255,255);
glyphname = automobile;
layers = (
{
layerId = "EF32B9A4-AE44-476D-9D4B-CF47E47A5F6C";
shapes = (
{
closed = 1;
nodes = (
(186,27,l),
(908,27,l),
(908,-53,ls),
(908,-87,o),
(932,-110,o),
(966,-110,cs),
(1000,-110,o),
(1024,-87,o),
(1024,-53,cs),
(1024,316,ls),
(1024,373,o),
(994,412,o),
(944,424,c),
(844,690,ls),
(819,757,o),
(786,784,o),
(710,784,cs),
(384,784,ls),
(308,784,o),
(275,757,o),
(250,690,cs),
(150,424,l),
(100,412,o),
(70,373,o),
(70,316,cs),
(70,-53,ls),
(70,-87,o),
(94,-110,o),
(128,-110,cs),
(162,-110,o),
(186,-87,o),
(186,-53,cs)
);
},
{
closed = 1;
nodes = (
(166,304,o),
(198,336,o),
(242,336,cs),
(286,336,o),
(318,304,o),
(318,261,cs),
(318,218,o),
(286,186,o),
(242,186,cs),
(198,186,o),
(166,218,o),
(166,261,cs)
);
},
{
closed = 1;
nodes = (
(776,304,o),
(808,336,o),
(852,336,cs),
(896,336,o),
(928,304,o),
(928,261,cs),
(928,218,o),
(896,186,o),
(852,186,cs),
(808,186,o),
(776,218,o),
(776,261,cs)
);
},
{
closed = 1;
nodes = (
(719,694,ls),
(741,694,o),
(745,685,o),
(751,670,cs),
(842,428,l),
(252,428,l),
(343,670,ls),
(349,685,o),
(353,694,o),
(375,694,cs)
);
}
);
width = 1094;
}
);
metricLeft = O;
metricRight = O;
unicode = 128663;
},
{
color = (153,154,255,255);
glyphname = woman;
layers = (
{
layerId = "EF32B9A4-AE44-476D-9D4B-CF47E47A5F6C";
shapes = (
{
closed = 1;
nodes = (
(424,676,o),
(392,644,o),
(348,644,cs),
(304,644,o),
(272,676,o),
(272,719,cs),
(272,762,o),
(304,794,o),
(348,794,cs),
(392,794,o),
(424,762,o),
(424,719,cs)
);
},
{
closed = 1;
nodes = (
(324,-63,ls),
(324,-90,o),
(304,-110,o),
(276,-110,cs),
(248,-110,o),
(228,-90,o),
(228,-60,cs),
(228,108,l),
(133,108,l),
(276,491,ls),
(283,509,o),
(274,518,o),
(262,518,cs),
(250,518,o),
(245,508,o),
(240,494,cs),
(156,278,ls),
(145,251,o),
(118,241,o),
(94,254,cs),
(72,265,o),
(66,288,o),
(74,309,cs),
(147,497,ls),
(172,562,o),
(192,608,o),
(260,608,cs),
(436,608,ls),
(504,608,o),
(524,562,o),
(549,497,cs),
(622,309,ls),
(630,288,o),
(624,265,o),
(602,254,cs),
(578,241,o),
(551,251,o),
(540,278,cs),
(456,494,ls),
(451,508,o),
(446,518,o),
(434,518,cs),
(422,518,o),
(413,509,o),
(420,491,cs),
(563,108,l),
(468,108,l),
(468,-63,ls),
(468,-90,o),
(448,-110,o),
(420,-110,cs),
(392,-110,o),
(372,-90,o),
(372,-63,cs),
(372,100,ls),
(372,105,o),
(369,108,o),
(364,108,cs),
(332,108,ls),
(327,108,o),
(324,105,o),
(324,100,cs)
);
}
);
width = 696;
}
);
metricLeft = O;
metricRight = O;
unicode = 128105;
},
{
color = (153,154,255,255);
glyphname = boy;
layers = (
{
guides = (
{
pos = (0,-179);
},
{
pos = (0,648);
},
{
pos = (0,830);
},
{
pos = (0,587);
}
);
layerId = "EF32B9A4-AE44-476D-9D4B-CF47E47A5F6C";
shapes = (
{
closed = 1;
nodes = (
(220,476,o),
(252,444,o),
(296,444,cs),
(340,444,o),
(372,476,o),
(372,519,cs),
(372,562,o),
(340,594,o),
(296,594,cs),
(252,594,o),
(220,562,o),
(220,519,cs)
);
},
{
closed = 1;
nodes = (
(282,104,ls),
(282,110,o),
(284,112,o),
(290,112,cs),
(302,112,ls),
(308,112,o),
(310,110,o),
(310,104,cs),
(310,-65,ls),
(310,-91,o),
(329,-110,o),
(356,-110,cs),
(383,-110,o),
(402,-91,o),
(402,-65,cs),
(402,300,ls),
(402,312,o),
(408,318,o),
(418,318,cs),
(428,318,o),
(434,312,o),
(434,300,cs),
(434,155,ls),
(434,130,o),
(452,112,o),
(478,112,cs),
(504,112,o),
(522,130,o),
(522,155,cs),
(522,297,ls),
(522,366,o),
(478,408,o),
(410,408,cs),
(182,408,ls),
(114,408,o),
(70,366,o),
(70,297,cs),
(70,155,ls),
(70,130,o),
(88,112,o),
(114,112,cs),
(140,112,o),
(158,130,o),
(158,155,cs),
(158,300,ls),
(158,312,o),
(164,318,o),
(174,318,cs),
(184,318,o),
(190,312,o),
(190,300,cs),
(190,-65,ls),
(190,-91,o),
(209,-110,o),
(236,-110,cs),
(263,-110,o),
(282,-91,o),
(282,-65,cs)
);
}
);
width = 592;
}
);
metricLeft = O;
metricRight = O;
unicode = 128102;
},
{
color = (154,153,255,255);
glyphname = peace;
layers = (
{
layerId = "EF32B9A4-AE44-476D-9D4B-CF47E47A5F6C";
shapes = (
{
closed = 1;
nodes = (
(70,76,o),
(252,-110,o),
(520,-110,cs),
(788,-110,o),
(970,76,o),
(970,342,cs),
(970,608,o),
(788,794,o),
(520,794,cs),
(252,794,o),
(70,608,o),
(70,342,cs)
);
},
{
closed = 1;
nodes = (
(874,271,o),
(859,207,o),
(830,153,c),
(568,415,l),
(568,703,l),
(752,682,o),
(874,541,o),
(874,342,cs)
);
},
{
closed = 1;
nodes = (
(210,153,l),
(181,207,o),
(166,271,o),
(166,342,cs),
(166,541,o),
(288,682,o),
(472,703,c),
(472,415,l)
);
},
{
closed = 1;
nodes = (
(472,292,l),
(472,-19,l),
(387,-9,o),
(316,26,o),
(263,81,c)
);
},
{
closed = 1;
nodes = (
(568,292,l),
(777,81,l),
(724,26,o),
(653,-9,o),
(568,-19,c)
);
}
);
width = 1040;
}
);
metricLeft = O;
metricRight = O;
unicode = 9774;
},
{
color = (153,154,255,255);
glyphname = guillemotleft;
layers = (
{
layerId = "EF32B9A4-AE44-476D-9D4B-CF47E47A5F6C";
shapes = (
{
closed = 1;
nodes = (
(165,74,l),
(264,74,l),
(129,260,l),
(264,446,l),
(165,446,l),
(30,260,l)
);
},
{
closed = 1;
nodes = (
(354,74,l),
(453,74,l),
(318,260,l),
(453,446,l),
(354,446,l),
(219,260,l)
);
}
);
width = 483;
}
);
metricLeft = guilsinglleft;
metricRight = guilsinglleft;
unicode = 171;
},
{
color = (153,154,255,255);
glyphname = quoteleft;
layers = (
{
layerId = "EF32B9A4-AE44-476D-9D4B-CF47E47A5F6C";
shapes = (
{
closed = 1;
nodes = (
(204,700,l),
(128,700,l),
(20,430,l),
(130,430,l)
);
}
);
width = 224;
}
);
metricLeft = "=20";
metricRight = "=|";
unicode = 8216;
},
{
color = (153,154,255,255);
glyphname = quotereversed;
layers = (
{
layerId = "EF32B9A4-AE44-476D-9D4B-CF47E47A5F6C";
shapes = (
{
closed = 1;
nodes = (
(130,700,l),
(20,700,l),
(128,430,l),
(204,430,l)
);
}
);
width = 224;
}
);
metricLeft = quoteleft;
metricRight = quoteleft;
unicode = 8219;
},
{
color = (153,154,255,255);
glyphname = quotedblleft;
layers = (
{
guides = (
{
pos = (0,452);
}
);
layerId = "EF32B9A4-AE44-476D-9D4B-CF47E47A5F6C";
shapes = (
{
closed = 1;
nodes = (
(204,700,l),
(128,700,l),
(20,430,l),
(130,430,l)
);
},
{
closed = 1;
nodes = (
(386,700,l),
(310,700,l),
(202,430,l),
(312,430,l)
);
}
);
width = 406;
}
);
metricLeft = quoteleft;
metricRight = quoteleft;
unicode = 8220;
},
{
color = (153,154,255,255);
glyphname = quotedblreversed;
layers = (
{
layerId = "EF32B9A4-AE44-476D-9D4B-CF47E47A5F6C";
shapes = (
{
closed = 1;
nodes = (
(130,700,l),
(20,700,l),
(128,430,l),
(204,430,l)
);
},
{
closed = 1;
nodes = (
(312,700,l),
(202,700,l),
(310,430,l),
(386,430,l)
);
}
);
width = 406;
}
);
metricLeft = quoteleft;
metricRight = quoteleft;
unicode = 8223;
},
{
color = (153,154,255,255);
glyphname = guilsinglleft;
layers = (
{
guides = (
{
pos = (0,260);
}
);
layerId = "EF32B9A4-AE44-476D-9D4B-CF47E47A5F6C";
shapes = (
{
closed = 1;
nodes = (
(165,74,l),
(264,74,l),
(129,260,l),
(264,446,l),
(165,446,l),
(30,260,l)
);
}
);
width = 294;
}
);
metricLeft = "=30";
metricRight = "=|";
unicode = 8249;
},
{
color = (153,154,255,255);
glyphname = guillemotright;
layers = (
{
layerId = "EF32B9A4-AE44-476D-9D4B-CF47E47A5F6C";
shapes = (
{
closed = 1;
nodes = (
(129,74,l),
(264,260,l),
(129,446,l),
(30,446,l),
(165,260,l),
(30,74,l)
);
},
{
closed = 1;
nodes = (
(318,74,l),
(453,260,l),
(318,446,l),
(219,446,l),
(354,260,l),
(219,74,l)
);
}
);
width = 483;
}
);
metricLeft = guilsinglleft;
metricRight = guilsinglleft;
unicode = 187;
},
{
color = (153,154,255,255);
glyphname = quoteright;
layers = (
{
layerId = "EF32B9A4-AE44-476D-9D4B-CF47E47A5F6C";
shapes = (
{
closed = 1;
nodes = (
(20,430,l),
(96,430,l),
(204,700,l),
(94,700,l)
);
}
);
width = 224;
}
);
metricLeft = "=20";
metricRight = "=|";
unicode = 8217;
},
{
color = (153,154,255,255);
glyphname = quotedblright;
layers = (
{
layerId = "EF32B9A4-AE44-476D-9D4B-CF47E47A5F6C";
shapes = (
{
closed = 1;
nodes = (
(20,430,l),
(96,430,l),
(204,700,l),
(94,700,l)
);
},
{
closed = 1;
nodes = (
(202,430,l),
(278,430,l),
(386,700,l),
(276,700,l)
);
}
);
width = 406;
}
);
metricLeft = quoteleft;
metricRight = quoteleft;
unicode = 8221;
},
{
color = (153,154,255,255);
glyphname = guilsinglright;
layers = (
{
layerId = "EF32B9A4-AE44-476D-9D4B-CF47E47A5F6C";
shapes = (
{
closed = 1;
nodes = (
(129,74,l),
(264,260,l),
(129,446,l),
(30,446,l),
(165,260,l),
(30,74,l)
);
}
);
width = 294;
}
);
metricLeft = guilsinglleft;
metricRight = guilsinglleft;
unicode = 8250;
},
